<svg width="635" height="32" viewBox="0 0 635 32" fill="none" xmlns="http://www.w3.org/2000/svg">
<g filter="url(#filter0_iiii_3872_4016)">
<path d="M0 5.96939C0 2.67259 2.67259 0 5.96939 0H628.112C631.409 0 634.082 2.67259 634.082 5.96939V31.6378H0V5.96939Z" fill="#191C1F"/>
<g clip-path="url(#clip0_3872_4016)">
<path d="M543.564 20.578C546.329 20.578 548.618 18.2839 548.618 15.5239C548.618 12.759 546.324 10.4697 543.559 10.4697C540.799 10.4697 538.51 12.759 538.51 15.5239C538.51 18.2839 540.804 20.578 543.564 20.578ZM543.564 19.7357C541.225 19.7357 539.357 17.8627 539.357 15.5239C539.357 13.1851 541.22 11.3121 543.559 11.3121C545.898 11.3121 547.771 13.1851 547.776 15.5239C547.781 17.8627 545.903 19.7357 543.564 19.7357ZM543.564 13.0018C543.351 13.0018 543.192 13.1554 543.192 13.3734V15.8509L543.232 16.8964L542.736 16.3018L542.147 15.7072C542.077 15.6428 541.988 15.5982 541.884 15.5982C541.681 15.5982 541.527 15.7568 541.527 15.955C541.527 16.059 541.557 16.1482 541.622 16.2126L543.277 17.8627C543.376 17.9618 543.46 18.0014 543.564 18.0014C543.673 18.0014 543.762 17.9568 543.856 17.8627L545.506 16.2126C545.571 16.1482 545.61 16.059 545.61 15.955C545.61 15.7568 545.452 15.5982 545.249 15.5982C545.14 15.5982 545.05 15.6379 544.986 15.7072L544.401 16.3018L543.896 16.9014L543.936 15.8509V13.3734C543.936 13.1554 543.782 13.0018 543.564 13.0018Z" fill="#999C9F"/>
<path d="M568.039 16.8721C568.252 16.8721 568.43 16.6937 568.43 16.4856V11.3968L568.4 10.6535L568.737 11.0053L569.486 11.808C569.555 11.8873 569.659 11.927 569.753 11.927C569.961 11.927 570.115 11.7783 570.115 11.5752C570.115 11.4711 570.075 11.3918 570.001 11.3175L568.326 9.70215C568.227 9.60304 568.138 9.56836 568.039 9.56836C567.94 9.56836 567.85 9.60304 567.751 9.70215L566.077 11.3175C566.002 11.3918 565.958 11.4711 565.958 11.5752C565.958 11.7783 566.111 11.927 566.314 11.927C566.414 11.927 566.518 11.8873 566.587 11.808L567.34 11.0053L567.677 10.6535L567.642 11.3968V16.4856C567.642 16.6937 567.826 16.8721 568.039 16.8721ZM565.195 20.7519H570.878C571.914 20.7519 572.434 20.2366 572.434 19.2159V14.2707C572.434 13.25 571.914 12.7346 570.878 12.7346H569.496V13.5324H570.863C571.354 13.5324 571.636 13.8 571.636 14.3153V19.1713C571.636 19.6866 571.354 19.9542 570.863 19.9542H565.204C564.709 19.9542 564.436 19.6866 564.436 19.1713V14.3153C564.436 13.8 564.709 13.5324 565.204 13.5324H566.577V12.7346H565.195C564.159 12.7346 563.639 13.25 563.639 14.2707V19.2159C563.639 20.2366 564.159 20.7519 565.195 20.7519Z" fill="#999C9F"/>
<path d="M592.513 19.7017C592.756 19.7017 592.959 19.5085 592.959 19.2706V15.9755H596.16C596.398 15.9755 596.601 15.7724 596.601 15.5296C596.601 15.2868 596.398 15.0886 596.16 15.0886H592.959V11.7885C592.959 11.5507 592.756 11.3574 592.513 11.3574C592.271 11.3574 592.072 11.5507 592.072 11.7885V15.0886H588.867C588.629 15.0886 588.426 15.2868 588.426 15.5296C588.426 15.7724 588.629 15.9755 588.867 15.9755H592.072V19.2706C592.072 19.5085 592.271 19.7017 592.513 19.7017Z" fill="#999C9F"/>
<path d="M613.301 18.4285H614.149V19.1866C614.149 20.2073 614.664 20.7226 615.705 20.7226H620.68C621.71 20.7226 622.231 20.2073 622.231 19.1866V14.1721C622.231 13.1513 621.71 12.636 620.68 12.636H619.827V11.8779C619.827 10.8571 619.307 10.3418 618.276 10.3418H613.301C612.261 10.3418 611.746 10.8571 611.746 11.8779V16.8924C611.746 17.9131 612.261 18.4285 613.301 18.4285ZM613.311 17.6307C612.816 17.6307 612.543 17.3631 612.543 16.8478V11.9225C612.543 11.4071 612.816 11.1396 613.311 11.1396H618.262C618.752 11.1396 619.03 11.4071 619.03 11.9225V12.636H615.705C614.664 12.636 614.149 13.1464 614.149 14.1721V17.6307H613.311ZM615.715 19.9249C615.224 19.9249 614.947 19.6573 614.947 19.142V14.2167C614.947 13.7013 615.224 13.4338 615.715 13.4338H620.665C621.155 13.4338 621.433 13.7013 621.433 14.2167V19.142C621.433 19.6573 621.155 19.9249 620.665 19.9249H615.715Z" fill="#999C9F"/>
</g>
<g clip-path="url(#clip1_3872_4016)">
<path d="M91.4891 19.6919L87.5597 15.8567C87.4656 15.7625 87.416 15.6486 87.416 15.5247C87.416 15.3959 87.4705 15.272 87.5647 15.1927L91.4891 11.3525C91.5733 11.2683 91.6823 11.2188 91.8112 11.2188C92.0688 11.2188 92.2621 11.417 92.2621 11.6746C92.2621 11.7935 92.2125 11.9125 92.1332 11.9967L88.5259 15.5247L92.1332 19.0527C92.2125 19.1369 92.2621 19.2509 92.2621 19.3748C92.2621 19.6324 92.0688 19.8257 91.8112 19.8257C91.6823 19.8257 91.5733 19.7761 91.4891 19.6919Z" fill="#999C9F"/>
<path d="M107.566 19.8306C107.695 19.8306 107.804 19.7811 107.888 19.6969L111.817 15.8567C111.911 15.7625 111.961 15.6486 111.961 15.5247C111.961 15.3959 111.911 15.2769 111.817 15.1927L107.893 11.3575C107.804 11.2683 107.695 11.2188 107.566 11.2188C107.308 11.2188 107.115 11.417 107.115 11.6746C107.115 11.7935 107.165 11.9125 107.244 11.9967L110.851 15.5247L107.244 19.0527C107.165 19.1369 107.115 19.2509 107.115 19.3748C107.115 19.6324 107.308 19.8306 107.566 19.8306Z" fill="#3D4043"/>
</g>
<path d="M60.4817 20.093H69.0539C70.0945 20.093 70.6098 19.5776 70.6098 18.5569V12.5068C70.6098 11.486 70.0945 10.9707 69.0539 10.9707H60.4817C59.4461 10.9707 58.9258 11.4811 58.9258 12.5068V18.5569C58.9258 19.5826 59.4461 20.093 60.4817 20.093ZM60.4916 19.2952C59.9961 19.2952 59.7235 19.0326 59.7235 18.5173V12.5464C59.7235 12.0311 59.9961 11.7685 60.4916 11.7685H62.7015V19.2952H60.4916ZM69.044 11.7685C69.5346 11.7685 69.812 12.0311 69.812 12.5464V18.5173C69.812 19.0326 69.5346 19.2952 69.044 19.2952H63.4795V11.7685H69.044ZM61.7452 13.6068C61.8988 13.6068 62.0276 13.473 62.0276 13.3293C62.0276 13.1807 61.8988 13.0518 61.7452 13.0518H60.6848C60.5362 13.0518 60.4024 13.1807 60.4024 13.3293C60.4024 13.473 60.5362 13.6068 60.6848 13.6068H61.7452ZM61.7452 14.8902C61.8988 14.8902 62.0276 14.7564 62.0276 14.6077C62.0276 14.4591 61.8988 14.3352 61.7452 14.3352H60.6848C60.5362 14.3352 60.4024 14.4591 60.4024 14.6077C60.4024 14.7564 60.5362 14.8902 60.6848 14.8902H61.7452ZM61.7452 16.1686C61.8988 16.1686 62.0276 16.0447 62.0276 15.896C62.0276 15.7474 61.8988 15.6185 61.7452 15.6185H60.6848C60.5362 15.6185 60.4024 15.7474 60.4024 15.896C60.4024 16.0447 60.5362 16.1686 60.6848 16.1686H61.7452Z" fill="#999C9F"/>
<g filter="url(#filter1_i_3872_4016)">
<path fill-rule="evenodd" clip-rule="evenodd" d="M16.1168 19.1017C18.0949 19.1017 19.6984 17.4982 19.6984 15.5201C19.6984 13.542 18.0949 11.9385 16.1168 11.9385C14.1387 11.9385 12.5352 13.542 12.5352 15.5201C12.5352 17.4982 14.1387 19.1017 16.1168 19.1017Z" fill="#EE6A5F"/>
</g>
<path d="M19.5492 15.5201C19.5492 17.4158 18.0125 18.9525 16.1168 18.9525C14.2211 18.9525 12.6844 17.4158 12.6844 15.5201C12.6844 13.6244 14.2211 12.0877 16.1168 12.0877C18.0125 12.0877 19.5492 13.6244 19.5492 15.5201Z" stroke="#CE5347" stroke-width="0.298469"/>
<g filter="url(#filter2_i_3872_4016)">
<path fill-rule="evenodd" clip-rule="evenodd" d="M28.0562 19.1017C30.0343 19.1017 31.6379 17.4982 31.6379 15.5201C31.6379 13.542 30.0343 11.9385 28.0562 11.9385C26.0782 11.9385 24.4746 13.542 24.4746 15.5201C24.4746 17.4982 26.0782 19.1017 28.0562 19.1017Z" fill="#F5BD4F"/>
</g>
<path d="M31.4886 15.5201C31.4886 17.4158 29.9519 18.9525 28.0562 18.9525C26.1606 18.9525 24.6238 17.4158 24.6238 15.5201C24.6238 13.6244 26.1606 12.0877 28.0562 12.0877C29.9519 12.0877 31.4886 13.6244 31.4886 15.5201Z" stroke="#D6A243" stroke-width="0.298469"/>
<g filter="url(#filter3_i_3872_4016)">
<path fill-rule="evenodd" clip-rule="evenodd" d="M39.9937 19.1017C41.9718 19.1017 43.5754 17.4982 43.5754 15.5201C43.5754 13.542 41.9718 11.9385 39.9937 11.9385C38.0157 11.9385 36.4121 13.542 36.4121 15.5201C36.4121 17.4982 38.0157 19.1017 39.9937 19.1017Z" fill="#61C454"/>
</g>
<path d="M43.4261 15.5201C43.4261 17.4158 41.8894 18.9525 39.9937 18.9525C38.0981 18.9525 36.5613 17.4158 36.5613 15.5201C36.5613 13.6244 38.0981 12.0877 39.9937 12.0877C41.8894 12.0877 43.4261 13.6244 43.4261 15.5201Z" stroke="#58A942" stroke-width="0.298469"/>
<g clip-path="url(#clip2_3872_4016)">
<path d="M178.278 20.6628C178.357 20.6628 178.486 20.6331 178.61 20.5637C181.429 18.983 182.396 18.3141 182.396 16.5055V12.7149C182.396 12.1946 182.173 12.0311 181.752 11.8527C181.167 11.6099 179.279 10.931 178.694 10.7279C178.56 10.6833 178.417 10.6536 178.278 10.6536C178.139 10.6536 177.996 10.6932 177.867 10.7279C177.282 10.8964 175.389 11.6148 174.805 11.8527C174.388 12.0261 174.16 12.1946 174.16 12.7149V16.5055C174.16 18.3141 175.132 18.9781 177.946 20.5637C178.075 20.6331 178.199 20.6628 178.278 20.6628ZM178.476 11.4959C179.224 11.7932 180.676 12.3185 181.444 12.5811C181.578 12.6306 181.608 12.7 181.608 12.8685V16.3222C181.608 17.8533 180.875 18.2546 178.585 19.647C178.442 19.7362 178.362 19.761 178.283 19.7659V11.4513C178.333 11.4513 178.397 11.4662 178.476 11.4959Z" fill="#999C9F"/>
<rect x="193.5" y="7.16333" width="247.133" height="16.7143" rx="3.58163" fill="#0C0F12"/>
<g clip-path="url(#clip3_3872_4016)">
<path d="M295.545 18.5752H298.875C299.326 18.5752 299.546 18.3514 299.546 17.8617V15.2944C299.546 14.8537 299.364 14.6263 298.99 14.5878V13.7064C298.99 12.3878 298.126 11.7512 297.21 11.7512C296.293 11.7512 295.429 12.3878 295.429 13.7064V14.6053C295.087 14.6578 294.873 14.8817 294.873 15.2944V17.8617C294.873 18.3514 295.094 18.5752 295.545 18.5752ZM295.993 13.633C295.993 12.7551 296.556 12.2899 297.21 12.2899C297.864 12.2899 298.427 12.7551 298.427 13.633V14.5843L295.993 14.5878V13.633Z" fill="#DBDBDC"/>
<path d="M305.773 17.7353C306.807 17.7353 307.485 16.8979 307.485 15.6248V15.6172C307.485 14.3364 306.811 13.5066 305.773 13.5066C305.212 13.5066 304.723 13.787 304.5 14.2228H304.439V11.9569H303.78V17.6633H304.439V17.0116H304.5C304.75 17.4663 305.204 17.7353 305.773 17.7353ZM305.621 17.1518C304.879 17.1518 304.424 16.5683 304.424 15.6248V15.6172C304.424 14.6737 304.879 14.0902 305.621 14.0902C306.368 14.0902 306.811 14.6661 306.811 15.6172V15.6248C306.811 16.5758 306.368 17.1518 305.621 17.1518ZM309.599 17.7353C310.149 17.7353 310.577 17.4966 310.834 17.0609H310.895V17.6633H311.554V14.8669C311.554 14.0182 310.997 13.5066 310.001 13.5066C309.129 13.5066 308.508 13.9386 308.402 14.579L308.398 14.6017H309.057L309.061 14.5903C309.167 14.272 309.489 14.0902 309.978 14.0902C310.588 14.0902 310.895 14.363 310.895 14.8669V15.2383L309.724 15.3103C308.773 15.3671 308.235 15.7877 308.235 16.5152V16.5228C308.235 17.2655 308.822 17.7353 309.599 17.7353ZM308.909 16.5076V16.5001C308.909 16.0946 309.182 15.8748 309.804 15.837L310.895 15.7687V16.1401C310.895 16.7236 310.406 17.1632 309.736 17.1632C309.262 17.1632 308.909 16.9207 308.909 16.5076ZM312.728 17.6633H313.388V15.1322C313.388 14.5335 313.835 14.1356 314.464 14.1356C314.608 14.1356 314.733 14.1508 314.869 14.1735V13.5331C314.805 13.5218 314.664 13.5066 314.539 13.5066C313.986 13.5066 313.604 13.7567 313.448 14.1849H313.388V13.5786H312.728V17.6633ZM317.18 17.6936C317.309 17.6936 317.434 17.6785 317.562 17.6558V17.095C317.441 17.1063 317.377 17.1101 317.259 17.1101C316.835 17.1101 316.668 16.9169 316.668 16.4356V14.1243H317.562V13.5786H316.668V12.5214H315.986V13.5786H315.342V14.1243H315.986V16.6024C315.986 17.3829 316.339 17.6936 317.18 17.6936ZM319.638 17.7353C320.188 17.7353 320.616 17.4966 320.873 17.0609H320.934V17.6633H321.593V14.8669C321.593 14.0182 321.036 13.5066 320.04 13.5066C319.168 13.5066 318.547 13.9386 318.441 14.579L318.437 14.6017H319.096L319.1 14.5903C319.206 14.272 319.528 14.0902 320.017 14.0902C320.627 14.0902 320.934 14.363 320.934 14.8669V15.2383L319.763 15.3103C318.812 15.3671 318.274 15.7877 318.274 16.5152V16.5228C318.274 17.2655 318.861 17.7353 319.638 17.7353ZM318.949 16.5076V16.5001C318.949 16.0946 319.221 15.8748 319.843 15.837L320.934 15.7687V16.1401C320.934 16.7236 320.445 17.1632 319.775 17.1632C319.301 17.1632 318.949 16.9207 318.949 16.5076ZM323.305 17.7012C323.578 17.7012 323.798 17.4777 323.798 17.2086C323.798 16.9358 323.578 16.716 323.305 16.716C323.036 16.716 322.813 16.9358 322.813 17.2086C322.813 17.4777 323.036 17.7012 323.305 17.7012ZM326.56 17.7353C327.541 17.7353 328.09 17.2086 328.257 16.4697L328.265 16.4281L327.613 16.4319L327.605 16.4546C327.454 16.9093 327.105 17.1518 326.556 17.1518C325.828 17.1518 325.358 16.5493 325.358 15.6096V15.602C325.358 14.6813 325.821 14.0902 326.556 14.0902C327.143 14.0902 327.507 14.416 327.609 14.8177L327.613 14.829H328.268L328.265 14.8063C328.143 14.0788 327.549 13.5066 326.556 13.5066C325.411 13.5066 324.684 14.3327 324.684 15.602V15.6096C324.684 16.9055 325.415 17.7353 326.56 17.7353ZM330.878 17.7353C332.042 17.7353 332.762 16.932 332.762 15.6248V15.6172C332.762 14.3061 332.042 13.5066 330.878 13.5066C329.715 13.5066 328.995 14.3061 328.995 15.6172V15.6248C328.995 16.932 329.715 17.7353 330.878 17.7353ZM330.878 17.1518C330.105 17.1518 329.67 16.5872 329.67 15.6248V15.6172C329.67 14.6509 330.105 14.0902 330.878 14.0902C331.651 14.0902 332.087 14.6509 332.087 15.6172V15.6248C332.087 16.5872 331.651 17.1518 330.878 17.1518ZM333.754 17.6633H334.413V15.1322C334.413 14.5562 334.818 14.0902 335.353 14.0902C335.868 14.0902 336.201 14.4047 336.201 14.8897V17.6633H336.861V15.0374C336.861 14.5183 337.236 14.0902 337.804 14.0902C338.38 14.0902 338.657 14.3895 338.657 14.992V17.6633H339.316V14.8404C339.316 13.9841 338.85 13.5066 338.017 13.5066C337.452 13.5066 336.986 13.7908 336.766 14.2228H336.705C336.516 13.7984 336.13 13.5066 335.576 13.5066C335.042 13.5066 334.656 13.7605 334.474 14.2H334.413V13.5786H333.754V17.6633Z" fill="white"/>
</g>
<path d="M433.506 14.9339C433.593 14.9339 433.66 14.9059 433.709 14.8534L435.15 13.4054C435.213 13.3459 435.237 13.276 435.237 13.1955C435.237 13.1186 435.206 13.0416 435.15 12.9857L433.709 11.5236C433.66 11.4677 433.59 11.4397 433.506 11.4397C433.348 11.4397 433.229 11.5656 433.229 11.7265C433.229 11.8 433.257 11.8699 433.306 11.9259L434.24 12.8423C434.041 12.8073 433.838 12.7863 433.635 12.7863C431.921 12.7863 430.543 14.1609 430.543 15.8748C430.543 17.5921 431.921 18.9702 433.635 18.9702C435.349 18.9702 436.724 17.5921 436.724 15.8748C436.724 15.7069 436.605 15.5845 436.433 15.5845C436.269 15.5845 436.161 15.7069 436.161 15.8748C436.161 17.2808 435.038 18.4071 433.635 18.4071C432.233 18.4071 431.106 17.2808 431.106 15.8748C431.106 14.4722 432.233 13.3494 433.635 13.3494C433.901 13.3494 434.146 13.3704 434.356 13.4159L433.31 14.4547C433.257 14.5107 433.229 14.5806 433.229 14.6541C433.229 14.815 433.348 14.9339 433.506 14.9339Z" fill="#DBDBDC"/>
</g>
</g>
<defs>
<filter id="filter0_iiii_3872_4016" x="0" y="0" width="634.082" height="31.6377" filterUnits="userSpaceOnUse" color-interpolation-filters="sRGB">
<feFlood flood-opacity="0" result="BackgroundImageFix"/>
<feBlend mode="normal" in="SourceGraphic" in2="BackgroundImageFix" result="shape"/>
<feColorMatrix in="SourceAlpha" type="matrix" values="0 0 0 0 0 0 0 0 0 0 0 0 0 0 0 0 0 0 127 0" result="hardAlpha"/>
<feOffset dx="0.596939"/>
<feComposite in2="hardAlpha" operator="arithmetic" k2="-1" k3="1"/>
<feColorMatrix type="matrix" values="0 0 0 0 0.278431 0 0 0 0 0.286275 0 0 0 0 0.298039 0 0 0 1 0"/>
<feBlend mode="normal" in2="shape" result="effect1_innerShadow_3872_4016"/>
<feColorMatrix in="SourceAlpha" type="matrix" values="0 0 0 0 0 0 0 0 0 0 0 0 0 0 0 0 0 0 127 0" result="hardAlpha"/>
<feOffset dx="-0.596939"/>
<feComposite in2="hardAlpha" operator="arithmetic" k2="-1" k3="1"/>
<feColorMatrix type="matrix" values="0 0 0 0 0.278431 0 0 0 0 0.286275 0 0 0 0 0.294118 0 0 0 1 0"/>
<feBlend mode="normal" in2="effect1_innerShadow_3872_4016" result="effect2_innerShadow_3872_4016"/>
<feColorMatrix in="SourceAlpha" type="matrix" values="0 0 0 0 0 0 0 0 0 0 0 0 0 0 0 0 0 0 127 0" result="hardAlpha"/>
<feOffset dy="0.596939"/>
<feComposite in2="hardAlpha" operator="arithmetic" k2="-1" k3="1"/>
<feColorMatrix type="matrix" values="0 0 0 0 1 0 0 0 0 1 0 0 0 0 1 0 0 0 0.4 0"/>
<feBlend mode="normal" in2="effect2_innerShadow_3872_4016" result="effect3_innerShadow_3872_4016"/>
<feColorMatrix in="SourceAlpha" type="matrix" values="0 0 0 0 0 0 0 0 0 0 0 0 0 0 0 0 0 0 127 0" result="hardAlpha"/>
<feOffset dy="0.298469"/>
<feComposite in2="hardAlpha" operator="arithmetic" k2="-1" k3="1"/>
<feColorMatrix type="matrix" values="0 0 0 0 1 0 0 0 0 1 0 0 0 0 1 0 0 0 0.4 0"/>
<feBlend mode="normal" in2="effect3_innerShadow_3872_4016" result="effect4_innerShadow_3872_4016"/>
</filter>
<filter id="filter1_i_3872_4016" x="12.5352" y="11.9385" width="7.16333" height="7.16333" filterUnits="userSpaceOnUse" color-interpolation-filters="sRGB">
<feFlood flood-opacity="0" result="BackgroundImageFix"/>
<feBlend mode="normal" in="SourceGraphic" in2="BackgroundImageFix" result="shape"/>
<feColorMatrix in="SourceAlpha" type="matrix" values="0 0 0 0 0 0 0 0 0 0 0 0 0 0 0 0 0 0 127 0" result="hardAlpha"/>
<feOffset/>
<feGaussianBlur stdDeviation="1.79082"/>
<feComposite in2="hardAlpha" operator="arithmetic" k2="-1" k3="1"/>
<feColorMatrix type="matrix" values="0 0 0 0 0.92549 0 0 0 0 0.427451 0 0 0 0 0.384314 0 0 0 1 0"/>
<feBlend mode="normal" in2="shape" result="effect1_innerShadow_3872_4016"/>
</filter>
<filter id="filter2_i_3872_4016" x="24.4746" y="11.9385" width="7.16333" height="7.16333" filterUnits="userSpaceOnUse" color-interpolation-filters="sRGB">
<feFlood flood-opacity="0" result="BackgroundImageFix"/>
<feBlend mode="normal" in="SourceGraphic" in2="BackgroundImageFix" result="shape"/>
<feColorMatrix in="SourceAlpha" type="matrix" values="0 0 0 0 0 0 0 0 0 0 0 0 0 0 0 0 0 0 127 0" result="hardAlpha"/>
<feOffset/>
<feGaussianBlur stdDeviation="1.79082"/>
<feComposite in2="hardAlpha" operator="arithmetic" k2="-1" k3="1"/>
<feColorMatrix type="matrix" values="0 0 0 0 0.960784 0 0 0 0 0.768627 0 0 0 0 0.317647 0 0 0 1 0"/>
<feBlend mode="normal" in2="shape" result="effect1_innerShadow_3872_4016"/>
</filter>
<filter id="filter3_i_3872_4016" x="36.4121" y="11.9385" width="7.16333" height="7.16333" filterUnits="userSpaceOnUse" color-interpolation-filters="sRGB">
<feFlood flood-opacity="0" result="BackgroundImageFix"/>
<feBlend mode="normal" in="SourceGraphic" in2="BackgroundImageFix" result="shape"/>
<feColorMatrix in="SourceAlpha" type="matrix" values="0 0 0 0 0 0 0 0 0 0 0 0 0 0 0 0 0 0 127 0" result="hardAlpha"/>
<feOffset/>
<feGaussianBlur stdDeviation="1.79082"/>
<feComposite in2="hardAlpha" operator="arithmetic" k2="-1" k3="1"/>
<feColorMatrix type="matrix" values="0 0 0 0 0.407843 0 0 0 0 0.8 0 0 0 0 0.345098 0 0 0 1 0"/>
<feBlend mode="normal" in2="shape" result="effect1_innerShadow_3872_4016"/>
</filter>
<clipPath id="clip0_3872_4016">
<rect width="93.1225" height="16.7143" fill="white" transform="translate(533.715 7.16309)"/>
</clipPath>
<clipPath id="clip1_3872_4016">
<rect width="39.398" height="16.7143" fill="white" transform="translate(79.9902 7.16309)"/>
</clipPath>
<clipPath id="clip2_3872_4016">
<rect width="297.226" height="16.7143" fill="white" transform="translate(168.428 7.16333)"/>
</clipPath>
<clipPath id="clip3_3872_4016">
<rect x="294.873" y="10.6633" width="45.2545" height="9" fill="white"/>
</clipPath>
</defs>
</svg>
