<svg width="32" height="32" viewBox="0 0 32 32" fill="none" xmlns="http://www.w3.org/2000/svg">
<circle cx="16" cy="16" r="15" stroke="#545454" stroke-width="1.618"/>
<path d="M21.7625 14.2408L16.4433 19.5759C16.3799 19.6392 16.3113 19.6839 16.2375 19.7101C16.1636 19.7367 16.0844 19.75 16 19.75C15.9156 19.75 15.8364 19.7367 15.7625 19.7101C15.6887 19.6839 15.6201 19.6392 15.5567 19.5759L10.2216 14.2408C10.0739 14.093 10 13.9083 10 13.6867C10 13.465 10.0792 13.2751 10.2375 13.1168C10.3958 12.9584 10.5805 12.8793 10.7916 12.8793C11.0026 12.8793 11.1873 12.9584 11.3456 13.1168L16 17.7711L20.6544 13.1168C20.8021 12.969 20.9841 12.8951 21.2002 12.8951C21.4168 12.8951 21.6042 12.9743 21.7625 13.1326C21.9208 13.2909 22 13.4756 22 13.6867C22 13.8978 21.9208 14.0825 21.7625 14.2408Z" fill="#545454"/>
</svg>
