<svg width="32" height="32" viewBox="0 0 32 32" fill="none" xmlns="http://www.w3.org/2000/svg">
<circle cx="15" cy="15" r="15" transform="matrix(1 0 0 -1 1 31)" fill="#5A00FE" stroke="#5A00FE" stroke-width="1.618"/>
<path d="M21.7625 17.7592L16.4433 12.4241C16.3799 12.3608 16.3113 12.3161 16.2375 12.2899C16.1636 12.2633 16.0844 12.25 16 12.25C15.9156 12.25 15.8364 12.2633 15.7625 12.2899C15.6887 12.3161 15.6201 12.3608 15.5567 12.4241L10.2216 17.7592C10.0739 17.907 10 18.0917 10 18.3133C10 18.535 10.0792 18.7249 10.2375 18.8832C10.3958 19.0416 10.5805 19.1207 10.7916 19.1207C11.0026 19.1207 11.1873 19.0416 11.3456 18.8832L16 14.2289L20.6544 18.8832C20.8021 19.031 20.9841 19.1049 21.2002 19.1049C21.4168 19.1049 21.6042 19.0257 21.7625 18.8674C21.9208 18.7091 22 18.5244 22 18.3133C22 18.1022 21.9208 17.9175 21.7625 17.7592Z" fill="#EFE6FF"/>
</svg>
