<svg width="17" height="14" viewBox="0 0 17 14" fill="none" xmlns="http://www.w3.org/2000/svg">
<path d="M1.58068 2.66138H15.4303C15.6378 2.66138 15.8295 2.55082 15.9332 2.37103C16.0369 2.19138 16.0369 1.97013 15.9332 1.79034C15.8295 1.61069 15.6378 1.5 15.4303 1.5H1.58068C1.37316 1.5 1.18147 1.61069 1.07777 1.79034C0.974076 1.97013 0.974076 2.19139 1.07777 2.37103C1.18147 2.55082 1.37317 2.66138 1.58068 2.66138Z" fill="#8A8A8A"/>
<path d="M15.4302 5.11523H9.40828C9.20089 5.11523 9.0092 5.22593 8.9055 5.40558C8.80168 5.58536 8.80168 5.80662 8.9055 5.98627C9.0092 6.16605 9.2009 6.27661 9.40828 6.27661H15.4302C15.6377 6.27661 15.8294 6.16605 15.9331 5.98627C16.0368 5.80662 16.0368 5.58536 15.9331 5.40558C15.8294 5.22593 15.6377 5.11523 15.4302 5.11523Z" fill="#8A8A8A"/>
<path d="M15.4302 8.72675H9.40828C9.20089 8.72675 9.0092 8.83744 8.9055 9.01709C8.80168 9.19674 8.80168 9.41813 8.9055 9.59778C9.0092 9.77743 9.2009 9.88813 9.40828 9.88813H15.4302C15.6377 9.88813 15.8294 9.77743 15.9331 9.59778C16.0368 9.41813 16.0368 9.19674 15.9331 9.01709C15.8294 8.83744 15.6377 8.72675 15.4302 8.72675Z" fill="#8A8A8A"/>
<path d="M15.4303 12.3386H4.55114C4.34375 12.3386 4.15206 12.4492 4.04823 12.629C3.94454 12.8086 3.94454 13.0299 4.04823 13.2097C4.15205 13.3893 4.34376 13.5 4.55114 13.5H15.4303C15.6378 13.5 15.8295 13.3893 15.9332 13.2097C16.0369 13.0299 16.0369 12.8086 15.9332 12.629C15.8295 12.4492 15.6378 12.3386 15.4303 12.3386Z" fill="#8A8A8A"/>
<path d="M4.01938 9.716V7.448H6.28738V6.32H4.01938V4.064H2.89138V6.32H0.635375V7.448H2.89138V9.716H4.01938Z" fill="#8A8A8A"/>
</svg>
