<svg width="150" height="45" viewBox="0 0 150 45" fill="none" xmlns="http://www.w3.org/2000/svg">
<g id="Google play" clip-path="url(#clip0_672_312)">
<g id="Group">
<g id="Group_2">
<path id="Vector" d="M143.803 44.9347H6.11549C3.08585 44.9347 0.636353 42.4852 0.636353 39.4555V6.38734C0.636353 3.3577 3.08585 0.908203 6.11549 0.908203H143.738C146.768 0.908203 149.218 3.3577 149.218 6.38734V39.3911C149.282 42.4852 146.833 44.9347 143.803 44.9347Z" fill="black"/>
</g>
<g id="Group_3">
<g id="Group_4">
<path id="Vector_2" d="M143.803 1.81065C146.381 1.81065 148.444 3.87338 148.444 6.4518V39.4555C148.444 42.0339 146.381 44.0967 143.803 44.0967H6.11549C3.53707 44.0967 1.47434 42.0339 1.47434 39.4555V6.38734C1.47434 3.80892 3.53707 1.74619 6.11549 1.74619H143.803M143.803 0.908203H6.11549C3.08585 0.908203 0.636353 3.3577 0.636353 6.38734V39.3911C0.636353 42.4207 3.08585 44.8702 6.11549 44.8702H143.738C146.768 44.8702 149.218 42.4207 149.218 39.3911V6.38734C149.282 3.3577 146.833 0.908203 143.803 0.908203Z" fill="black"/>
</g>
</g>
<g id="Group_5">
<g id="Group_6">
<path id="Vector_3" d="M52.8493 12.1889C52.8493 13.0913 52.5914 13.8649 52.0113 14.3805C51.3667 15.0251 50.5932 15.3474 49.5618 15.3474C48.5949 15.3474 47.8214 15.0251 47.1123 14.3805C46.4677 13.7359 46.0809 12.898 46.0809 11.931C46.0809 10.9641 46.4032 10.1262 47.1123 9.48155C47.7569 8.83695 48.5949 8.51465 49.5618 8.51465C50.013 8.51465 50.4642 8.57911 50.9155 8.77249C51.3667 8.96587 51.689 9.22371 51.9468 9.48155L51.3667 10.0617C50.9799 9.54601 50.3998 9.28817 49.6263 9.28817C48.9172 9.28817 48.337 9.54601 47.8214 9.99724C47.3057 10.5129 47.0478 11.0931 47.0478 11.931C47.0478 12.7046 47.3057 13.3492 47.8214 13.8649C48.337 14.3805 48.9172 14.5739 49.6263 14.5739C50.3353 14.5739 50.9799 14.3161 51.4956 13.8649C51.8179 13.5426 52.0113 13.0913 52.0758 12.5112H49.6263V11.7377H52.8493C52.8493 11.8666 52.8493 12.06 52.8493 12.1889Z" fill="white"/>
<path id="Vector_4" d="M49.6263 15.4764C48.6593 15.4764 47.8214 15.1541 47.1123 14.445C46.4032 13.736 46.0809 12.898 46.0809 11.9311C46.0809 10.8997 46.4032 10.0617 47.1123 9.41711C47.8214 8.70804 48.6593 8.38574 49.6263 8.38574C50.1419 8.38574 50.5932 8.4502 51.0444 8.64358C51.4956 8.83696 51.8824 9.09481 52.1402 9.41711L52.2047 9.48157L51.4956 10.1906L51.4311 10.1262C50.9799 9.61049 50.4642 9.35265 49.6907 9.35265C49.0461 9.35265 48.466 9.61049 47.9503 10.0617C47.4991 10.5129 47.2412 11.1575 47.2412 11.8666C47.2412 12.6401 47.4991 13.2203 47.9503 13.6715C48.337 14.1872 48.9172 14.445 49.6263 14.445C50.3353 14.445 50.9155 14.1872 51.3667 13.736C51.6245 13.4781 51.8179 13.0914 51.8824 12.5757H49.4973V11.5443H52.9137V11.6088C52.9137 11.8021 52.9782 11.9311 52.9782 12.1244C52.9782 13.0914 52.7204 13.8649 52.1402 14.3806C51.4956 15.1541 50.5932 15.4764 49.6263 15.4764ZM49.6263 8.57912C48.7238 8.57912 47.8858 8.90142 47.2412 9.54603C46.5966 10.1906 46.2743 10.9642 46.2743 11.9311C46.2743 12.898 46.5966 13.6715 47.2412 14.3161C47.8858 14.9607 48.6593 15.283 49.6263 15.283C50.5932 15.283 51.3667 14.9607 51.9468 14.3161C52.4625 13.8004 52.7204 13.0914 52.7204 12.1889C52.7204 12.06 52.7204 11.9311 52.7204 11.8021H49.6907V12.3823H52.0758V12.5112C52.0113 13.0914 51.8179 13.607 51.4956 13.9293C50.9799 14.445 50.3353 14.7029 49.5618 14.7029C48.8527 14.7029 48.2081 14.445 47.6924 13.9293C47.1768 13.4137 46.9189 12.769 46.9189 11.9311C46.9189 11.0931 47.1768 10.4485 47.6924 9.93279C48.2081 9.41711 48.8527 9.15927 49.5618 9.15927C50.3353 9.15927 50.9155 9.41711 51.3667 9.86833L51.8179 9.41711C51.5601 9.15927 51.2378 8.96589 50.9155 8.7725C50.5287 8.64358 50.0775 8.57912 49.6263 8.57912Z" fill="white"/>
</g>
<g id="Group_7">
<path id="Vector_5" d="M57.9416 9.41708H54.912V11.4798H57.6193V12.2533H54.912V14.3161H57.9416V15.1541H54.074V8.64355H57.9416V9.41708Z" fill="white"/>
<path id="Vector_6" d="M58.0061 15.3474H53.9451V8.51465H58.0061V9.54601H54.9764V11.4154H57.6838V12.4467H54.9764V14.3161H58.0061V15.3474ZM54.2029 15.0896H57.8127V14.5095H54.7831V12.1889H57.4904V11.6087H54.7831V9.28817H57.8127V8.70803H54.2029V15.0896Z" fill="white"/>
</g>
<g id="Group_8">
<path id="Vector_7" d="M61.487 15.2185H60.649V9.41708H58.7797V8.64355H63.2919V9.48154H61.4225V15.2185H61.487Z" fill="white"/>
<path id="Vector_8" d="M61.6159 15.3474H60.5201V9.54601H58.6508V8.51465H63.4208V9.54601H61.5515V15.3474H61.6159ZM60.778 15.0896H61.4226V9.28817H63.2919V8.70803H58.9731V9.28817H60.8424V15.0896H60.778Z" fill="white"/>
</g>
<g id="Group_9">
<path id="Vector_9" d="M66.6438 15.2185V8.64355H67.4818V15.2185H66.6438Z" fill="white"/>
<path id="Vector_10" d="M67.6107 15.3474H66.5149V8.51465H67.6107V15.3474ZM66.7727 15.0896H67.4173V8.70803H66.7727V15.0896Z" fill="white"/>
</g>
<g id="Group_10">
<path id="Vector_11" d="M71.2205 15.2185H70.3825V9.41708H68.5132V8.64355H73.0254V9.48154H71.1561V15.2185H71.2205Z" fill="white"/>
<path id="Vector_12" d="M71.3495 15.3474H70.2536V9.54601H68.3843V8.51465H73.1543V9.54601H71.285V15.3474H71.3495ZM70.5115 15.0896H71.1561V9.28817H73.0254V8.70803H68.7066V9.28817H70.5759V15.0896H70.5115Z" fill="white"/>
</g>
<g id="Group_11">
<path id="Vector_13" d="M81.663 14.3806C81.0184 15.0252 80.1804 15.4119 79.2135 15.4119C78.2466 15.4119 77.4086 15.0896 76.764 14.3806C76.1194 13.7359 75.7971 12.898 75.7971 11.9311C75.7971 10.9642 76.1194 10.1262 76.764 9.48156C77.4086 8.83696 78.2466 8.4502 79.2135 8.4502C80.1804 8.4502 80.9539 8.7725 81.663 9.48156C82.3076 10.1262 82.6299 10.9642 82.6299 11.9311C82.6944 12.898 82.3076 13.6715 81.663 14.3806ZM77.4731 13.8004C77.9888 14.3161 78.5689 14.5739 79.278 14.5739C79.987 14.5739 80.5672 14.3161 81.0829 13.8004C81.5986 13.2847 81.7919 12.7046 81.7919 11.9311C81.7919 11.1575 81.5341 10.5129 81.0829 10.0617C80.5672 9.54602 79.987 9.28818 79.278 9.28818C78.5689 9.28818 77.9888 9.54602 77.4731 10.0617C76.9574 10.5774 76.764 11.1575 76.764 11.9311C76.764 12.7046 76.9574 13.3492 77.4731 13.8004Z" fill="white"/>
<path id="Vector_14" d="M79.278 15.4764C78.3111 15.4764 77.4731 15.1541 76.764 14.445C76.1194 13.736 75.7327 12.898 75.7327 11.9311C75.7327 10.9642 76.055 10.0617 76.764 9.41711C77.4086 8.70804 78.2466 8.38574 79.278 8.38574C80.2449 8.38574 81.0829 8.70804 81.7919 9.41711C82.4365 10.1262 82.8233 10.9642 82.8233 11.9311C82.8233 12.898 82.501 13.8004 81.7919 14.445C81.0829 15.1541 80.2449 15.4764 79.278 15.4764ZM79.278 8.57912C78.3755 8.57912 77.5376 8.90142 76.9574 9.54603C76.3128 10.1906 75.9905 10.9642 75.9905 11.9311C75.9905 12.8335 76.3128 13.6715 76.9574 14.3161C77.602 14.9607 78.3755 15.283 79.278 15.283C80.1804 15.283 81.0184 14.9607 81.5986 14.3161C82.2432 13.6715 82.5655 12.898 82.5655 11.9311C82.5655 11.0286 82.2432 10.1906 81.5986 9.54603C80.954 8.90142 80.1804 8.57912 79.278 8.57912ZM79.278 14.6384C78.5689 14.6384 77.9243 14.3806 77.4086 13.8649C76.893 13.3492 76.6351 12.7046 76.6351 11.8666C76.6351 11.0931 76.893 10.384 77.4086 9.86833C77.9243 9.35265 78.5689 9.09481 79.278 9.09481C79.9871 9.09481 80.6317 9.35265 81.1473 9.86833C81.663 10.384 81.9209 11.0286 81.9209 11.8666C81.9209 12.6401 81.663 13.3492 81.1473 13.8649C80.6317 14.3806 79.9871 14.6384 79.278 14.6384ZM77.5376 13.736C77.9888 14.1872 78.5689 14.445 79.278 14.445C79.9226 14.445 80.5027 14.1872 81.0184 13.736C81.4696 13.2847 81.7275 12.6401 81.7275 11.9311C81.7275 11.222 81.4696 10.5774 81.0184 10.1262C80.5672 9.67495 79.9871 9.41711 79.278 9.41711C78.6334 9.41711 78.0532 9.67495 77.5376 10.1262C77.0863 10.5774 76.8285 11.222 76.8285 11.9311C76.8285 12.6401 77.0863 13.2847 77.5376 13.736Z" fill="white"/>
</g>
<g id="Group_12">
<path id="Vector_15" d="M83.8547 15.2185V8.64355H84.8861L88.1091 13.8004H88.1736L88.1091 12.5112V8.64355H88.9471V15.2185H88.0447L84.6927 9.80384H84.6283L84.6927 11.093V15.2185H83.8547Z" fill="white"/>
<path id="Vector_16" d="M89.076 15.3474H88.0447L87.9802 15.283L84.8217 10.1906V11.0931V15.3474H83.7258V8.51465H84.9506L88.0447 13.4136V12.5112V8.51465H89.1405V15.3474H89.076ZM88.1091 15.0896H88.8182V8.70803H88.1736V12.5112L88.2381 13.8649H88.0447L84.8217 8.70803H83.9837V15.0896H84.6283V11.0931L84.5638 9.7394H84.7572L84.8217 9.80386L88.1091 15.0896Z" fill="white"/>
</g>
</g>
<path id="Vector_17" d="M75.6683 24.8873C73.0899 24.8873 70.9627 26.8856 70.9627 29.5929C70.9627 32.3002 73.0899 34.2985 75.6683 34.2985C78.2467 34.2985 80.3739 32.3002 80.3739 29.5929C80.3739 26.8211 78.2467 24.8873 75.6683 24.8873ZM75.6683 32.3647C74.2501 32.3647 73.0254 31.2044 73.0254 29.5284C73.0254 27.8525 74.2501 26.6922 75.6683 26.6922C77.0864 26.6922 78.3111 27.8525 78.3111 29.5284C78.3111 31.2044 77.0864 32.3647 75.6683 32.3647ZM65.4191 24.8873C62.8406 24.8873 60.7135 26.8856 60.7135 29.5929C60.7135 32.3002 62.8406 34.2985 65.4191 34.2985C67.9975 34.2985 70.1247 32.3002 70.1247 29.5929C70.1247 26.8211 67.9975 24.8873 65.4191 24.8873ZM65.4191 32.3647C64.0009 32.3647 62.7762 31.2044 62.7762 29.5284C62.7762 27.8525 64.0009 26.6922 65.4191 26.6922C66.8372 26.6922 68.0619 27.8525 68.0619 29.5284C68.0619 31.2044 66.8372 32.3647 65.4191 32.3647ZM53.236 26.3054V28.3037H58.0061C57.8772 29.3995 57.4904 30.2375 56.9103 30.8177C56.2012 31.5267 55.1054 32.3002 53.236 32.3002C50.3353 32.3002 48.0148 29.9152 48.0148 27.0145C48.0148 24.1138 50.3353 21.7287 53.236 21.7287C54.7831 21.7287 55.9434 22.3733 56.8458 23.1469L58.264 21.7287C57.1037 20.5685 55.4922 19.7305 53.3005 19.7305C49.304 19.7305 45.952 23.0179 45.952 27.0145C45.952 31.011 49.304 34.2985 53.3005 34.2985C55.4922 34.2985 57.1037 33.5894 58.3929 32.2358C59.6821 30.9466 60.1333 29.0772 60.1333 27.5946C60.1333 27.1434 60.0689 26.6922 60.0044 26.3699H53.236V26.3054ZM103.128 27.8525C102.742 26.8211 101.581 24.8873 99.1319 24.8873C96.7468 24.8873 94.6841 26.7566 94.6841 29.5929C94.6841 32.2358 96.6824 34.2985 99.3252 34.2985C101.452 34.2985 102.742 33.0093 103.257 32.2358L101.646 31.14C101.13 31.9135 100.357 32.4292 99.3252 32.4292C98.2939 32.4292 97.5203 31.9779 97.0691 31.011L103.322 28.4326L103.128 27.8525ZM96.6824 29.3995C96.6179 27.5946 98.1005 26.6922 99.1319 26.6922C99.9698 26.6922 100.614 27.079 100.872 27.6591L96.6824 29.3995ZM91.6544 33.9762H93.7172V20.1817H91.6544V33.9762ZM88.1736 25.9187C87.7224 25.3385 86.8199 24.8873 85.7241 24.8873C83.4035 24.8873 81.2119 26.95 81.2119 29.5929C81.2119 32.2358 83.3391 34.2341 85.7241 34.2341C86.8199 34.2341 87.7224 33.7184 88.1736 33.1382H88.238V33.7828C88.238 35.5877 87.2711 36.5546 85.7241 36.5546C84.4349 36.5546 83.6614 35.6522 83.3391 34.8787L81.5342 35.6522C82.0498 36.8769 83.4035 38.424 85.6596 38.424C88.0447 38.424 90.1074 37.0058 90.1074 33.525V25.1451H88.1736V25.9187ZM85.9175 32.3647C84.4993 32.3647 83.3391 31.2044 83.3391 29.5284C83.3391 27.8525 84.4993 26.6922 85.9175 26.6922C87.3356 26.6922 88.4314 27.9169 88.4314 29.5284C88.367 31.2044 87.2711 32.3647 85.9175 32.3647ZM112.733 20.1817H107.834V33.9762H109.897V28.7549H112.797C115.054 28.7549 117.31 27.079 117.31 24.5005C117.31 21.9221 114.989 20.1817 112.733 20.1817ZM112.797 26.8211H109.897V22.1155H112.797C114.345 22.1155 115.182 23.4047 115.182 24.5005C115.182 25.5319 114.345 26.8211 112.797 26.8211ZM125.496 24.8228C124.014 24.8228 122.467 25.4674 121.822 26.95L123.627 27.7236C124.014 26.95 124.723 26.6922 125.496 26.6922C126.528 26.6922 127.623 27.3368 127.688 28.4326V28.626C127.301 28.4326 126.528 28.1103 125.561 28.1103C123.627 28.1103 121.564 29.2061 121.564 31.2044C121.564 33.0738 123.176 34.2341 124.98 34.2341C126.334 34.2341 127.108 33.5894 127.623 32.8804H127.688V33.9118H129.686V28.626C129.686 26.1765 127.817 24.8228 125.496 24.8228ZM125.238 32.3647C124.594 32.3647 123.627 32.0424 123.627 31.2044C123.627 30.1731 124.787 29.7218 125.818 29.7218C126.721 29.7218 127.172 29.9152 127.688 30.1731C127.559 31.4623 126.399 32.3647 125.238 32.3647ZM136.906 25.1451L134.521 31.14H134.456L132.007 25.1451H129.815L133.489 33.4605L131.427 38.1017H133.554L139.226 25.1451H136.906ZM118.406 33.9762H120.468V20.1817H118.406V33.9762Z" fill="white"/>
<g id="Group_13">
<path id="Vector_18" d="M12.1103 9.22364C11.788 9.54594 11.5946 10.0616 11.5946 10.7707V35.1367C11.5946 35.8458 11.788 36.3615 12.1103 36.6838L12.1747 36.7482L25.8404 23.0826V22.9537V22.8248L12.1747 9.15918L12.1103 9.22364Z" fill="url(#paint0_linear_672_312)"/>
<path id="Vector_19" d="M30.417 27.6593L25.8403 23.0826V22.9537V22.8247L30.417 18.248L30.5459 18.3125L35.9606 21.3421C37.5077 22.2446 37.5077 23.6627 35.9606 24.5007L30.5459 27.5303L30.417 27.6593Z" fill="url(#paint1_linear_672_312)"/>
<path id="Vector_20" d="M30.4814 27.5948L25.8403 22.9536L12.1102 36.6837C12.6259 37.1994 13.4639 37.2638 14.4308 36.7481L30.4814 27.5948Z" fill="url(#paint2_linear_672_312)"/>
<path id="Vector_21" d="M30.4814 18.3126L14.3663 9.15926C13.3994 8.64358 12.5615 8.70804 12.0458 9.22372L25.7758 22.9538L30.4814 18.3126Z" fill="url(#paint3_linear_672_312)"/>
<g id="Group_14">
<path id="Vector_22" opacity="0.2" d="M30.4171 27.4658L14.4309 36.5547C13.5285 37.0704 12.7549 37.006 12.2393 36.5547L12.1748 36.6192L12.2393 36.6837C12.7549 37.1349 13.5285 37.1993 14.4309 36.6837L30.546 27.5303L30.4171 27.4658Z" fill="black"/>
<path id="Vector_23" opacity="0.12" d="M12.1103 36.4904C11.788 36.1681 11.5946 35.6524 11.5946 34.9434V35.0723C11.5946 35.7813 11.788 36.297 12.1103 36.6193L12.1747 36.5549L12.1103 36.4904Z" fill="black"/>
</g>
<path id="Vector_24" opacity="0.12" d="M35.8961 24.3717L30.417 27.4658L30.5459 27.5948L35.9606 24.5651C36.7341 24.1139 37.1209 23.5338 37.1209 22.9536C36.992 23.4693 36.6052 23.985 35.8961 24.3717Z" fill="black"/>
<path id="Vector_25" opacity="0.25" d="M14.4309 9.28817L35.8962 21.5356C36.6052 21.9224 36.992 22.4381 37.0565 22.9538C37.0565 22.3736 36.6697 21.7935 35.8962 21.3423L14.4309 9.15925C12.8838 8.25681 11.5946 8.96587 11.5946 10.7708V10.8997C11.5946 9.15925 12.8838 8.45019 14.4309 9.28817Z" fill="white"/>
</g>
</g>
</g>
<defs>
<linearGradient id="paint0_linear_672_312" x1="24.638" y1="10.4994" x2="6.15731" y2="28.9801" gradientUnits="userSpaceOnUse">
<stop stop-color="#00A0FF"/>
<stop offset="0.00657445" stop-color="#00A1FF"/>
<stop offset="0.2601" stop-color="#00BEFF"/>
<stop offset="0.5122" stop-color="#00D2FF"/>
<stop offset="0.7604" stop-color="#00DFFF"/>
<stop offset="1" stop-color="#00E3FF"/>
</linearGradient>
<linearGradient id="paint1_linear_672_312" x1="37.8904" y1="22.9338" x2="11.245" y2="22.9338" gradientUnits="userSpaceOnUse">
<stop stop-color="#FFE000"/>
<stop offset="0.4087" stop-color="#FFBD00"/>
<stop offset="0.7754" stop-color="#FFA500"/>
<stop offset="1" stop-color="#FF9C00"/>
</linearGradient>
<linearGradient id="paint2_linear_672_312" x1="27.9715" y1="25.4606" x2="2.91019" y2="50.5219" gradientUnits="userSpaceOnUse">
<stop stop-color="#FF3A44"/>
<stop offset="1" stop-color="#C31162"/>
</linearGradient>
<linearGradient id="paint3_linear_672_312" x1="8.66799" y1="1.10242" x2="19.8589" y2="12.2933" gradientUnits="userSpaceOnUse">
<stop stop-color="#32A071"/>
<stop offset="0.0685" stop-color="#2DA771"/>
<stop offset="0.4762" stop-color="#15CF74"/>
<stop offset="0.8009" stop-color="#06E775"/>
<stop offset="1" stop-color="#00F076"/>
</linearGradient>
<clipPath id="clip0_672_312">
<rect width="148.904" height="44.0909" fill="white" transform="translate(0.636353 0.908203)"/>
</clipPath>
</defs>
</svg>
