<svg width="38" height="38" viewBox="0 0 38 38" fill="none" xmlns="http://www.w3.org/2000/svg">
<g id="Property 1=Hover">
<circle id="Ellipse 8" cx="19" cy="19" r="19" fill="url(#paint0_linear_696_351)"/>
<path id="Vector" fill-rule="evenodd" clip-rule="evenodd" d="M17.0107 15.5766H20.5155V17.3224C21.0204 16.3183 22.3151 15.4161 24.2601 15.4161C27.9886 15.4161 28.8738 17.4149 28.8738 21.0821V27.8738H25.099V21.9172C25.099 19.8288 24.5942 18.6511 23.3089 18.6511C21.5262 18.6511 20.7854 19.9204 20.7854 21.9163V27.8738H17.0107V15.5766ZM10.5379 27.7134H14.3127V15.4161H10.5379V27.7134ZM14.8534 11.4064C14.8535 11.7228 14.7908 12.0361 14.6688 12.328C14.5468 12.6199 14.368 12.8847 14.1428 13.1069C13.6864 13.5605 13.0687 13.8144 12.4253 13.8128C11.783 13.8124 11.1667 13.5592 10.7097 13.1079C10.4853 12.8849 10.3071 12.6198 10.1853 12.3279C10.0635 12.0359 10.0005 11.7228 10 11.4064C10 10.7675 10.2548 10.156 10.7106 9.70494C11.1672 9.25306 11.7838 8.99972 12.4262 9C13.0698 9 13.687 9.25385 14.1428 9.70494C14.5977 10.156 14.8534 10.7675 14.8534 11.4064Z" fill="white"/>
</g>
<defs>
<linearGradient id="paint0_linear_696_351" x1="0.25" y1="19" x2="40.7905" y2="19" gradientUnits="userSpaceOnUse">
<stop stop-color="#5A00FE"/>
<stop offset="0.514884" stop-color="#FD5265"/>
<stop offset="1" stop-color="#FECB00"/>
</linearGradient>
</defs>
</svg>
