<svg width="93" height="34" viewBox="0 0 93 34" fill="none" xmlns="http://www.w3.org/2000/svg">
<path d="M12.381 7.84689L8.16691 9.67085L5.75888 11.7779L0.34082 14.7879V9.94037C0.34082 9.38517 0.559701 8.85271 0.949312 8.46012C1.33892 8.06753 1.86735 7.84698 2.41834 7.84698L12.381 7.84689Z" fill="white"/>
<path fill-rule="evenodd" clip-rule="evenodd" d="M17.799 19.604C17.4676 18.6729 16.7943 17.9245 16.0387 17.2931L6.37727 23.7105C6.78062 23.8347 7.10004 23.9339 7.41946 24.0384C7.92728 24.2049 8.13623 24.5708 8.01291 25.0833C7.8896 25.5959 7.52222 25.8349 7.02297 25.8082C6.7199 25.7914 6.41281 25.7118 6.11237 25.6339C6.07324 25.6237 6.03422 25.6136 5.99534 25.6037C5.56334 25.4932 5.18046 25.4007 4.84232 25.3191C3.54291 25.0054 2.90427 24.8512 2.67867 24.4465C2.43183 24.0559 2.59969 23.4145 2.94086 22.1109C3.02933 21.7729 3.12945 21.3903 3.23702 20.9561C3.2475 20.9135 3.25785 20.8707 3.26822 20.8279C3.34087 20.5277 3.41459 20.2231 3.54274 19.9482C3.75511 19.4917 4.13962 19.2786 4.64487 19.4115C5.16296 19.5495 5.37534 19.9033 5.27942 20.434C5.23823 20.6626 5.19331 20.8912 5.14296 21.1475C5.11691 21.2801 5.0894 21.4201 5.0602 21.5713L13.6863 15.7856C14.3287 15.3536 14.8554 14.7686 15.2196 14.0823C15.5838 13.3961 15.7743 12.6298 15.7741 11.8516V11.6583C15.7738 10.6475 15.3753 9.67822 14.6659 8.96349C13.9566 8.24876 12.9947 7.84712 11.9915 7.84689H11.9059C11.0607 7.84701 10.2342 8.09791 9.52952 8.56828L0.34082 14.7052V18.2267L9.87806 11.6575C9.83825 11.6499 9.79926 11.6424 9.761 11.6352C9.37299 11.5612 9.06118 11.5018 8.74938 11.4374C8.22443 11.3244 7.97866 10.9973 8.04545 10.4615C8.11225 9.93943 8.45222 9.65985 8.95148 9.6331C9.25965 9.61533 9.57674 9.66256 9.88555 9.70856C9.92171 9.71395 9.95776 9.71932 9.99366 9.72456C10.434 9.78651 10.8239 9.83608 11.1683 9.87987C12.4984 10.049 13.1511 10.132 13.4191 10.5089C13.706 10.8698 13.6093 11.5212 13.4125 12.8483C13.3608 13.1968 13.3022 13.592 13.2418 14.0408C13.2363 14.0822 13.2309 14.1238 13.2254 14.1656C13.1855 14.472 13.1445 14.7862 13.0466 15.0763C12.8839 15.5569 12.537 15.8158 12.0087 15.7295C11.4803 15.6432 11.2311 15.3179 11.2688 14.7803C11.288 14.4647 11.3146 14.1513 11.3473 13.7665C11.3496 13.7389 11.352 13.711 11.3544 13.6827L2.39094 19.8611C1.75922 20.2966 1.24238 20.8808 0.885163 21.563C0.527941 22.2451 0.341102 23.0047 0.34082 23.776C0.341955 24.8448 0.76404 25.8694 1.51437 26.6248C2.26469 27.3803 3.2819 27.8047 4.34257 27.8049C4.41848 27.805 4.49423 27.803 4.56974 27.7988L4.5548 27.8081C4.5548 27.8081 11.3201 27.8461 12.3828 27.8461C13.238 27.8519 14.0831 27.6591 14.8524 27.2825C15.6217 26.906 16.2946 26.3559 16.8187 25.675C17.526 24.7316 18.401 22.3134 17.799 19.6043L17.7944 19.6072L17.799 19.604Z" fill="white"/>
<path d="M30.4136 23.4157V18.6686H35.1342C36.7784 18.6686 37.7862 19.3581 37.7862 20.8963C37.7862 22.3284 36.7784 23.4157 35.0812 23.4157H30.4136ZM34.8425 11.853C36.5663 11.853 37.2823 12.4099 37.2823 13.7624C37.2823 15.0089 36.5132 15.6719 35.0546 15.6719H30.4136V11.853H34.8425ZM34.7894 26.4125C39.2183 26.4125 41.3664 24.3704 41.3664 21.1615C41.3664 18.6421 40.173 17.4487 38.6879 16.8918C39.9078 16.3879 40.836 15.1149 40.836 13.6033C40.836 10.6596 38.9796 8.80319 35.532 8.80319H26.86V26.4125H34.7894ZM50.0707 21.4532C50.0442 22.9914 48.7182 24.2909 46.9414 24.2909C45.8541 24.2909 45.2706 23.8135 45.2706 22.8323C45.2706 21.7184 45.9071 21.1615 47.8696 20.7902C49.1425 20.5515 49.7525 20.3659 50.0973 20.0211L50.0707 21.4532ZM53.5449 26.4125V18.1647C53.5449 14.8763 52.1128 13.0199 47.9757 13.0199C43.7855 13.0199 42.3004 14.9028 42.2474 17.6078H45.4563C45.6154 16.4409 46.2519 15.6719 47.8165 15.6719C49.1691 15.6719 50.0177 16.1757 50.0177 17.0244C50.0177 17.9261 49.5403 18.2708 47.8165 18.5095C44.3424 18.9869 41.823 19.4112 41.823 23.177C41.823 25.2986 43.2021 26.7572 46.1723 26.7572C47.9226 26.7572 49.3017 26.1473 50.1238 25.2456C50.1503 25.6434 50.2299 26.0942 50.3359 26.4125H53.5449ZM58.5128 26.4125V19.6233C58.5128 17.5283 59.5471 16.4675 61.6687 16.4675C61.9869 16.4675 62.3052 16.494 62.6234 16.547V13.0199H62.1726C60.767 13.0199 59.441 13.179 58.3006 14.9293V13.3646H55.0652V26.4125H58.5128ZM70.9849 21.2145C70.9849 22.8323 70.3484 23.7605 68.9693 23.7605C67.5638 23.7605 66.9803 22.8057 66.9803 21.1615V15.8045H74.1938V13.3646H66.9803V9.83747H63.5858V21.5063C63.5858 24.3174 65.0974 26.7572 68.9163 26.7572C72.6026 26.7572 74.1938 24.2909 74.1938 21.5328V17.82H70.9849V21.2145ZM83.5056 21.4532C83.4791 22.9914 82.1531 24.2909 80.3763 24.2909C79.2889 24.2909 78.7055 23.8135 78.7055 22.8323C78.7055 21.7184 79.342 21.1615 81.3045 20.7902C82.5774 20.5515 83.1874 20.3659 83.5321 20.0211L83.5056 21.4532ZM86.9797 26.4125V18.1647C86.9797 14.8763 85.5477 13.0199 81.4105 13.0199C77.2204 13.0199 75.7353 14.9028 75.6822 17.6078H78.8911C79.0503 16.4409 79.6867 15.6719 81.2514 15.6719C82.6039 15.6719 83.4526 16.1757 83.4526 17.0244C83.4526 17.9261 82.9752 18.2708 81.2514 18.5095C77.7773 18.9869 75.2579 19.4112 75.2579 23.177C75.2579 25.2986 76.6369 26.7572 79.6072 26.7572C81.3575 26.7572 82.7365 26.1473 83.5587 25.2456C83.5852 25.6434 83.6647 26.0942 83.7708 26.4125H86.9797Z" fill="white"/>
</svg>
