<svg xmlns="http://www.w3.org/2000/svg" width="100" height="100" viewBox="0 0 100 100" fill="none">
  <rect width="100" height="100" fill="white"/>
  <path d="M5.67377 5.67383H9.21987V9.21993H5.67377V5.67383ZM9.21987 5.67383H12.766V9.21993H9.21987V5.67383ZM12.766 5.67383H16.3121V9.21993H12.766V5.67383ZM16.3121 5.67383H19.8582V9.21993H16.3121V5.67383ZM19.8582 5.67383H23.4043V9.21993H19.8582V5.67383ZM23.4043 5.67383H26.9504V9.21993H23.4043V5.67383ZM26.9504 5.67383H30.4965V9.21993H26.9504V5.67383ZM44.6809 5.67383H48.227V9.21993H44.6809V5.67383ZM55.3192 5.67383H58.8653V9.21993H55.3192V5.67383ZM58.8653 5.67383H62.4114V9.21993H58.8653V5.67383ZM62.4114 5.67383H65.9575V9.21993H62.4114V5.67383ZM69.5036 5.67383H73.0497V9.21993H69.5036V5.67383ZM73.0497 5.67383H76.5958V9.21993H73.0497V5.67383ZM76.5958 5.67383H80.1419V9.21993H76.5958V5.67383ZM80.1419 5.67383H83.688V9.21993H80.1419V5.67383ZM83.688 5.67383H87.2341V9.21993H83.688V5.67383ZM87.2341 5.67383H90.7802V9.21993H87.2341V5.67383ZM90.7802 5.67383H94.3262V9.21993H90.7802V5.67383ZM5.67377 9.21993H9.21987V12.766H5.67377V9.21993ZM26.9504 9.21993H30.4965V12.766H26.9504V9.21993ZM37.5887 9.21993H41.1348V12.766H37.5887V9.21993ZM51.7731 9.21993H55.3192V12.766H51.7731V9.21993ZM55.3192 9.21993H58.8653V12.766H55.3192V9.21993ZM62.4114 9.21993H65.9575V12.766H62.4114V9.21993ZM69.5036 9.21993H73.0497V12.766H69.5036V9.21993ZM90.7802 9.21993H94.3262V12.766H90.7802V9.21993ZM5.67377 12.766H9.21987V16.3121H5.67377V12.766ZM12.766 12.766H16.3121V16.3121H12.766V12.766ZM16.3121 12.766H19.8582V16.3121H16.3121V12.766ZM19.8582 12.766H23.4043V16.3121H19.8582V12.766ZM26.9504 12.766H30.4965V16.3121H26.9504V12.766ZM37.5887 12.766H41.1348V16.3121H37.5887V12.766ZM41.1348 12.766H44.6809V16.3121H41.1348V12.766ZM48.227 12.766H51.7731V16.3121H48.227V12.766ZM55.3192 12.766H58.8653V16.3121H55.3192V12.766ZM58.8653 12.766H62.4114V16.3121H58.8653V12.766ZM69.5036 12.766H73.0497V16.3121H69.5036V12.766ZM76.5958 12.766H80.1419V16.3121H76.5958V12.766ZM80.1419 12.766H83.688V16.3121H80.1419V12.766ZM83.688 12.766H87.2341V16.3121H83.688V12.766ZM90.7802 12.766H94.3262V16.3121H90.7802V12.766ZM5.67377 16.3121H9.21987V19.8582H5.67377V16.3121ZM12.766 16.3121H16.3121V19.8582H12.766V16.3121ZM16.3121 16.3121H19.8582V19.8582H16.3121V16.3121ZM19.8582 16.3121H23.4043V19.8582H19.8582V16.3121ZM26.9504 16.3121H30.4965V19.8582H26.9504V16.3121ZM34.0426 16.3121H37.5887V19.8582H34.0426V16.3121ZM37.5887 16.3121H41.1348V19.8582H37.5887V16.3121ZM48.227 16.3121H51.7731V19.8582H48.227V16.3121ZM55.3192 16.3121H58.8653V19.8582H55.3192V16.3121ZM58.8653 16.3121H62.4114V19.8582H58.8653V16.3121ZM69.5036 16.3121H73.0497V19.8582H69.5036V16.3121ZM76.5958 16.3121H80.1419V19.8582H76.5958V16.3121ZM80.1419 16.3121H83.688V19.8582H80.1419V16.3121ZM83.688 16.3121H87.2341V19.8582H83.688V16.3121ZM90.7802 16.3121H94.3262V19.8582H90.7802V16.3121ZM5.67377 19.8582H9.21987V23.4043H5.67377V19.8582ZM12.766 19.8582H16.3121V23.4043H12.766V19.8582ZM16.3121 19.8582H19.8582V23.4043H16.3121V19.8582ZM19.8582 19.8582H23.4043V23.4043H19.8582V19.8582ZM26.9504 19.8582H30.4965V23.4043H26.9504V19.8582ZM41.1348 19.8582H44.6809V23.4043H41.1348V19.8582ZM44.6809 19.8582H48.227V23.4043H44.6809V19.8582ZM48.227 19.8582H51.7731V23.4043H48.227V19.8582ZM51.7731 19.8582H55.3192V23.4043H51.7731V19.8582ZM55.3192 19.8582H58.8653V23.4043H55.3192V19.8582ZM69.5036 19.8582H73.0497V23.4043H69.5036V19.8582ZM76.5958 19.8582H80.1419V23.4043H76.5958V19.8582ZM80.1419 19.8582H83.688V23.4043H80.1419V19.8582ZM83.688 19.8582H87.2341V23.4043H83.688V19.8582ZM90.7802 19.8582H94.3262V23.4043H90.7802V19.8582ZM5.67377 23.4043H9.21987V26.9504H5.67377V23.4043ZM26.9504 23.4043H30.4965V26.9504H26.9504V23.4043ZM34.0426 23.4043H37.5887V26.9504H34.0426V23.4043ZM44.6809 23.4043H48.227V26.9504H44.6809V23.4043ZM62.4114 23.4043H65.9575V26.9504H62.4114V23.4043ZM69.5036 23.4043H73.0497V26.9504H69.5036V23.4043ZM90.7802 23.4043H94.3262V26.9504H90.7802V23.4043ZM5.67377 26.9504H9.21987V30.4965H5.67377V26.9504ZM9.21987 26.9504H12.766V30.4965H9.21987V26.9504ZM12.766 26.9504H16.3121V30.4965H12.766V26.9504ZM16.3121 26.9504H19.8582V30.4965H16.3121V26.9504ZM19.8582 26.9504H23.4043V30.4965H19.8582V26.9504ZM23.4043 26.9504H26.9504V30.4965H23.4043V26.9504ZM26.9504 26.9504H30.4965V30.4965H26.9504V26.9504ZM34.0426 26.9504H37.5887V30.4965H34.0426V26.9504ZM41.1348 26.9504H44.6809V30.4965H41.1348V26.9504ZM48.227 26.9504H51.7731V30.4965H48.227V26.9504ZM55.3192 26.9504H58.8653V30.4965H55.3192V26.9504ZM62.4114 26.9504H65.9575V30.4965H62.4114V26.9504ZM69.5036 26.9504H73.0497V30.4965H69.5036V26.9504ZM73.0497 26.9504H76.5958V30.4965H73.0497V26.9504ZM76.5958 26.9504H80.1419V30.4965H76.5958V26.9504ZM80.1419 26.9504H83.688V30.4965H80.1419V26.9504ZM83.688 26.9504H87.2341V30.4965H83.688V26.9504ZM87.2341 26.9504H90.7802V30.4965H87.2341V26.9504ZM90.7802 26.9504H94.3262V30.4965H90.7802V26.9504ZM34.0426 30.4965H37.5887V34.0426H34.0426V30.4965ZM37.5887 30.4965H41.1348V34.0426H37.5887V30.4965ZM41.1348 30.4965H44.6809V34.0426H41.1348V30.4965ZM55.3192 30.4965H58.8653V34.0426H55.3192V30.4965ZM58.8653 30.4965H62.4114V34.0426H58.8653V30.4965ZM62.4114 30.4965H65.9575V34.0426H62.4114V30.4965ZM9.21987 34.0426H12.766V37.5887H9.21987V34.0426ZM12.766 34.0426H16.3121V37.5887H12.766V34.0426ZM26.9504 34.0426H30.4965V37.5887H26.9504V34.0426ZM51.7731 34.0426H55.3192V37.5887H51.7731V34.0426ZM55.3192 34.0426H58.8653V37.5887H55.3192V34.0426ZM62.4114 34.0426H65.9575V37.5887H62.4114V34.0426ZM69.5036 34.0426H73.0497V37.5887H69.5036V34.0426ZM73.0497 34.0426H76.5958V37.5887H73.0497V34.0426ZM80.1419 34.0426H83.688V37.5887H80.1419V34.0426ZM9.21987 37.5887H12.766V41.1348H9.21987V37.5887ZM12.766 37.5887H16.3121V41.1348H12.766V37.5887ZM19.8582 37.5887H23.4043V41.1348H19.8582V37.5887ZM30.4965 37.5887H34.0426V41.1348H30.4965V37.5887ZM41.1348 37.5887H44.6809V41.1348H41.1348V37.5887ZM44.6809 37.5887H48.227V41.1348H44.6809V37.5887ZM48.227 37.5887H51.7731V41.1348H48.227V37.5887ZM51.7731 37.5887H55.3192V41.1348H51.7731V37.5887ZM55.3192 37.5887H58.8653V41.1348H55.3192V37.5887ZM58.8653 37.5887H62.4114V41.1348H58.8653V37.5887ZM62.4114 37.5887H65.9575V41.1348H62.4114V37.5887ZM69.5036 37.5887H73.0497V41.1348H69.5036V37.5887ZM73.0497 37.5887H76.5958V41.1348H73.0497V37.5887ZM80.1419 37.5887H83.688V41.1348H80.1419V37.5887ZM87.2341 37.5887H90.7802V41.1348H87.2341V37.5887ZM90.7802 37.5887H94.3262V41.1348H90.7802V37.5887ZM26.9504 41.1348H30.4965V44.6809H26.9504V41.1348ZM44.6809 41.1348H48.227V44.6809H44.6809V41.1348ZM58.8653 41.1348H62.4114V44.6809H58.8653V41.1348ZM65.9575 41.1348H69.5036V44.6809H65.9575V41.1348ZM73.0497 41.1348H76.5958V44.6809H73.0497V41.1348ZM80.1419 41.1348H83.688V44.6809H80.1419V41.1348ZM83.688 41.1348H87.2341V44.6809H83.688V41.1348ZM90.7802 41.1348H94.3262V44.6809H90.7802V41.1348ZM5.67377 44.6809H9.21987V48.227H5.67377V44.6809ZM9.21987 44.6809H12.766V48.227H9.21987V44.6809ZM19.8582 44.6809H23.4043V48.227H19.8582V44.6809ZM30.4965 44.6809H34.0426V48.227H30.4965V44.6809ZM37.5887 44.6809H41.1348V48.227H37.5887V44.6809ZM41.1348 44.6809H44.6809V48.227H41.1348V44.6809ZM51.7731 44.6809H55.3192V48.227H51.7731V44.6809ZM58.8653 44.6809H62.4114V48.227H58.8653V44.6809ZM65.9575 44.6809H69.5036V48.227H65.9575V44.6809ZM73.0497 44.6809H76.5958V48.227H73.0497V44.6809ZM80.1419 44.6809H83.688V48.227H80.1419V44.6809ZM5.67377 48.227H9.21987V51.7731H5.67377V48.227ZM9.21987 48.227H12.766V51.7731H9.21987V48.227ZM16.3121 48.227H19.8582V51.7731H16.3121V48.227ZM26.9504 48.227H30.4965V51.7731H26.9504V48.227ZM30.4965 48.227H34.0426V51.7731H30.4965V48.227ZM34.0426 48.227H37.5887V51.7731H34.0426V48.227ZM37.5887 48.227H41.1348V51.7731H37.5887V48.227ZM41.1348 48.227H44.6809V51.7731H41.1348V48.227ZM51.7731 48.227H55.3192V51.7731H51.7731V48.227ZM58.8653 48.227H62.4114V51.7731H58.8653V48.227ZM62.4114 48.227H65.9575V51.7731H62.4114V48.227ZM69.5036 48.227H73.0497V51.7731H69.5036V48.227ZM73.0497 48.227H76.5958V51.7731H73.0497V48.227ZM90.7802 48.227H94.3262V51.7731H90.7802V48.227ZM12.766 51.7731H16.3121V55.3192H12.766V51.7731ZM16.3121 51.7731H19.8582V55.3192H16.3121V51.7731ZM19.8582 51.7731H23.4043V55.3192H19.8582V51.7731ZM41.1348 51.7731H44.6809V55.3192H41.1348V51.7731ZM44.6809 51.7731H48.227V55.3192H44.6809V51.7731ZM48.227 51.7731H51.7731V55.3192H48.227V51.7731ZM58.8653 51.7731H62.4114V55.3192H58.8653V51.7731ZM62.4114 51.7731H65.9575V55.3192H62.4114V51.7731ZM69.5036 51.7731H73.0497V55.3192H69.5036V51.7731ZM73.0497 51.7731H76.5958V55.3192H73.0497V51.7731ZM87.2341 51.7731H90.7802V55.3192H87.2341V51.7731ZM90.7802 51.7731H94.3262V55.3192H90.7802V51.7731ZM5.67377 55.3192H9.21987V58.8653H5.67377V55.3192ZM9.21987 55.3192H12.766V58.8653H9.21987V55.3192ZM16.3121 55.3192H19.8582V58.8653H16.3121V55.3192ZM23.4043 55.3192H26.9504V58.8653H23.4043V55.3192ZM26.9504 55.3192H30.4965V58.8653H26.9504V55.3192ZM34.0426 55.3192H37.5887V58.8653H34.0426V55.3192ZM37.5887 55.3192H41.1348V58.8653H37.5887V55.3192ZM41.1348 55.3192H44.6809V58.8653H41.1348V55.3192ZM48.227 55.3192H51.7731V58.8653H48.227V55.3192ZM58.8653 55.3192H62.4114V58.8653H58.8653V55.3192ZM62.4114 55.3192H65.9575V58.8653H62.4114V55.3192ZM69.5036 55.3192H73.0497V58.8653H69.5036V55.3192ZM80.1419 55.3192H83.688V58.8653H80.1419V55.3192ZM83.688 55.3192H87.2341V58.8653H83.688V55.3192ZM90.7802 55.3192H94.3262V58.8653H90.7802V55.3192ZM12.766 58.8653H16.3121V62.4114H12.766V58.8653ZM16.3121 58.8653H19.8582V62.4114H16.3121V58.8653ZM19.8582 58.8653H23.4043V62.4114H19.8582V58.8653ZM30.4965 58.8653H34.0426V62.4114H30.4965V58.8653ZM41.1348 58.8653H44.6809V62.4114H41.1348V58.8653ZM55.3192 58.8653H58.8653V62.4114H55.3192V58.8653ZM58.8653 58.8653H62.4114V62.4114H58.8653V58.8653ZM62.4114 58.8653H65.9575V62.4114H62.4114V58.8653ZM65.9575 58.8653H69.5036V62.4114H65.9575V58.8653ZM69.5036 58.8653H73.0497V62.4114H69.5036V58.8653ZM73.0497 58.8653H76.5958V62.4114H73.0497V58.8653ZM76.5958 58.8653H80.1419V62.4114H76.5958V58.8653ZM80.1419 58.8653H83.688V62.4114H80.1419V58.8653ZM5.67377 62.4114H9.21987V65.9575H5.67377V62.4114ZM9.21987 62.4114H12.766V65.9575H9.21987V62.4114ZM12.766 62.4114H16.3121V65.9575H12.766V62.4114ZM19.8582 62.4114H23.4043V65.9575H19.8582V62.4114ZM26.9504 62.4114H30.4965V65.9575H26.9504V62.4114ZM34.0426 62.4114H37.5887V65.9575H34.0426V62.4114ZM44.6809 62.4114H48.227V65.9575H44.6809V62.4114ZM62.4114 62.4114H65.9575V65.9575H62.4114V62.4114ZM65.9575 62.4114H69.5036V65.9575H65.9575V62.4114ZM69.5036 62.4114H73.0497V65.9575H69.5036V62.4114ZM73.0497 62.4114H76.5958V65.9575H73.0497V62.4114ZM76.5958 62.4114H80.1419V65.9575H76.5958V62.4114ZM87.2341 62.4114H90.7802V65.9575H87.2341V62.4114ZM34.0426 65.9575H37.5887V69.5036H34.0426V65.9575ZM37.5887 65.9575H41.1348V69.5036H37.5887V65.9575ZM41.1348 65.9575H44.6809V69.5036H41.1348V65.9575ZM44.6809 65.9575H48.227V69.5036H44.6809V65.9575ZM51.7731 65.9575H55.3192V69.5036H51.7731V65.9575ZM55.3192 65.9575H58.8653V69.5036H55.3192V65.9575ZM62.4114 65.9575H65.9575V69.5036H62.4114V65.9575ZM76.5958 65.9575H80.1419V69.5036H76.5958V65.9575ZM90.7802 65.9575H94.3262V69.5036H90.7802V65.9575ZM5.67377 69.5036H9.21987V73.0497H5.67377V69.5036ZM9.21987 69.5036H12.766V73.0497H9.21987V69.5036ZM12.766 69.5036H16.3121V73.0497H12.766V69.5036ZM16.3121 69.5036H19.8582V73.0497H16.3121V69.5036ZM19.8582 69.5036H23.4043V73.0497H19.8582V69.5036ZM23.4043 69.5036H26.9504V73.0497H23.4043V69.5036ZM26.9504 69.5036H30.4965V73.0497H26.9504V69.5036ZM41.1348 69.5036H44.6809V73.0497H41.1348V69.5036ZM44.6809 69.5036H48.227V73.0497H44.6809V69.5036ZM55.3192 69.5036H58.8653V73.0497H55.3192V69.5036ZM62.4114 69.5036H65.9575V73.0497H62.4114V69.5036ZM69.5036 69.5036H73.0497V73.0497H69.5036V69.5036ZM76.5958 69.5036H80.1419V73.0497H76.5958V69.5036ZM90.7802 69.5036H94.3262V73.0497H90.7802V69.5036ZM5.67377 73.0497H9.21987V76.5958H5.67377V73.0497ZM26.9504 73.0497H30.4965V76.5958H26.9504V73.0497ZM37.5887 73.0497H41.1348V76.5958H37.5887V73.0497ZM41.1348 73.0497H44.6809V76.5958H41.1348V73.0497ZM48.227 73.0497H51.7731V76.5958H48.227V73.0497ZM51.7731 73.0497H55.3192V76.5958H51.7731V73.0497ZM62.4114 73.0497H65.9575V76.5958H62.4114V73.0497ZM76.5958 73.0497H80.1419V76.5958H76.5958V73.0497ZM87.2341 73.0497H90.7802V76.5958H87.2341V73.0497ZM5.67377 76.5958H9.21987V80.1419H5.67377V76.5958ZM12.766 76.5958H16.3121V80.1419H12.766V76.5958ZM16.3121 76.5958H19.8582V80.1419H16.3121V76.5958ZM19.8582 76.5958H23.4043V80.1419H19.8582V76.5958ZM26.9504 76.5958H30.4965V80.1419H26.9504V76.5958ZM37.5887 76.5958H41.1348V80.1419H37.5887V76.5958ZM41.1348 76.5958H44.6809V80.1419H41.1348V76.5958ZM55.3192 76.5958H58.8653V80.1419H55.3192V76.5958ZM58.8653 76.5958H62.4114V80.1419H58.8653V76.5958ZM62.4114 76.5958H65.9575V80.1419H62.4114V76.5958ZM65.9575 76.5958H69.5036V80.1419H65.9575V76.5958ZM69.5036 76.5958H73.0497V80.1419H69.5036V76.5958ZM73.0497 76.5958H76.5958V80.1419H73.0497V76.5958ZM76.5958 76.5958H80.1419V80.1419H76.5958V76.5958ZM87.2341 76.5958H90.7802V80.1419H87.2341V76.5958ZM90.7802 76.5958H94.3262V80.1419H90.7802V76.5958ZM5.67377 80.1419H9.21987V83.688H5.67377V80.1419ZM12.766 80.1419H16.3121V83.688H12.766V80.1419ZM16.3121 80.1419H19.8582V83.688H16.3121V80.1419ZM19.8582 80.1419H23.4043V83.688H19.8582V80.1419ZM26.9504 80.1419H30.4965V83.688H26.9504V80.1419ZM37.5887 80.1419H41.1348V83.688H37.5887V80.1419ZM41.1348 80.1419H44.6809V83.688H41.1348V80.1419ZM44.6809 80.1419H48.227V83.688H44.6809V80.1419ZM48.227 80.1419H51.7731V83.688H48.227V80.1419ZM58.8653 80.1419H62.4114V83.688H58.8653V80.1419ZM65.9575 80.1419H69.5036V83.688H65.9575V80.1419ZM76.5958 80.1419H80.1419V83.688H76.5958V80.1419ZM83.688 80.1419H87.2341V83.688H83.688V80.1419ZM87.2341 80.1419H90.7802V83.688H87.2341V80.1419ZM5.67377 83.688H9.21987V87.2341H5.67377V83.688ZM12.766 83.688H16.3121V87.2341H12.766V83.688ZM16.3121 83.688H19.8582V87.2341H16.3121V83.688ZM19.8582 83.688H23.4043V87.2341H19.8582V83.688ZM26.9504 83.688H30.4965V87.2341H26.9504V83.688ZM34.0426 83.688H37.5887V87.2341H34.0426V83.688ZM51.7731 83.688H55.3192V87.2341H51.7731V83.688ZM55.3192 83.688H58.8653V87.2341H55.3192V83.688ZM58.8653 83.688H62.4114V87.2341H58.8653V83.688ZM62.4114 83.688H65.9575V87.2341H62.4114V83.688ZM65.9575 83.688H69.5036V87.2341H65.9575V83.688ZM73.0497 83.688H76.5958V87.2341H73.0497V83.688ZM76.5958 83.688H80.1419V87.2341H76.5958V83.688ZM80.1419 83.688H83.688V87.2341H80.1419V83.688ZM87.2341 83.688H90.7802V87.2341H87.2341V83.688ZM90.7802 83.688H94.3262V87.2341H90.7802V83.688ZM5.67377 87.2341H9.21987V90.7802H5.67377V87.2341ZM26.9504 87.2341H30.4965V90.7802H26.9504V87.2341ZM34.0426 87.2341H37.5887V90.7802H34.0426V87.2341ZM37.5887 87.2341H41.1348V90.7802H37.5887V87.2341ZM41.1348 87.2341H44.6809V90.7802H41.1348V87.2341ZM51.7731 87.2341H55.3192V90.7802H51.7731V87.2341ZM62.4114 87.2341H65.9575V90.7802H62.4114V87.2341ZM65.9575 87.2341H69.5036V90.7802H65.9575V87.2341ZM69.5036 87.2341H73.0497V90.7802H69.5036V87.2341ZM73.0497 87.2341H76.5958V90.7802H73.0497V87.2341ZM76.5958 87.2341H80.1419V90.7802H76.5958V87.2341ZM5.67377 90.7802H9.21987V94.3263H5.67377V90.7802ZM9.21987 90.7802H12.766V94.3263H9.21987V90.7802ZM12.766 90.7802H16.3121V94.3263H12.766V90.7802ZM16.3121 90.7802H19.8582V94.3263H16.3121V90.7802ZM19.8582 90.7802H23.4043V94.3263H19.8582V90.7802ZM23.4043 90.7802H26.9504V94.3263H23.4043V90.7802ZM26.9504 90.7802H30.4965V94.3263H26.9504V90.7802ZM41.1348 90.7802H44.6809V94.3263H41.1348V90.7802ZM48.227 90.7802H51.7731V94.3263H48.227V90.7802ZM62.4114 90.7802H65.9575V94.3263H62.4114V90.7802ZM69.5036 90.7802H73.0497V94.3263H69.5036V90.7802ZM80.1419 90.7802H83.688V94.3263H80.1419V90.7802ZM90.7802 90.7802H94.3262V94.3263H90.7802V90.7802Z" fill="black"/>
</svg>