<svg width="54" height="12" viewBox="0 0 54 12" fill="none" xmlns="http://www.w3.org/2000/svg">
<path d="M0.963135 5.904V11.808H3.26713V6.9984L4.15033 7.0272L5.03353 7.056L6.38713 9.4272L7.73113 11.7984L9.05593 11.808C9.77593 11.808 10.3711 11.7888 10.3711 11.76C10.3711 11.7312 9.75673 10.6368 9.01753 9.3312C8.26873 8.0256 7.64473 6.9312 7.62553 6.9024C7.60633 6.864 7.83673 6.72 8.14393 6.5664C8.84473 6.2208 9.55513 5.5584 9.86233 4.9632C10.2847 4.1184 10.3039 2.6304 9.90073 1.8432C9.47833 1.0272 8.49913 0.336 7.41433 0.1056C7.10713 0.0384 5.75353 0 3.93913 0H0.963135V5.904ZM7.07833 2.208C7.60633 2.448 7.87513 2.88 7.87513 3.504C7.87513 4.08 7.63513 4.5216 7.18393 4.7712C6.91513 4.9152 6.57913 4.9536 5.07193 4.9728L3.26713 5.0112V2.016H4.97593C6.44473 2.016 6.73273 2.0448 7.07833 2.208ZM37.6351 6V11.808H39.8431V0.192H37.6351V6ZM49.8463 5.6352C49.8751 10.1088 49.8751 10.128 50.0959 10.5792C50.3455 11.088 50.9407 11.664 51.4207 11.8656C51.6319 11.952 52.1119 12 52.8031 12H53.8591V10.08H53.2447C52.7743 10.08 52.5823 10.032 52.3807 9.8784L52.1311 9.6864V5.184H53.8591V3.36H52.1311V1.152H49.8175L49.8463 5.6352Z" fill="white"/>
<path d="M13.3279 3.35044C12.5503 3.60964 12.0223 3.93604 11.4559 4.53124C10.8799 5.15524 10.6111 5.63524 10.4191 6.45124C9.90069 8.64004 10.8511 10.7424 12.7711 11.6544C13.3663 11.9424 13.4431 11.952 14.6431 11.952C15.7183 11.952 15.9679 11.9232 16.4479 11.7216C17.1199 11.4528 18.0127 10.6656 18.3679 10.0128L18.6175 9.54244L17.8495 9.09124C17.4271 8.84164 17.0431 8.64004 17.0047 8.64004C16.9663 8.64004 16.8031 8.83204 16.6303 9.06244C16.2463 9.61924 15.7279 9.95524 15.0943 10.08C14.5279 10.1856 14.1247 10.128 13.6351 9.87844C13.0591 9.59044 12.4831 8.83204 12.4831 8.35204C12.4831 8.16004 12.5215 8.16004 15.6511 8.16004H18.8191V7.35364C18.8191 5.51044 17.9647 4.14724 16.3711 3.44644C15.6895 3.13924 14.1055 3.09124 13.3279 3.35044ZM15.9199 5.22244C16.1695 5.39524 16.4095 5.67364 16.5631 5.99044L16.8127 6.48004L14.6815 6.50884C13.5103 6.51844 12.5311 6.50884 12.5023 6.48004C12.3679 6.34564 13.0591 5.49124 13.5391 5.20324C14.0287 4.90564 14.1151 4.88644 14.7967 4.91524C15.4111 4.94404 15.5839 4.98244 15.9199 5.22244ZM30.7327 3.31204C29.4943 3.65764 28.3519 4.56964 27.8815 5.59684C27.5455 6.34564 27.4015 7.49764 27.5455 8.37124C27.9199 10.6464 29.5999 12 32.0575 12C33.4975 12 34.4575 11.6544 35.3887 10.8192C35.9263 10.3296 36.2911 9.71524 36.5311 8.88964C36.7327 8.18884 36.6847 6.61444 36.4447 5.95204C36.0511 4.86724 35.0047 3.85924 33.8239 3.43684C33.0943 3.16804 31.4815 3.11044 30.7327 3.31204ZM33.0751 5.46244C34.4191 6.05764 34.8607 7.85284 33.9583 9.04324C33.3151 9.88804 31.9615 10.2048 31.0495 9.72484C30.5503 9.45604 30.0127 8.86084 29.8591 8.40004C29.6671 7.82404 29.7823 6.79684 30.0799 6.34564C30.7615 5.31844 31.9423 4.97284 33.0751 5.46244ZM18.7519 3.49444C18.7807 3.56164 19.5487 5.46244 20.4607 7.71844L22.1215 11.8176L23.1679 11.7888L24.2143 11.76L25.8367 7.77604C26.7295 5.58724 27.4879 3.69604 27.5167 3.57124L27.5743 3.35044L26.4031 3.37924L25.2223 3.40804L24.2047 6.11524C23.6479 7.60324 23.1583 8.79364 23.1295 8.75524C23.0911 8.71684 22.6207 7.48804 22.0735 6.01924L21.0751 3.36004H19.8847C18.9247 3.36004 18.7135 3.38884 18.7519 3.49444ZM40.9951 5.98084C40.9951 7.45924 41.0431 8.85124 41.1007 9.16804C41.3119 10.3392 41.9359 11.1456 43.0015 11.6544C43.6159 11.9424 43.6831 11.952 44.9311 11.952C46.1503 11.952 46.2655 11.9328 46.8031 11.6832C47.8687 11.184 48.5503 10.3104 48.7615 9.16804C48.8191 8.85124 48.8671 7.45924 48.8671 5.98084V3.36004H46.6687L46.6399 5.97124C46.6111 8.47684 46.6015 8.61124 46.3903 8.99524C46.0831 9.57124 45.5647 9.82084 44.7871 9.77284C44.0959 9.73444 43.7023 9.49444 43.4335 8.95684C43.2703 8.63044 43.2511 8.30404 43.2223 5.97124L43.1935 3.36004H40.9951V5.98084Z" fill="white"/>
</svg>
