<svg width="134" height="30" viewBox="0 0 134 30" fill="none" xmlns="http://www.w3.org/2000/svg">
<path id="Revolut" d="M86.858 10.9247C84.6093 8.94934 81.8962 7.98385 78.7586 7.98385C75.6644 7.98385 72.9502 8.95045 70.7003 10.9247C68.4527 12.8579 67.3095 15.5466 67.3095 18.9908C67.3095 22.4372 68.4527 25.1248 70.7003 27.1002C72.949 29.0323 75.6644 30 78.7586 30C81.8962 30 84.6093 29.0323 86.858 27.1002C89.149 25.1248 90.2911 22.4372 90.2911 18.9919C90.2911 15.5466 89.1467 12.8568 86.858 10.9247ZM74.52 23.4016C73.3346 22.2684 72.7368 20.7973 72.7368 18.9908C72.7368 17.1854 73.329 15.7144 74.52 14.6223C75.7055 13.489 77.1076 12.9424 78.7564 12.9424C80.4085 12.9424 81.8517 13.489 83.0383 14.6223C84.266 15.7144 84.8626 17.1854 84.8626 18.9919C84.8626 20.7985 84.2704 22.2695 83.0383 23.4027C81.8528 24.4949 80.4096 25.0404 78.7564 25.0404C77.1076 25.0404 75.7088 24.4949 74.52 23.4027V23.4016ZM98.3094 29.4089V0.579957H92.9665V29.4089H98.3094ZM115.555 8.57159V20.0741C115.555 22.8461 114.043 24.6826 111.164 24.6826C108.238 24.6826 106.765 22.8472 106.765 20.0741V8.57159H101.414V20.9562C101.414 25.7548 104.467 29.9967 111.164 29.9967H111.205C117.862 29.9967 120.91 25.6614 120.91 20.9562V8.57159H115.555ZM61.6221 8.57159L56.2803 22.6872L50.9373 8.57159H45.2555L53.7805 29.41H58.7857L67.3095 8.57159H61.6221ZM45.2833 18.4031C45.2833 15.3778 44.3089 12.9002 42.4002 10.9247C40.4903 8.94934 38.0339 7.98385 35.023 7.98385C31.9288 7.98385 29.299 9.03489 27.1347 11.0925C25.0126 13.1524 23.956 15.7555 23.956 18.9919C23.956 22.2272 25.0148 24.8737 27.0936 26.9313C29.2156 28.9912 31.7599 29.9989 34.7697 29.9989C39.3938 29.9989 42.658 27.9824 44.6467 23.9071L40.6626 21.6384C39.3504 24.2004 37.4406 25.4614 34.8541 25.4614C31.6743 25.4614 29.4267 23.4449 29.0879 20.2518H45.2811V18.4031H45.2833ZM34.8508 12.0169C37.8605 12.0169 39.8559 13.6968 40.3626 16.3866H29.0845C29.8922 13.909 32.0943 12.0169 34.8508 12.0169ZM23.956 29.41L16.7888 16.9743C21.324 15.3355 23.5716 12.4791 23.5716 8.31938C23.576 3.23532 19.503 0 13.0168 0H0.337769V29.4089H5.93513V17.4765H10.6859L17.5532 29.4089L23.956 29.41ZM13.0146 4.87408C16.3221 4.87408 17.9765 6.17621 17.9765 8.73824C17.9765 11.3003 16.321 12.6024 13.0146 12.6024H5.93624V4.87519L13.0146 4.87408ZM129.967 29.9967C126.528 29.9967 123.74 27.2335 123.74 23.8216V2.942H129.082V8.57936H133.662V12.8646H129.082V23.4816C129.082 24.4815 129.899 25.2915 130.91 25.2915H133.662V29.9956L129.967 29.9967Z" fill="#8A8A8A"/>
</svg>
