<svg width="30" height="12" viewBox="0 0 36 12" fill="none" xmlns="http://www.w3.org/2000/svg">
<path d="M28.6255 1.17708L31.5496 0.656686V11.8761H28.6255V1.17708ZM32.8939 1.17708V11.8699H35.818V0.656686L32.8939 1.17708ZM24.4685 11.8699H27.3926V3.66753H24.4685V11.8699ZM5.14587 4.82602C4.77416 4.80124 3.91923 4.74548 3.91923 3.97728C3.91923 3.04801 5.15206 3.04801 5.61051 3.04801C6.42207 3.04801 7.47524 3.28962 8.22486 3.51265C8.22486 3.51265 8.64613 3.66133 8.99925 3.81002L9.03023 3.81621V1.2762L8.98686 1.26381C8.10095 0.954053 7.07256 0.656686 5.15826 0.656686C1.86244 0.656686 0.697754 2.57718 0.697754 4.2189C0.697754 5.16675 1.10663 7.39701 4.87948 7.6572C5.20163 7.67579 6.05036 7.72535 6.05036 8.52452C6.05036 9.18121 5.3565 9.5715 4.18562 9.5715C2.90323 9.5715 1.6642 9.24316 0.908389 8.9334V11.5539C2.03591 11.8513 3.31211 12 4.80514 12C8.02661 12 9.47008 10.1848 9.47008 8.38203C9.47008 6.33764 7.85934 5.01187 5.14587 4.82602ZM22.8206 3.54982C20.1195 3.63655 18.7504 4.8508 18.7504 7.26071V11.8761H21.6993V8.10945C21.6993 6.66598 21.8852 6.04646 23.6012 5.99071V3.58699C23.3038 3.53123 22.8206 3.54982 22.8206 3.54982ZM14.8908 3.66133C14.8289 3.82241 14.3581 5.14817 13.2243 6.5173V0.656686L10.2073 1.25142V11.8699H13.2243V8.58647C14.0979 9.89985 14.5315 11.8699 14.5315 11.8699H18.1433C17.784 10.3831 16.2228 7.64481 16.2228 7.64481C17.6229 5.86681 18.2424 3.97109 18.3415 3.65514H14.8908V3.66133ZM25.9244 2.88074C26.7174 2.88074 27.3679 2.23645 27.3679 1.44347C27.3679 0.65049 26.7236 0 25.9244 0C25.1314 0 24.4871 0.644295 24.4871 1.44347C24.4871 2.23645 25.1314 2.88074 25.9244 2.88074Z" fill="#545454"/>
</svg>
