<svg width="38" height="38" viewBox="0 0 38 38" fill="none" xmlns="http://www.w3.org/2000/svg">
<g id="Property 1=Hover">
<circle id="Ellipse 7" cx="19" cy="19" r="19" fill="url(#paint0_linear_696_345)"/>
<path id="Vector" d="M27.415 12.6817C28.3095 12.1453 28.9788 11.3006 29.298 10.3054C28.4574 10.8057 27.5378 11.1581 26.5788 11.3474C25.932 10.6611 25.0781 10.2072 24.1487 10.0557C23.2194 9.90425 22.2662 10.0636 21.436 10.5092C20.6059 10.9548 19.9449 11.662 19.555 12.5216C19.165 13.3813 19.0678 14.3457 19.2782 15.2663C17.5757 15.1806 15.9102 14.7366 14.3898 13.9634C12.8694 13.1901 11.5281 12.1048 10.4529 10.7778C9.90614 11.7239 9.73883 12.8432 9.98496 13.9085C10.2311 14.9738 10.8722 15.9052 11.7781 16.5135C11.0983 16.4916 10.4335 16.307 9.83922 15.975V16.0291C9.83941 17.021 10.1816 17.9824 10.8078 18.7501C11.434 19.5178 12.3057 20.0447 13.2749 20.2412C12.6443 20.4133 11.9829 20.4387 11.341 20.3153C11.6152 21.1685 12.148 21.9145 12.8652 22.4493C13.5824 22.984 14.4481 23.2808 15.3416 23.2983C13.8246 24.4926 11.9512 25.1403 10.0228 25.1371C9.68056 25.1371 9.33928 25.1171 9 25.0781C10.9583 26.3403 13.2374 27.0103 15.5651 27.008C17.1683 27.019 18.7577 26.7104 20.241 26.1C21.7243 25.4896 23.0719 24.5897 24.2055 23.4525C25.3391 22.3152 26.2362 20.9633 26.8445 19.4754C27.4529 17.9874 27.7604 16.393 27.7493 14.7848C27.7493 14.5986 27.7453 14.4135 27.7363 14.2293C28.575 13.6213 29.2988 12.8681 29.8738 12.0051C29.0924 12.3524 28.2637 12.5805 27.415 12.6817Z" fill="white"/>
</g>
<defs>
<linearGradient id="paint0_linear_696_345" x1="0.25" y1="19" x2="40.7905" y2="19" gradientUnits="userSpaceOnUse">
<stop stop-color="#5A00FE"/>
<stop offset="0.514884" stop-color="#FD5265"/>
<stop offset="1" stop-color="#FECB00"/>
</linearGradient>
</defs>
</svg>
