<svg width="53" height="12" viewBox="0 0 53 12" fill="none" xmlns="http://www.w3.org/2000/svg">
<path d="M53.0091 5.24551C53.0091 2.16595 50.8637 0 47.856 0C44.027 0 41.4607 2.78186 41.4607 6.75449C41.4607 9.85458 43.6267 12 46.6857 12C49.4676 12 51.5412 10.6553 52.3932 8.50984H49.3033C48.8927 9.17707 48.0202 9.59795 46.9526 9.59795C45.3102 9.59795 44.2837 8.50984 44.1913 6.97006H52.8346C52.9475 6.38494 53.0091 5.88195 53.0091 5.24551ZM44.4274 4.88623C44.7045 3.46963 46.0801 2.34046 47.743 2.34046C49.1802 2.34046 50.2683 3.38751 50.2683 4.88623H44.4274ZM33.1562 11.7228L33.7105 8.76647C35.4043 9.10522 35.6609 8.15056 36.1023 5.85115L36.3179 4.71172C36.9338 1.49872 38.1759 -0.102652 41.7276 0.328486L41.1733 3.28486C39.4796 2.94611 39.1819 4.22926 38.8021 6.2207L38.5865 7.36014C37.9706 10.6142 36.6874 12.154 33.1562 11.7228ZM29.0091 11.7331L31.1032 0.27716H33.8645L31.7807 11.7331H29.0091ZM13.1904 0.27716H15.8696L16.7422 8.56116L20.2529 0.27716H22.9116L23.8457 8.64328L27.2332 0.27716H29.9021L25.0467 11.7331H22.0082L21.0228 3.84944L17.6661 11.7331H14.7302L13.1904 0.27716Z" fill="#545454"/>
<path d="M3.18221 3.31584L0 6.35433H5.40975L5.97434 5.03012H3.23353L4.94782 3.31584L3.9521 1.60155H8.60222L4.31138 11.7333H5.92301L10.7784 0.277344H1.39606L3.18221 3.31584Z" fill="#545454"/>
</svg>
