<svg width="164" height="36" viewBox="0 0 164 36" fill="none" xmlns="http://www.w3.org/2000/svg">
<path d="M65.9822 13.9393C65.8391 14.0261 65.6688 14.0562 65.5047 14.0239C65.3406 13.9915 65.1945 13.899 65.0951 13.7644C64.6065 13.063 63.9508 12.4942 63.1873 12.1096C62.4239 11.725 61.5766 11.5365 60.7221 11.5613C57.3904 11.5613 55.3454 14.1975 55.3454 17.9625C55.3454 21.7274 57.4279 24.4138 60.7596 24.4138C61.6255 24.4344 62.4824 24.2337 63.2491 23.8307C64.0158 23.4276 64.6669 22.8356 65.1409 22.1106C65.2356 21.9743 65.3781 21.8785 65.5401 21.8423C65.7021 21.806 65.8718 21.8319 66.0155 21.9149L67.5982 22.8311C67.6846 22.8749 67.7606 22.9369 67.8209 23.0127C67.8813 23.0885 67.9246 23.1764 67.9479 23.2705C67.9712 23.3645 67.974 23.4625 67.956 23.5577C67.938 23.653 67.8998 23.7432 67.8438 23.8223C67.0701 24.982 66.0146 25.9262 64.7763 26.5665C63.538 27.2068 62.1573 27.5222 60.7638 27.483C55.4371 27.483 51.8262 23.6184 51.8262 17.9835C51.8262 12.3486 55.4371 8.53351 60.6847 8.53351C62.0549 8.49547 63.4137 8.79369 64.6421 9.40209C65.8705 10.0105 66.9312 10.9105 67.7314 12.0236C67.7864 12.0985 67.8255 12.184 67.8462 12.2746C67.8668 12.3653 67.8686 12.4592 67.8514 12.5506C67.8342 12.642 67.7984 12.7289 67.7463 12.8059C67.6941 12.8828 67.6267 12.9483 67.5481 12.9981L65.9822 13.9393Z" fill="#8A8A8A"/>
<path fill-rule="evenodd" clip-rule="evenodd" d="M77.6269 25.6961V26.4623C77.6268 26.5523 77.645 26.6414 77.6803 26.7242C77.7156 26.8069 77.7673 26.8817 77.8323 26.944C77.8973 27.0063 77.9742 27.0547 78.0585 27.0865C78.1427 27.1182 78.2325 27.1326 78.3224 27.1287H80.0632C80.1507 27.1287 80.2374 27.1114 80.3182 27.078C80.3991 27.0445 80.4726 26.9954 80.5344 26.9335C80.5963 26.8716 80.6454 26.7982 80.6789 26.7173C80.7124 26.6365 80.7296 26.5498 80.7296 26.4623V17.758C80.7296 14.6053 78.4891 13.3018 75.3155 13.3018C73.5316 13.3059 71.7758 13.7463 70.2012 14.5845C70.0508 14.6682 69.9384 14.8066 69.8872 14.971C69.836 15.1353 69.85 15.3131 69.9263 15.4674L70.4968 16.6585C70.536 16.7384 70.591 16.8096 70.6584 16.8677C70.7259 16.9258 70.8044 16.9696 70.8893 16.9965C70.9742 17.0234 71.0636 17.0327 71.1522 17.0241C71.2408 17.0154 71.3267 16.9888 71.4047 16.9459C72.529 16.3617 73.7737 16.0466 75.0406 16.0255C76.1443 16.0255 77.4478 16.3297 77.4478 17.4582C77.4478 18.6388 76.0218 18.8401 74.2624 19.0884C74.1205 19.1084 73.9788 19.1286 73.837 19.149C72.0212 19.4031 69.0767 19.9695 69.0767 23.2721C69.0767 25.9251 70.9967 27.4369 73.7621 27.4369C75.632 27.4369 76.794 26.7705 77.6269 25.6961ZM74.8975 21.2076C75.9492 21.023 76.903 20.8557 77.4478 20.4443V21.9937C77.4478 24.0177 75.9902 24.8881 74.4283 24.8881C73.1706 24.8881 72.3002 24.3258 72.3002 23.1222C72.3002 21.8145 73.2997 21.4938 74.5034 21.2773C74.6358 21.2535 74.7674 21.2304 74.8975 21.2076Z" fill="#8A8A8A"/>
<path d="M83.5909 23.6806C83.7032 23.5498 83.8618 23.4676 84.0335 23.4514C84.2051 23.4351 84.3764 23.4859 84.5113 23.5932C85.6248 24.4341 86.9896 24.8743 88.3846 24.8426C89.8213 24.8426 90.8833 24.3804 90.8833 23.2558C90.8833 22.2313 89.9088 22.0273 87.5516 21.615C85.0527 21.1984 82.6622 20.3655 82.6622 17.5169C82.6622 14.5473 85.2235 13.2939 88.1429 13.2939C89.9737 13.2668 91.7609 13.8532 93.2198 14.9596C93.2909 15.0154 93.35 15.085 93.3934 15.1643C93.4369 15.2436 93.4637 15.331 93.4722 15.421C93.4808 15.511 93.471 15.6018 93.4433 15.6879C93.4157 15.774 93.3708 15.8535 93.3114 15.9217L92.4784 16.9004C92.368 17.0317 92.2115 17.1156 92.0411 17.135C91.8706 17.1544 91.6992 17.1077 91.5622 17.0046C90.5359 16.2539 89.2937 15.8564 88.0222 15.8718C86.7936 15.8718 85.7191 16.23 85.7191 17.2003C85.7191 18.279 87.2267 18.4831 88.7385 18.7412C91.9661 19.3036 94.0152 20.2239 94.0152 22.906C94.0152 25.7214 91.7621 27.4622 88.1846 27.4622C86.2294 27.522 84.3145 26.8975 82.7705 25.6963C82.7012 25.6396 82.6439 25.5697 82.602 25.4906C82.56 25.4116 82.5342 25.3249 82.5261 25.2358C82.5179 25.1466 82.5276 25.0567 82.5545 24.9714C82.5815 24.886 82.6251 24.8068 82.683 24.7385L83.5909 23.6806ZM95.9935 26.4626V9.51209C95.9935 9.42459 96.0107 9.33794 96.0442 9.25709C96.0777 9.17624 96.1267 9.10277 96.1886 9.04089C96.2505 8.97901 96.3239 8.92992 96.4048 8.89643C96.4856 8.86294 96.5723 8.8457 96.6598 8.8457H98.5798C98.9478 8.8457 99.2462 9.14407 99.2462 9.51209V15.3011C99.7242 14.6632 100.348 14.1489 101.065 13.8011C101.782 13.4534 102.572 13.2822 103.369 13.3019C106.21 13.3019 107.875 15.326 107.875 18.2164V26.4626C107.875 26.5501 107.858 26.6367 107.825 26.7176C107.791 26.7984 107.742 26.8719 107.68 26.9338C107.618 26.9957 107.545 27.0448 107.464 27.0782C107.383 27.1117 107.297 27.129 107.209 27.129H105.289C105.112 27.129 104.943 27.0588 104.818 26.9338C104.693 26.8088 104.623 26.6393 104.623 26.4626V18.9661C104.623 17.5292 104.161 16.2257 102.32 16.2257C100.575 16.2257 99.2462 17.4544 99.2462 19.5032V26.4667C99.2462 26.6434 99.176 26.8129 99.051 26.9379C98.926 27.0629 98.7565 27.1331 98.5798 27.1331H96.6598C96.5718 27.1336 96.4845 27.1166 96.4032 27.0831C96.3218 27.0495 96.248 27.0001 96.1859 26.9376C96.1239 26.8752 96.075 26.801 96.0419 26.7195C96.0089 26.6379 95.9924 26.5506 95.9935 26.4626Z" fill="#8A8A8A"/>
<path fill-rule="evenodd" clip-rule="evenodd" d="M127.621 22.5977L129.004 26.6792C129.045 26.812 129.128 26.9284 129.239 27.012C129.35 27.0957 129.485 27.1424 129.624 27.1456H132.003C132.11 27.1461 132.216 27.1205 132.311 27.0712C132.406 27.0218 132.488 26.9501 132.55 26.8622C132.612 26.7743 132.652 26.6727 132.666 26.5661C132.68 26.4596 132.668 26.3511 132.631 26.2502L126.363 9.29968C126.315 9.17169 126.229 9.06134 126.117 8.98325C126.005 8.90515 125.871 8.86299 125.735 8.86235H122.657C122.523 8.86077 122.392 8.89969 122.28 8.97401C122.169 9.04834 122.082 9.1546 122.032 9.27889L115.739 26.2335C115.702 26.3341 115.69 26.4421 115.704 26.5483C115.717 26.6546 115.757 26.7559 115.818 26.8438C115.879 26.9316 115.961 27.0034 116.056 27.0531C116.151 27.1027 116.256 27.1287 116.363 27.1289H118.616C118.755 27.1294 118.89 27.0862 119.003 27.0055C119.116 26.9248 119.201 26.8107 119.246 26.6792L120.632 22.5977H127.621ZM121.474 19.7532L124.164 11.8152L126.751 19.7532H121.474ZM137.458 15.3261V14.2765C137.462 14.1862 137.449 14.0959 137.417 14.0112C137.386 13.9264 137.337 13.849 137.274 13.7837C137.212 13.7183 137.137 13.6663 137.054 13.6307C136.971 13.5952 136.882 13.5769 136.792 13.577H134.871C134.503 13.577 134.205 13.8754 134.205 14.2433V30.9022C134.205 31.2702 134.503 31.5686 134.871 31.5686H136.792C137.159 31.5686 137.458 31.2702 137.458 30.9022V25.3756C137.928 26.0358 138.554 26.5687 139.282 26.9264C140.009 27.2841 140.813 27.4553 141.623 27.4246C145.308 27.4246 147.69 24.3387 147.69 20.3446C147.69 16.3508 145.308 13.302 141.623 13.302C140.816 13.2693 140.013 13.4371 139.286 13.7903C138.559 14.1434 137.931 14.6711 137.458 15.3261ZM144.271 20.3446C144.271 22.6728 143.192 24.5969 140.939 24.5969C138.645 24.5969 137.458 22.6768 137.458 20.3446C137.458 18.0123 138.708 16.1424 140.939 16.1424C143.171 16.1424 144.271 18.0166 144.271 20.3446ZM152.95 15.326V14.2764C152.956 14.186 152.942 14.0956 152.911 14.0106C152.88 13.9256 152.832 13.8479 152.77 13.7822C152.707 13.7167 152.632 13.6646 152.548 13.6293C152.465 13.594 152.375 13.5761 152.284 13.5768H150.364C150.187 13.5768 150.018 13.6471 149.893 13.772C149.768 13.8969 149.698 14.0664 149.698 14.243V30.9022C149.698 31.2701 149.996 31.5684 150.364 31.5684H152.284C152.652 31.5684 152.95 31.2701 152.95 30.9021V25.3754C153.421 26.035 154.048 26.5674 154.775 26.9251C155.502 27.2827 156.306 27.4543 157.116 27.4245C160.805 27.4245 163.188 24.3384 163.188 20.3444C163.188 16.3505 160.805 13.3019 157.116 13.3019C156.309 13.2699 155.506 13.438 154.779 13.7911C154.052 14.1442 153.424 14.6715 152.95 15.326ZM159.768 20.3444C159.768 22.6726 158.69 24.5967 156.437 24.5967C154.155 24.5967 152.95 22.6767 152.95 20.3444C152.95 18.0122 154.204 16.1423 156.437 16.1423C158.669 16.1423 159.768 18.0163 159.768 20.3444Z" fill="#8A8A8A"/>
<path fill-rule="evenodd" clip-rule="evenodd" d="M24.2515 0C27.8832 0 29.6699 0 31.6315 0.616349C32.6842 0.997556 33.6402 1.60551 34.4319 2.39718C35.2235 3.18885 35.8315 4.14487 36.2127 5.19756C36.8291 7.14258 36.8291 8.94594 36.8291 12.5609V23.4391C36.8291 27.0501 36.8291 28.8533 36.2127 30.8024C35.8315 31.8551 35.2235 32.8111 34.4319 33.6028C33.6402 34.3945 32.6842 35.0024 31.6315 35.3837C29.6865 36 27.8832 36 24.2682 36H13.3566C9.74574 36 7.94251 36 5.99326 35.3837C4.94057 35.0024 3.98455 34.3945 3.19288 33.6028C2.40121 32.8111 1.79325 31.8551 1.41205 30.8024C0.812378 28.8574 0.812378 27.0707 0.812378 23.4391V12.5443C0.812378 8.93337 0.812378 7.13025 1.42873 5.18088C1.80992 4.12818 2.41787 3.17216 3.20954 2.38049C4.00121 1.58881 4.95724 0.980862 6.00994 0.599669C7.93828 0 9.74574 0 13.3567 0H24.2515Z" fill="#8A8A8A"/>
<path d="M19.7203 11.7987C21.4895 11.8015 23.2008 12.4299 24.5513 13.5728C24.6908 13.6992 24.8733 13.7675 25.0614 13.7636C25.2496 13.7597 25.4292 13.6841 25.5633 13.5521L26.9543 12.1569C27.0241 12.0877 27.0788 12.0048 27.115 11.9134C27.1511 11.8221 27.168 11.7242 27.1645 11.626C27.161 11.5278 27.1371 11.4313 27.0945 11.3428C27.0519 11.2542 26.9914 11.1755 26.9169 11.1114C25.8244 10.1821 24.5611 9.47484 23.1978 9.02923L23.6143 6.9759C23.6359 6.87038 23.6337 6.76138 23.6079 6.6568C23.5821 6.55223 23.5333 6.45472 23.4651 6.37136C23.3969 6.288 23.311 6.22089 23.2136 6.17489C23.1162 6.1289 23.0098 6.10518 22.9021 6.10547H20.2242C20.0583 6.10531 19.8972 6.16178 19.7677 6.26554C19.6382 6.3693 19.548 6.51414 19.512 6.67613L19.1372 8.51272C15.5721 8.68775 12.5485 10.4535 12.5485 14.0727C12.5485 17.2003 15.0474 18.5456 17.6878 19.4868C20.1866 20.4155 21.511 20.7614 21.511 22.069C21.511 23.3766 20.1908 24.2013 18.2459 24.2013C16.3585 24.2315 14.5349 23.518 13.1691 22.2149C13.0336 22.0816 12.8511 22.0069 12.661 22.0069C12.4709 22.0069 12.2884 22.0816 12.1529 22.2149L10.6619 23.6723C10.5922 23.7395 10.5368 23.8201 10.499 23.9091C10.4612 23.9982 10.4417 24.094 10.4417 24.1908C10.4417 24.2876 10.4612 24.3834 10.499 24.4725C10.5368 24.5616 10.5922 24.6421 10.6619 24.7093C11.8767 25.8472 13.3595 26.6595 14.9724 27.0707L14.5559 28.9741C14.5339 29.0804 14.5355 29.1903 14.5606 29.2959C14.5858 29.4016 14.6338 29.5004 14.7013 29.5854C14.7689 29.6704 14.8543 29.7396 14.9515 29.788C15.0487 29.8364 15.1554 29.8628 15.2639 29.8654H17.9501C18.1174 29.8663 18.2798 29.8097 18.4103 29.705C18.5407 29.6004 18.6312 29.4541 18.6666 29.2906L19.0539 27.4873C23.3268 27.2249 25.9381 24.926 25.9381 21.5608C25.9381 18.4623 23.3352 17.1547 20.1741 16.0884C18.3667 15.4096 16.8048 14.9639 16.8048 13.6229C16.8048 12.2819 18.2625 11.7987 19.7203 11.7987Z" fill="black"/>
</svg>
