<svg
                      className="w-[1.15rem] h-[0.815rem]"
                      width="18"
                      height="13"
                      viewBox="0 0 18 13"
                      fill="none"
                      xmlns="http://www.w3.org/2000/svg">
                      <g id="Find offers Icon">
                        <path
                          id="Vector"
                          d="M5.95968 10.0669C7.05924 10.0707 8.10162 9.57775 8.79636 8.7255C9.4911 7.87324 9.76382 6.75298 9.53855 5.67674C9.3134 4.60051 8.61426 3.68362 7.63614 3.18147C6.65793 2.67932 5.50534 2.64574 4.49966 3.09009C3.49384 3.53443 2.74256 4.40908 2.45506 5.47039C2.16757 6.53155 2.37457 7.66599 3.0185 8.5571L0.170265 11.4025C0.0234074 11.5493 -0.0338819 11.7632 0.0197772 11.9637C0.0735689 12.1642 0.230146 12.3208 0.430673 12.3746C0.631194 12.4283 0.845054 12.371 0.991918 12.2243L3.84015 9.37603V9.3759C4.45608 9.82413 5.19804 10.0661 5.95967 10.0669L5.95968 10.0669ZM5.95968 3.96968C6.61503 3.97124 7.2429 4.23307 7.70513 4.6975C8.16749 5.16205 8.42631 5.79109 8.42479 6.44644C8.42323 7.10166 8.1614 7.72953 7.69697 8.19189C7.23255 8.65412 6.60338 8.91294 5.94816 8.91142C5.29281 8.90986 4.66494 8.64803 4.20271 8.1836C3.74035 7.71918 3.48152 7.09014 3.48305 6.43479C3.48072 5.77672 3.74073 5.14483 4.20553 4.67898C4.67035 4.21301 5.30157 3.95156 5.95964 3.95236L5.95968 3.96968Z"
                          fill="currentColor"
                        />
                        <path
                          id="Vector_2"
                          d="M2.98913 1.66138H16.8387C17.0463 1.66138 17.238 1.55082 17.3417 1.37103C17.4454 1.19138 17.4454 0.970126 17.3417 0.790345C17.238 0.610693 17.0463 0.5 16.8387 0.5H2.98913C2.78161 0.5 2.58991 0.610693 2.48622 0.790345C2.38252 0.970126 2.38252 1.19139 2.48622 1.37103C2.58991 1.55082 2.78162 1.66138 2.98913 1.66138Z"
                          fill="currentColor"
                        />
                        <path
                          id="Vector_3"
                          d="M16.8389 4.11523H10.817C10.6096 4.11523 10.4179 4.22593 10.3142 4.40558C10.2104 4.58536 10.2104 4.80662 10.3142 4.98627C10.4179 5.16605 10.6096 5.27661 10.817 5.27661H16.8389C17.0464 5.27661 17.2381 5.16605 17.3418 4.98627C17.4455 4.80662 17.4455 4.58536 17.3418 4.40558C17.2381 4.22593 17.0464 4.11523 16.8389 4.11523Z"
                          fill="currentColor"
                        />
                        <path
                          id="Vector_4"
                          d="M16.8389 7.72656H10.817C10.6096 7.72656 10.4179 7.83726 10.3142 8.01691C10.2104 8.19656 10.2104 8.41795 10.3142 8.5976C10.4179 8.77725 10.6096 8.88794 10.817 8.88794H16.8389C17.0464 8.88794 17.2381 8.77725 17.3418 8.5976C17.4455 8.41795 17.4455 8.19656 17.3418 8.01691C17.2381 7.83726 17.0464 7.72656 16.8389 7.72656Z"
                          fill="currentColor"
                        />
                        <path
                          id="Vector_5"
                          d="M16.839 11.3389H5.95983C5.75244 11.3389 5.56075 11.4494 5.45692 11.6292C5.35323 11.8089 5.35323 12.0301 5.45692 12.2099C5.56075 12.3896 5.75245 12.5002 5.95983 12.5002H16.839C17.0465 12.5002 17.2382 12.3896 17.3419 12.2099C17.4456 12.0301 17.4456 11.8089 17.3419 11.6292C17.2382 11.4494 17.0465 11.3389 16.839 11.3389Z"
                          fill="currentColor"
                        />
                      </g>
                    </svg>