<svg
                xmlns="http://www.w3.org/2000/svg"
                width="12"
                height="13"
                viewBox="0 0 12 13"
                fill="none">
                <path
                  d="M6 12.2188C9.3 12.2188 12 9.51875 12 6.21875C12 2.91875 9.3 0.21875 6 0.21875C2.7 0.21875 0 2.91875 0 6.21875C0 9.51875 2.7 12.2188 6 12.2188ZM6.18 3.39275C6.3 3.28475 6.444 3.21875 6.6 3.21875C6.762 3.21875 6.9 3.28475 7.026 3.39275C7.14 3.51875 7.2 3.66275 7.2 3.81875C7.2 3.98075 7.14 4.11875 7.026 4.24475C6.9 4.35875 6.762 4.41875 6.6 4.41875C6.444 4.41875 6.3 4.35875 6.18 4.24475C6.066 4.11875 6 3.98075 6 3.81875C6 3.66275 6.066 3.51875 6.18 3.39275ZM4.68 6.20075C4.68 6.20075 5.982 5.16875 6.456 5.12675C6.9 5.09075 6.81 5.60075 6.768 5.86475L6.762 5.90075C6.678 6.21875 6.576 6.60275 6.474 6.96875C6.246 7.80275 6.024 8.61875 6.078 8.76875C6.138 8.97275 6.51 8.71475 6.78 8.53475C6.816 8.51075 6.846 8.48675 6.876 8.46875C6.876 8.46875 6.924 8.42075 6.972 8.48675C6.984 8.50475 6.996 8.52275 7.008 8.53475C7.062 8.61875 7.092 8.64875 7.02 8.69675L6.996 8.70875C6.864 8.79875 6.3 9.19475 6.072 9.33875C5.826 9.50075 4.884 10.0408 5.028 8.99075C5.154 8.25275 5.322 7.61675 5.454 7.11875C5.7 6.21875 5.808 5.81075 5.256 6.16475C5.034 6.29675 4.902 6.38075 4.824 6.43475C4.758 6.48275 4.752 6.48275 4.71 6.40475L4.692 6.36875L4.662 6.32075C4.62 6.26075 4.62 6.25475 4.68 6.20075Z"
                  fill="#8A8A8A"
                />
              </svg>