<svg width="40" height="40" viewBox="0 0 40 40" fill="none" xmlns="http://www.w3.org/2000/svg">
<g id="Property 1=Idle">
<circle id="Ellipse 8" cx="20" cy="20" r="19" stroke="url(#paint0_linear_696_349)"/>
<path id="Vector" fill-rule="evenodd" clip-rule="evenodd" d="M18.0107 16.5766H21.5155V18.3224C22.0204 17.3183 23.3151 16.4161 25.2601 16.4161C28.9886 16.4161 29.8738 18.4149 29.8738 22.0821V28.8738H26.099V22.9172C26.099 20.8288 25.5942 19.6511 24.3089 19.6511C22.5262 19.6511 21.7854 20.9204 21.7854 22.9163V28.8738H18.0107V16.5766ZM11.5379 28.7134H15.3127V16.4161H11.5379V28.7134ZM15.8534 12.4064C15.8535 12.7228 15.7908 13.0361 15.6688 13.328C15.5468 13.6199 15.368 13.8847 15.1428 14.1069C14.6864 14.5605 14.0687 14.8144 13.4253 14.8128C12.783 14.8124 12.1667 14.5592 11.7097 14.1079C11.4853 13.8849 11.3071 13.6198 11.1853 13.3279C11.0635 13.0359 11.0005 12.7228 11 12.4064C11 11.7675 11.2548 11.156 11.7106 10.7049C12.1672 10.2531 12.7838 9.99972 13.4262 10C14.0698 10 14.687 10.2539 15.1428 10.7049C15.5977 11.156 15.8534 11.7675 15.8534 12.4064Z" fill="white"/>
</g>
<defs>
<linearGradient id="paint0_linear_696_349" x1="1.25" y1="20" x2="41.7905" y2="20.027" gradientUnits="userSpaceOnUse">
<stop stop-color="#5A00FE"/>
<stop offset="0.9773" stop-color="#FD5265"/>
</linearGradient>
</defs>
</svg>
