<svg width="154" height="57" viewBox="0 0 154 57" fill="none" xmlns="http://www.w3.org/2000/svg">
<path d="M20.9053 13.0352L13.9051 16.0651L9.90489 19.5652L0.904541 24.5654V16.5128C0.904541 15.5905 1.26814 14.706 1.91535 14.0538C2.56256 13.4017 3.44037 13.0353 4.35567 13.0353L20.9053 13.0352Z" fill="#5A00FE"/>
<path fill-rule="evenodd" clip-rule="evenodd" d="M29.9057 32.5657C29.3552 31.019 28.2367 29.7758 26.9815 28.7269L10.9322 39.3873C11.6022 39.5937 12.1328 39.7586 12.6634 39.932C13.507 40.2087 13.8541 40.8165 13.6492 41.6679C13.4444 42.5194 12.8341 42.9164 12.0048 42.872C11.5013 42.8441 10.9912 42.7118 10.4921 42.5824C10.4271 42.5656 10.3623 42.5488 10.2977 42.5323C9.58008 42.3488 8.94404 42.1952 8.38233 42.0596C6.22378 41.5384 5.16289 41.2823 4.78813 40.61C4.37807 39.9612 4.65693 38.8957 5.22366 36.7303C5.37063 36.1687 5.53695 35.5332 5.71563 34.8118C5.73305 34.7411 5.75024 34.6701 5.76747 34.5989C5.88816 34.1002 6.01061 33.5942 6.22349 33.1376C6.57628 32.3793 7.21501 32.0252 8.05432 32.246C8.91497 32.4753 9.26776 33.063 9.10843 33.9446C9.03999 34.3244 8.96538 34.7041 8.88173 35.1299C8.83845 35.3501 8.79276 35.5826 8.74426 35.8339L23.0737 26.2227C24.1409 25.5052 25.0158 24.5333 25.6208 23.3933C26.2258 22.2533 26.5422 20.9805 26.5419 19.6877V19.3666C26.5415 17.6875 25.8794 16.0773 24.7011 14.89C23.5228 13.7027 21.9248 13.0355 20.2584 13.0352H20.1162C18.7121 13.0354 17.3391 13.4521 16.1686 14.2335L0.904541 24.4281V30.2779L16.7476 19.3652C16.6815 19.3526 16.6168 19.3403 16.5533 19.3282C15.9086 19.2053 15.3906 19.1067 14.8726 18.9997C14.0006 18.8119 13.5923 18.2686 13.7033 17.3784C13.8143 16.5112 14.379 16.0468 15.2084 16.0024C15.7203 15.9728 16.247 16.0513 16.76 16.1277C16.8201 16.1367 16.88 16.1456 16.9396 16.1543C17.6712 16.2572 18.3188 16.3395 18.891 16.4123C21.1004 16.6932 22.1847 16.8311 22.6299 17.4573C23.1064 18.0567 22.9459 19.1389 22.619 21.3433C22.5331 21.9224 22.4357 22.5788 22.3354 23.3243C22.3262 23.3931 22.3172 23.4622 22.3081 23.5316C22.2418 24.0407 22.1738 24.5625 22.011 25.0444C21.7408 25.8428 21.1646 26.2729 20.2869 26.1295C19.4092 25.9862 18.9952 25.4458 19.0578 24.5528C19.0897 24.0284 19.1339 23.5078 19.1882 22.8687C19.1921 22.8229 19.1961 22.7765 19.2001 22.7294L4.31015 32.9928C3.26076 33.7164 2.4022 34.6868 1.80879 35.8199C1.21538 36.9531 0.90501 38.215 0.904541 39.4963C0.906426 41.2717 1.60758 42.9738 2.85401 44.2286C4.10043 45.4835 5.7902 46.1886 7.55216 46.1889C7.67801 46.1891 7.80361 46.1857 7.92881 46.1789L7.90475 46.1938C7.90475 46.1938 19.1431 46.2569 20.9085 46.2569C22.3292 46.2665 23.733 45.9462 25.0109 45.3208C26.2888 44.6953 27.4066 43.7815 28.2773 42.6504C29.4522 41.0831 30.9057 37.0661 29.9056 32.5659L29.9038 32.567L29.9057 32.5657Z" fill="#5A00FE"/>
<path d="M50.8617 39.8881V32.0023H58.7034C61.4348 32.0023 63.1088 33.1477 63.1088 35.7029C63.1088 38.0818 61.4348 39.8881 58.6153 39.8881H50.8617ZM58.2188 20.6804C61.0823 20.6804 62.2718 21.6055 62.2718 23.8523C62.2718 25.9228 60.9942 27.0242 58.5712 27.0242H50.8617V20.6804H58.2188ZM58.1307 44.8662C65.4878 44.8662 69.0562 41.474 69.0562 36.1434C69.0562 31.9583 67.0737 29.9758 64.6067 29.0507C66.6332 28.2137 68.1751 26.099 68.1751 23.5879C68.1751 18.6979 65.0913 15.6141 59.3642 15.6141H44.9584V44.8662H58.1307ZM83.5157 36.628C83.4716 39.1832 81.2689 41.3419 78.3172 41.3419C76.511 41.3419 75.5418 40.5489 75.5418 38.9189C75.5418 37.0686 76.5991 36.1434 79.8591 35.5267C81.9738 35.1302 82.987 34.8218 83.5597 34.2491L83.5157 36.628ZM89.2868 44.8662V31.1653C89.2868 25.7026 86.9078 22.6188 80.0354 22.6188C73.0748 22.6188 70.6077 25.7466 70.5196 30.2402H75.8502C76.1145 28.3018 77.1718 27.0242 79.771 27.0242C82.0178 27.0242 83.4275 27.8612 83.4275 29.271C83.4275 30.7688 82.6346 31.3415 79.771 31.738C73.9999 32.531 69.8147 33.2359 69.8147 39.4916C69.8147 43.0159 72.1056 45.4389 77.0397 45.4389C79.9473 45.4389 82.2381 44.4257 83.6038 42.9278C83.6478 43.5886 83.78 44.3376 83.9562 44.8662H89.2868ZM97.5394 44.8662V33.5883C97.5394 30.108 99.2575 28.3458 102.782 28.3458C103.311 28.3458 103.839 28.3899 104.368 28.478V22.6188H103.619C101.284 22.6188 99.0813 22.8831 97.187 25.7907V23.1915H91.8123V44.8662H97.5394ZM118.258 36.2316C118.258 38.9189 117.2 40.4608 114.91 40.4608C112.575 40.4608 111.605 38.8748 111.605 36.1434V27.2445H123.588V23.1915H111.605V17.3322H105.967V36.7162C105.967 41.3859 108.478 45.4389 114.821 45.4389C120.945 45.4389 123.588 41.3419 123.588 36.7602V30.5926H118.258V36.2316ZM139.057 36.628C139.013 39.1832 136.81 41.3419 133.858 41.3419C132.052 41.3419 131.083 40.5489 131.083 38.9189C131.083 37.0686 132.14 36.1434 135.4 35.5267C137.515 35.1302 138.528 34.8218 139.101 34.2491L139.057 36.628ZM144.828 44.8662V31.1653C144.828 25.7026 142.449 22.6188 135.577 22.6188C128.616 22.6188 126.149 25.7466 126.061 30.2402H131.391C131.656 28.3018 132.713 27.0242 135.312 27.0242C137.559 27.0242 138.969 27.8612 138.969 29.271C138.969 30.7688 138.176 31.3415 135.312 31.738C129.541 32.531 125.356 33.2359 125.356 39.4916C125.356 43.0159 127.647 45.4389 132.581 45.4389C135.488 45.4389 137.779 44.4257 139.145 42.9278C139.189 43.5886 139.321 44.3376 139.497 44.8662H144.828Z" fill="white"/>
</svg>
