<svg width="142" height="24" viewBox="0 0 142 24" fill="none" xmlns="http://www.w3.org/2000/svg">
<path fill-rule="evenodd" clip-rule="evenodd" d="M132.375 10.4735C131.573 11.0239 130.409 11.296 128.815 11.296H128.124H127.235L128.447 4.85488H129.061H129.609C130.931 4.85488 131.897 5.0644 132.563 5.48964C133.083 5.82313 133.699 6.4833 133.699 7.73608C133.699 9.24548 132.982 10.0575 132.375 10.4735ZM38.1241 18.5573H25.8968L26.6871 14.3471H34.3565L35.228 9.60501H27.6323L28.3666 5.43819H40.5724L38.1241 18.5573ZM138.962 1.8243C137.164 0.611198 134.444 0 130.877 0H121.536L118.064 18.5579H105.827L106.611 14.3477H113.984L114.86 9.61865L107.492 9.6317L108.282 5.43947H115.873L116.883 0.000657875H101.462L98.1657 17.6059H92.5109L95.8307 0.000707674H87.7685L84.4725 17.6059H78.9587L82.2817 0.000707674H74.2276L70.7466 18.5586H58.423L59.1994 14.3484H66.6049L67.4771 9.64663L60.0829 9.6399L60.8682 5.4396H68.5444L69.5495 0.000794168H21.5039L18.7691 14.7074L13.3207 0.000175608H4.95872L0.45813 24H8.44358L11.1671 8.88923L16.4548 24H45.0768L48.556 5.43899H53.0345L49.5534 24H124.866L127.048 12.2824L130.584 24H138.573L134.913 14.426L135.749 14.2481C137.59 13.86 139.031 13.0238 140.031 11.771C141.033 10.5065 141.542 8.88303 141.542 6.93289C141.543 4.66166 140.7 2.99153 138.962 1.8243Z" fill="#8A8A8A"/>
</svg>
