<svg width="40" height="14" viewBox="0 0 40 14" fill="none" xmlns="http://www.w3.org/2000/svg">
<path fill-rule="evenodd" clip-rule="evenodd" d="M23.1826 0C23.3123 0.0292056 23.442 0.0724297 23.5716 0.0917054C24.109 0.178154 24.5413 0.46729 24.9116 0.848131C25.0027 0.939253 25.0938 1.12266 25.0553 1.21904C25.0121 1.32477 24.8392 1.42582 24.7095 1.44509C23.4992 1.62325 22.3228 1.94159 21.1943 2.40888C20.5407 2.67874 19.9022 3.00584 19.2778 3.3382C17.9186 4.07068 16.814 5.12559 15.7334 6.2097C14.5903 7.35631 13.5237 8.5701 12.5921 9.89545C12.0129 10.7223 11.465 11.5706 10.9495 12.4387C10.6902 12.8721 10.522 13.3587 10.3105 13.8213C10.2772 13.8884 10.2054 14.0094 10.1809 13.9994C10.0897 13.9702 9.95539 13.9176 9.93144 13.8452C9.87361 13.6671 9.81578 13.4597 9.84966 13.2815C10.0319 12.3131 10.4355 11.4223 10.8824 10.5502C11.7515 8.86391 12.8421 7.32711 14.1149 5.92991C14.8383 5.13461 15.5879 4.36355 16.3625 3.61799C17.5249 2.49533 18.8216 1.54615 20.2673 0.814252C20.9349 0.477219 21.6265 0.221378 22.3614 0.0817754C22.4858 0.0578268 22.6061 0.0292053 22.7258 0.00467256C22.8847 -3.3891e-07 23.0337 0 23.1826 0Z" fill="#545454"/>
<path fill-rule="evenodd" clip-rule="evenodd" d="M0.0090332 10.7617C0.0762061 10.4007 0.12936 10.0684 0.195949 9.73601C0.542328 7.91007 0.892795 6.0894 1.23859 4.26346C1.26254 4.14781 1.29642 4.0707 1.41149 4.05143C2.30985 3.91708 3.21289 3.82012 4.11067 4.04676C4.89338 4.23951 5.44128 4.79325 5.5324 5.44395C5.71932 6.73951 4.96581 7.77515 3.84665 8.14606C3.25611 8.33881 2.65506 8.3873 2.04525 8.32947C1.90156 8.31487 1.85833 8.35342 1.83438 8.49302C1.70492 9.19881 1.57038 9.90366 1.43076 10.6075C1.42142 10.6659 1.36826 10.7576 1.33497 10.7576C0.897469 10.767 0.470482 10.7623 0.0090332 10.7623V10.7617ZM2.07445 7.18285C2.36709 7.18285 2.6317 7.2068 2.88637 7.17818C3.38579 7.12503 3.78415 6.89839 4.00962 6.42176C4.26429 5.88204 4.08205 5.30902 3.60191 5.14021C3.26079 5.01989 2.90974 5.04383 2.55927 5.09232C2.51604 5.09699 2.4588 5.16416 2.44887 5.20739L2.07445 7.18285ZM8.52481 9.83706C8.28416 10.0882 8.09257 10.3429 7.84724 10.531C7.34315 10.9212 6.76663 11.0076 6.18544 10.7383C5.6095 10.4732 5.37352 9.95739 5.35016 9.3505C5.29759 8.07421 5.74385 7.0193 6.81453 6.28683C7.48743 5.82421 8.26021 5.68461 9.06278 5.72783C9.47049 5.75178 9.87469 5.84816 10.2824 5.90599C10.446 5.93052 10.4693 6.02164 10.4407 6.16124C10.2585 7.1151 10.0663 8.06428 9.91266 9.01814C9.83088 9.52398 9.80694 10.0444 9.77306 10.5549C9.76371 10.7091 9.72516 10.7716 9.56687 10.767C9.26905 10.7573 8.97099 10.7573 8.67317 10.767C8.51955 10.7716 8.46698 10.7144 8.48158 10.5649C8.50028 10.3336 8.51021 10.0923 8.52481 9.83706ZM8.86067 6.85984C8.39514 6.73017 8.00612 6.82129 7.67902 7.09582C7.06453 7.61627 6.78591 8.29092 6.83848 9.09524C6.85308 9.34057 6.94946 9.57713 7.2088 9.68286C7.46815 9.78916 7.70355 9.71206 7.90507 9.53858C8.02481 9.43227 8.14046 9.31195 8.22633 9.17702C8.6831 8.47842 8.69245 7.65949 8.86067 6.85984ZM17.929 10.878C16.6557 10.878 15.9308 10.4054 15.6662 9.55786C15.2293 8.16066 16.0698 5.97841 18.1253 5.74711C18.7404 5.67993 19.3169 5.75704 19.821 6.13262C20.3011 6.48893 20.5365 6.9901 20.5704 7.58239C20.6083 8.19921 20.5026 8.78683 20.2147 9.33648C19.672 10.3575 18.8034 10.8534 17.929 10.878ZM17.0353 8.77748C17.0353 8.84991 17.0307 8.92702 17.0353 8.99945C17.0739 9.5047 17.4337 9.82772 17.9092 9.78449C18.1738 9.75996 18.38 9.62094 18.5435 9.41825C18.9711 8.87386 19.134 8.24769 19.0762 7.56837C19.0283 7.01405 18.6107 6.72024 18.1013 6.83589C17.8519 6.8943 17.6644 7.04793 17.5155 7.25061C17.1843 7.70797 17.0499 8.22316 17.0353 8.77748ZM21.7135 5.84816H22.9331C22.9138 6.10867 22.8946 6.35926 22.8706 6.61451C23.0102 6.48426 23.1346 6.35926 23.2643 6.24827C23.7398 5.83355 24.283 5.65073 24.9115 5.75178C25.4308 5.83881 25.7906 6.21907 25.8484 6.75412C25.9156 7.35166 25.7906 7.92935 25.6802 8.50762C25.5458 9.20622 25.4162 9.90482 25.2772 10.5987C25.2626 10.6612 25.1907 10.7524 25.1428 10.7576C24.7293 10.767 24.3163 10.7623 23.9033 10.7576C23.8841 10.7576 23.8648 10.743 23.8262 10.7237C24.0244 9.70421 24.2036 8.68105 24.3636 7.65482C24.379 7.54778 24.3776 7.439 24.3595 7.33239C24.321 6.96148 24.0476 6.79267 23.6919 6.90365C23.3461 7.01463 23.1399 7.28391 22.9717 7.58239C22.7217 8.02106 22.6352 8.50762 22.5488 8.99419C22.453 9.52865 22.3619 10.059 22.2561 10.5935C22.2415 10.656 22.1697 10.7524 22.1218 10.757C21.6989 10.7716 21.2713 10.767 20.8005 10.767C21.1124 9.12897 21.4167 7.48896 21.7135 5.84816ZM27.8227 8.83531C27.7888 9.33648 28.13 9.69279 28.6387 9.75529C29.1335 9.81311 29.6089 9.73601 30.0698 9.55786C30.1183 9.53858 30.1709 9.5193 30.224 9.49944C30.2334 9.49536 30.2474 9.49944 30.2865 9.49944C30.3151 9.79384 30.349 10.0876 30.363 10.3815C30.3677 10.4399 30.3005 10.531 30.2433 10.5549C29.4413 10.8826 28.6101 10.9983 27.7649 10.7816C26.9769 10.5789 26.5447 10.0105 26.4582 9.21615C26.3338 8.09349 26.6603 7.11043 27.5295 6.3686C28.245 5.75704 29.0856 5.56428 29.998 5.83881C30.6084 6.02164 30.9489 6.47958 30.9921 7.11042C31.0353 7.73192 30.7666 8.20856 30.1901 8.49769C29.7386 8.72433 29.2538 8.8061 28.7591 8.83531C28.4518 8.84991 28.1399 8.83531 27.8227 8.83531ZM27.9617 7.78975C28.3315 7.86685 29.0902 7.77514 29.3835 7.62094C29.585 7.51521 29.686 7.34641 29.6522 7.1443C29.6189 6.93694 29.4793 6.83589 29.2871 6.78799C28.7158 6.64781 28.0388 7.14898 27.9617 7.78975ZM32.6206 8.85458C32.5774 9.32655 32.9133 9.68811 33.4273 9.75529C33.9074 9.81311 34.3689 9.74068 34.8204 9.57713C34.8969 9.54793 34.9693 9.51872 35.0698 9.48075C35.099 9.79384 35.137 10.0882 35.1516 10.3815C35.1563 10.4399 35.0891 10.531 35.0365 10.5549C34.2199 10.892 33.3794 11.0076 32.5196 10.7716C31.7462 10.5596 31.3432 9.99594 31.2468 9.2255C31.127 8.23835 31.3811 7.34641 32.0681 6.61451C32.8081 5.82888 33.7152 5.54968 34.7626 5.83881C35.4016 6.01697 35.7421 6.47958 35.7807 7.1297C35.8192 7.7658 35.5313 8.24243 34.9308 8.52222C34.3256 8.80143 33.6819 8.84465 33.0289 8.85926C32.8992 8.85458 32.7655 8.85458 32.6206 8.85458ZM32.7596 7.8283C33.0675 7.80902 33.3554 7.80435 33.6387 7.7658C33.8319 7.74084 34.0199 7.68564 34.196 7.60225C34.3829 7.52047 34.4746 7.34641 34.4454 7.13496C34.4168 6.93227 34.2818 6.83589 34.0949 6.78799C33.5283 6.63379 32.8221 7.15365 32.7596 7.8283ZM35.8624 10.7617C35.9249 10.4054 35.9828 10.083 36.0447 9.75529C36.2947 8.50762 36.5494 7.25996 36.6551 5.98309C36.6598 5.93052 36.7316 5.84348 36.7702 5.83881C37.1352 5.82888 37.5003 5.83414 37.894 5.83414C37.8648 6.17584 37.8414 6.49886 37.8175 6.81662C38.2591 6.1665 38.7684 5.63671 39.6808 5.7325C39.5897 6.19045 39.5126 6.61451 39.4214 7.03332C39.4115 7.0672 39.3496 7.11043 39.3105 7.1151C38.3642 7.24068 37.9658 7.57771 37.731 8.55085C37.5675 9.2255 37.4565 9.91884 37.3175 10.6034C37.3081 10.6612 37.2556 10.7524 37.2217 10.7524C36.7801 10.767 36.3379 10.7623 35.8624 10.7623V10.7617Z" fill="#545454"/>
<path fill-rule="evenodd" clip-rule="evenodd" d="M12.6929 4.6583C12.6824 5.32416 12.5606 5.98357 12.3325 6.60924C12.3033 6.6769 12.2626 6.73896 12.2122 6.79265C12.107 6.93283 11.9914 6.94685 11.9096 6.79265C11.8029 6.59117 11.7207 6.37761 11.6649 6.15655C11.5099 5.47521 11.3673 4.7911 11.2373 4.10456C11.0696 3.22781 10.9207 2.34638 10.7665 1.46905C10.7431 1.34405 10.7332 1.21379 10.7233 1.08879C10.7139 0.944513 10.7957 0.872083 10.9207 0.91998C11.0451 0.963789 11.1701 1.03563 11.2612 1.12734C12.0252 1.94159 12.5054 2.89019 12.6351 4.00818C12.6643 4.22489 12.6736 4.44159 12.6929 4.6583Z" fill="#545454"/>
</svg>
