<svg width="48" height="12" viewBox="0 0 48 12" fill="none" xmlns="http://www.w3.org/2000/svg">
<path d="M9.34307 0.90872C8.78344 0.274278 7.78791 0 6.49409 0H2.76132C2.49997 0 2.27648 0.186545 2.23862 0.447895L0.683449 10.2896C0.658515 10.4891 0.808121 10.6627 0.994667 10.6627H3.29602L3.86859 6.99271L3.85658 7.10446C3.89352 6.84311 4.11793 6.65656 4.37928 6.65656H5.47455C7.62722 6.65656 9.30706 5.78571 9.79189 3.25994C9.8039 3.18514 9.81683 3.11034 9.82883 3.03553C10.0025 2.11573 9.85377 1.48129 9.34307 0.90872Z" fill="#545454"/>
<path d="M37.5136 5.59761C37.377 6.51834 36.6677 6.51834 35.9834 6.51834H35.5974L35.8707 4.78863C35.8827 4.68889 35.9825 4.60208 36.0822 4.60208H36.2567C36.7167 4.60208 37.1655 4.60208 37.389 4.86343C37.5256 5.03705 37.5635 5.26146 37.5136 5.59761ZM37.2144 3.18359H34.6388C34.4642 3.18359 34.3156 3.30827 34.2906 3.48188L33.2452 10.0756C33.2203 10.2003 33.32 10.3241 33.4567 10.3241H34.7755C34.9001 10.3241 34.9999 10.2373 35.0239 10.1126L35.3222 8.2462C35.3471 8.07166 35.4967 7.94791 35.6703 7.94791H36.4793C38.1712 7.94791 39.1547 7.12692 39.4031 5.49695C39.5148 4.78771 39.4031 4.22807 39.0799 3.84205C38.7206 3.40708 38.0733 3.18359 37.2144 3.18359Z" fill="#545454"/>
<path d="M19.1587 5.59761C19.022 6.51834 18.3128 6.51834 17.6285 6.51834H17.2424L17.5158 4.78863C17.5278 4.68889 17.6275 4.60208 17.7273 4.60208H17.9018C18.3617 4.60208 18.8105 4.60208 19.034 4.86343C19.1707 5.03705 19.2086 5.26146 19.1587 5.59761ZM18.8604 3.18359H16.2848C16.1102 3.18359 15.9616 3.30827 15.9366 3.48188L14.8912 10.0756C14.8663 10.2003 14.966 10.3241 15.1027 10.3241H16.3346C16.5092 10.3241 16.6579 10.1994 16.6828 10.0258L16.9691 8.2462C16.994 8.07166 17.1436 7.94791 17.3172 7.94791H18.1262C19.8181 7.94791 20.8016 7.12692 21.05 5.49695C21.1618 4.78771 21.05 4.22807 20.7268 3.84205C20.3777 3.40708 19.7313 3.18359 18.8604 3.18359Z" fill="#545454"/>
<path d="M24.8346 7.95585C24.7099 8.6651 24.1623 9.13793 23.441 9.13793C23.08 9.13793 22.7937 9.02619 22.62 8.80178C22.4335 8.5903 22.3716 8.27908 22.4206 7.93092C22.5323 7.2346 23.1049 6.74884 23.8012 6.74884C24.1494 6.74884 24.4356 6.86059 24.6222 7.085C24.8217 7.30848 24.8965 7.6197 24.8346 7.95585ZM26.5514 5.56677H25.3194C25.2197 5.56677 25.12 5.64157 25.1079 5.75331L25.0581 6.10147L24.9713 5.9768C24.7099 5.59078 24.1124 5.4541 23.5158 5.4541C22.1592 5.4541 20.9901 6.48657 20.7666 7.93C20.6548 8.65125 20.8165 9.33556 21.2265 9.82132C21.5996 10.2692 22.1352 10.4438 22.7817 10.4438C23.8769 10.4438 24.4864 9.73451 24.4864 9.73451L24.4366 10.0827C24.4116 10.2073 24.5114 10.3311 24.648 10.3311H25.7553C25.9299 10.3311 26.0785 10.2064 26.1035 10.0328L26.7758 5.81519C26.7878 5.67851 26.6881 5.56677 26.5514 5.56677Z" fill="#545454"/>
<path d="M43.1886 7.95585C43.0639 8.6651 42.5163 9.13793 41.795 9.13793C41.434 9.13793 41.1477 9.02619 40.9741 8.80178C40.7875 8.5903 40.7256 8.27908 40.7746 7.93092C40.8863 7.2346 41.4589 6.74884 42.1552 6.74884C42.5034 6.74884 42.7896 6.86059 42.9762 7.085C43.1627 7.30941 43.2375 7.6197 43.1886 7.95585ZM44.9054 5.56677H43.6734C43.5737 5.56677 43.474 5.64157 43.462 5.75331L43.4121 6.10147L43.3253 5.9768C43.0639 5.59078 42.4664 5.4541 41.8698 5.4541C40.5132 5.4541 39.3441 6.48657 39.1206 7.93C39.0089 8.65125 39.1705 9.33556 39.5805 9.82132C39.9536 10.2692 40.4892 10.4438 41.1357 10.4438C42.2309 10.4438 42.8404 9.73451 42.8404 9.73451L42.7906 10.0827C42.7656 10.2073 42.8654 10.3311 43.0021 10.3311H44.1093C44.2839 10.3311 44.4325 10.2064 44.4575 10.0328L45.1298 5.81519C45.1418 5.67851 45.0421 5.56677 44.9054 5.56677Z" fill="#545454"/>
<path d="M33.1145 5.55854H31.8706C31.7459 5.55854 31.6461 5.62042 31.5723 5.72015L29.8804 8.23299L29.1592 5.81897C29.1093 5.66936 28.9726 5.55762 28.811 5.55762H27.592C27.4424 5.55762 27.3436 5.70722 27.3925 5.8439L28.7611 9.85003L27.4793 11.6545C27.3796 11.7912 27.4793 11.9907 27.6539 11.9907H28.8858C28.9976 11.9907 29.1102 11.9288 29.1841 11.8411L33.302 5.89377C33.3879 5.75709 33.289 5.55854 33.1145 5.55854Z" fill="#545454"/>
<path d="M46.3543 3.35917L45.2969 10.0776C45.272 10.2023 45.3717 10.326 45.5084 10.326H46.5658C46.7403 10.326 46.889 10.2014 46.914 10.0277L47.9594 3.43398C47.9843 3.3093 47.8846 3.18556 47.7479 3.18556H46.5658C46.467 3.18463 46.3793 3.25944 46.3543 3.35917Z" fill="#545454"/>
<path d="M9.34307 0.90872C8.78344 0.274278 7.78791 0 6.49409 0H2.76132C2.49997 0 2.27648 0.186545 2.23862 0.447895L0.683449 10.2896C0.658515 10.4891 0.808121 10.6627 0.994667 10.6627H3.29602L3.86859 6.99271L3.85658 7.10446C3.89352 6.84311 4.11793 6.65656 4.37928 6.65656H5.47455C7.62722 6.65656 9.30706 5.78571 9.79189 3.25994C9.8039 3.18514 9.81683 3.11034 9.82883 3.03553C10.0025 2.11573 9.85377 1.48129 9.34307 0.90872Z" fill="#545454"/>
<path d="M4.52006 3.06213C4.54499 2.90052 4.64473 2.77585 4.78141 2.71397C4.84328 2.68904 4.90608 2.66411 4.98088 2.66411H7.89267C8.24083 2.66411 8.56497 2.68904 8.85033 2.73891C8.93714 2.75092 9.01195 2.76384 9.09875 2.78878C9.17356 2.80078 9.26037 2.82572 9.33517 2.85065C9.37211 2.86266 9.40997 2.87559 9.44691 2.88759C9.59652 2.93746 9.7332 2.98733 9.84494 3.06213C9.99455 2.1294 9.84494 1.49404 9.33517 0.922392C8.77553 0.28795 7.78 0.0136719 6.48618 0.0136719H2.75341C2.49206 0.0136719 2.26857 0.200217 2.23071 0.461567L0.700478 10.2903C0.675543 10.4898 0.82515 10.6634 1.0117 10.6634H3.31305L3.88562 6.99346L4.52006 3.06213Z" fill="#545454"/>
<path d="M9.85628 3.05371C9.84427 3.12851 9.83134 3.20332 9.81934 3.27812C9.3345 5.80388 7.64173 6.67474 5.50199 6.67474H4.40672C4.14537 6.67474 3.92189 6.86129 3.88402 7.12264L3.31146 10.6689L3.14985 11.6764C3.12491 11.8509 3.24958 11.9996 3.4232 11.9996H5.36439C5.5888 11.9996 5.78735 11.838 5.82429 11.6016L5.84923 11.5019L6.21124 9.18757L6.23617 9.0629C6.27311 8.83849 6.47259 8.66487 6.69607 8.66487H6.98236C8.86075 8.66487 10.3291 7.90576 10.765 5.69122C10.9395 4.77049 10.8518 3.99937 10.379 3.45174C10.2423 3.29013 10.0558 3.16545 9.85628 3.05371Z" fill="#545454"/>
<path d="M9.34004 2.84475C9.26524 2.81982 9.19044 2.80781 9.10363 2.78288C9.02883 2.77087 8.94202 2.74594 8.85521 2.73301C8.55692 2.68314 8.23277 2.6582 7.89754 2.6582H4.97283C4.89803 2.6582 4.83615 2.67021 4.77335 2.70807C4.63668 2.76995 4.53694 2.89462 4.51201 3.05623L3.88957 6.98755L3.87756 7.0993C3.9145 6.83795 4.13891 6.6514 4.40026 6.6514H5.49553C7.6482 6.6514 9.32804 5.78055 9.81288 3.25478C9.82488 3.17998 9.83781 3.10518 9.84982 3.03037C9.72514 2.9685 9.58847 2.9057 9.45179 2.85583C9.41485 2.86968 9.37791 2.85768 9.34004 2.84475Z" fill="#545454"/>
</svg>
