<svg width="124" height="30" viewBox="0 0 124 30" fill="none" xmlns="http://www.w3.org/2000/svg">
<g id="Paypal">
<path id="Vector" d="M46.5103 6.70898H39.7116C39.2464 6.70898 38.8507 7.04698 38.7782 7.50625L36.0285 24.9398C35.9738 25.2838 36.2402 25.5939 36.5891 25.5939H39.8349C40.3001 25.5939 40.6958 25.2559 40.7683 24.7957L41.5099 20.0936C41.5815 19.6333 41.9782 19.2953 42.4424 19.2953H44.5946C49.0731 19.2953 51.6577 17.1282 52.3327 12.8336C52.6369 10.9548 52.3457 9.47855 51.4659 8.44469C50.4996 7.30942 48.7858 6.70898 46.5103 6.70898ZM47.2946 13.0762C46.9228 15.5157 45.0589 15.5157 43.2566 15.5157H42.2307L42.9504 10.9598C42.9931 10.6844 43.2317 10.4816 43.5101 10.4816H43.9803C45.208 10.4816 46.3661 10.4816 46.9646 11.1814C47.3215 11.599 47.4308 12.2193 47.2946 13.0762Z" fill="#8A8A8A"/>
<path id="Vector_2" d="M66.8324 12.9976H63.5768C63.2994 12.9976 63.0598 13.2004 63.0171 13.4758L62.8729 14.3863L62.6453 14.0563C61.9405 13.0334 60.3688 12.6914 58.8001 12.6914C55.2024 12.6914 52.1297 15.4162 51.5312 19.2386C51.2201 21.1452 51.6625 22.9684 52.744 24.2399C53.7361 25.4089 55.1557 25.8961 56.8447 25.8961C59.7435 25.8961 61.351 24.0321 61.351 24.0321L61.2058 24.9367C61.1512 25.2827 61.4176 25.5929 61.7645 25.5929H64.6971C65.1633 25.5929 65.557 25.2549 65.6306 24.7946L67.3901 13.6517C67.4458 13.3087 67.1804 12.9976 66.8324 12.9976ZM62.2944 19.334C61.9802 21.194 60.504 22.4425 58.6212 22.4425C57.6758 22.4425 56.9203 22.1393 56.4351 21.5648C55.954 20.9941 55.7711 20.182 55.9242 19.2773C56.2174 17.4333 57.7185 16.1439 59.5725 16.1439C60.497 16.1439 61.2486 16.4511 61.7436 17.0307C62.2397 17.6162 62.4365 18.4333 62.2944 19.334Z" fill="#8A8A8A"/>
<path id="Vector_3" d="M84.1712 12.998H80.8996C80.5875 12.998 80.2942 13.1531 80.1173 13.4126L75.605 20.0592L73.6924 13.672C73.5721 13.2724 73.2033 12.998 72.7858 12.998H69.5708C69.1802 12.998 68.9088 13.3798 69.033 13.7476L72.6367 24.3229L69.2488 29.1055C68.9823 29.4822 69.2507 30.0002 69.711 30.0002H72.9786C73.2888 30.0002 73.5791 29.8491 73.755 29.5946L84.6365 13.8878C84.8969 13.512 84.6295 12.998 84.1712 12.998Z" fill="#8A8A8A"/>
<path id="Vector_4" d="M95.003 6.70898H88.2034C87.7391 6.70898 87.3435 7.04698 87.2709 7.50625L84.5212 24.9398C84.4666 25.2838 84.733 25.5939 85.0799 25.5939H88.5692C88.8933 25.5939 89.1707 25.3573 89.2214 25.0352L90.0017 20.0936C90.0733 19.6333 90.4699 19.2953 90.9342 19.2953H93.0854C97.5649 19.2953 100.149 17.1282 100.825 12.8336C101.13 10.9548 100.836 9.47855 99.9567 8.44469C98.9914 7.30942 97.2785 6.70898 95.003 6.70898ZM95.7874 13.0762C95.4166 15.5157 93.5527 15.5157 91.7494 15.5157H90.7244L91.4452 10.9598C91.4879 10.6844 91.7245 10.4816 92.0038 10.4816H92.4741C93.7008 10.4816 94.8599 10.4816 95.4583 11.1814C95.8152 11.599 95.9236 12.2193 95.7874 13.0762Z" fill="#8A8A8A"/>
<path id="Vector_5" d="M115.324 12.9976H112.071C111.791 12.9976 111.554 13.2004 111.512 13.4758L111.368 14.3863L111.139 14.0563C110.434 13.0334 108.864 12.6914 107.295 12.6914C103.697 12.6914 100.626 15.4162 100.027 19.2386C99.7171 21.1452 100.157 22.9684 101.239 24.2399C102.233 25.4089 103.651 25.8961 105.34 25.8961C108.239 25.8961 109.846 24.0321 109.846 24.0321L109.701 24.9367C109.646 25.2827 109.913 25.5929 110.262 25.5929H113.193C113.657 25.5929 114.053 25.2549 114.126 24.7946L115.886 13.6517C115.94 13.3087 115.673 12.9976 115.324 12.9976ZM110.786 19.334C110.474 21.194 108.996 22.4425 107.113 22.4425C106.17 22.4425 105.412 22.1393 104.927 21.5648C104.446 20.9941 104.265 20.182 104.416 19.2773C104.711 17.4333 106.211 16.1439 108.065 16.1439C108.989 16.1439 109.741 16.4511 110.236 17.0307C110.734 17.6162 110.931 18.4333 110.786 19.334Z" fill="#8A8A8A"/>
<path id="Vector_6" d="M119.163 7.18716L116.372 24.9398C116.318 25.2838 116.584 25.594 116.931 25.594H119.736C120.202 25.594 120.598 25.256 120.67 24.7957L123.421 7.36312C123.476 7.01916 123.21 6.70801 122.863 6.70801H119.721C119.444 6.709 119.205 6.9118 119.163 7.18716Z" fill="#8A8A8A"/>
<path id="Vector_7" d="M7.79462 28.9817L8.31454 25.6793L7.15641 25.6524H1.62622L5.46942 1.284C5.48135 1.21043 5.52012 1.14184 5.57678 1.09313C5.63344 1.04442 5.70601 1.01758 5.78157 1.01758H15.1062C18.2019 1.01758 20.3382 1.66176 21.4536 2.93321C21.9765 3.52967 22.3095 4.15297 22.4705 4.8389C22.6395 5.55863 22.6425 6.41853 22.4775 7.46731L22.4656 7.54386V8.21587L22.9885 8.51211C23.4289 8.74572 23.7788 9.01314 24.0472 9.31932C24.4945 9.8293 24.7838 10.4774 24.9061 11.2459C25.0323 12.0362 24.9906 12.9766 24.7838 14.0413C24.5452 15.266 24.1595 16.3327 23.6386 17.2055C23.1595 18.0098 22.5491 18.6768 21.8244 19.1937C21.1325 19.6848 20.3104 20.0576 19.3809 20.2962C18.4802 20.5308 17.4533 20.6491 16.327 20.6491H15.6013C15.0824 20.6491 14.5784 20.836 14.1827 21.171C13.7861 21.513 13.5236 21.9802 13.4431 22.4912L13.3884 22.7884L12.4699 28.6089L12.4281 28.8226C12.4172 28.8902 12.3983 28.924 12.3705 28.9469C12.3456 28.9677 12.3098 28.9817 12.275 28.9817H7.79462Z" fill="#8A8A8A"/>
<path id="Vector_8" d="M23.4835 7.62207C23.4557 7.80001 23.4239 7.98194 23.3881 8.16883C22.1584 14.4824 17.9513 16.6634 12.5782 16.6634H9.84246C9.18536 16.6634 8.63164 17.1406 8.52925 17.7887L7.12856 26.672L6.73191 29.1901C6.66531 29.6156 6.99336 29.9993 7.42281 29.9993H12.275C12.8496 29.9993 13.3377 29.5818 13.4282 29.0151L13.4759 28.7686L14.3895 22.971L14.4481 22.6529C14.5376 22.0843 15.0267 21.6667 15.6013 21.6667H16.327C21.0281 21.6667 24.7083 19.7581 25.7839 14.2348C26.2332 11.9275 26.0006 10.001 24.8116 8.64599C24.4518 8.23742 24.0054 7.89843 23.4835 7.62207Z" fill="#8A8A8A"/>
<path id="Vector_9" d="M22.197 7.10837C22.0092 7.0537 21.8153 7.00399 21.6165 6.95926C21.4167 6.91552 21.2119 6.87675 21.0011 6.84295C20.2635 6.72366 19.4553 6.66699 18.5895 6.66699H11.2808C11.1009 6.66699 10.9299 6.70775 10.7768 6.78131C10.4398 6.94335 10.1893 7.26246 10.1287 7.65314L8.57388 17.5007L8.52914 17.788C8.63154 17.1399 9.18525 16.6627 9.84235 16.6627H12.5781C17.9512 16.6627 22.1583 14.4806 23.388 8.16809C23.4248 7.98119 23.4556 7.79927 23.4834 7.62133C23.1723 7.45631 22.8353 7.31515 22.4724 7.19486C22.3829 7.16504 22.2905 7.13621 22.197 7.10837Z" fill="#8A8A8A"/>
<path id="Vector_10" d="M10.1288 7.65359C10.1895 7.26291 10.44 6.9438 10.777 6.78276C10.9311 6.70919 11.101 6.66843 11.281 6.66843H18.5896C19.4555 6.66843 20.2637 6.7251 21.0013 6.84439C21.2121 6.87819 21.4168 6.91696 21.6167 6.9607C21.8155 7.00543 22.0093 7.05514 22.1972 7.10982C22.2907 7.13765 22.3831 7.16648 22.4736 7.19531C22.8364 7.31559 23.1734 7.45775 23.4846 7.62178C23.8504 5.28862 23.4816 3.70005 22.2201 2.26158C20.8293 0.677977 18.3192 0 15.1073 0H5.7826C5.1265 0 4.56682 0.477169 4.46542 1.12632L0.581463 25.7452C0.504917 26.2324 0.880688 26.6717 1.37177 26.6717H7.12862L8.57404 17.5012L10.1288 7.65359Z" fill="#8A8A8A"/>
</g>
</svg>
