<svg width="122" height="50" viewBox="0 0 122 50" fill="none" xmlns="http://www.w3.org/2000/svg">
<path id="Stripe" d="M9.36425 19.5928C9.36425 18.2912 10.4323 17.7904 12.2016 17.7904C14.7382 17.7904 17.9424 18.5583 20.4791 19.9267V12.0827C17.7089 10.9813 14.9719 10.5474 12.2016 10.5474C5.4257 10.5474 0.919678 14.0856 0.919678 19.9936C0.919678 29.2056 13.6032 27.7372 13.6032 31.7093C13.6032 33.2444 12.2683 33.7452 10.399 33.7452C7.62873 33.7452 4.09056 32.6103 1.28673 31.0749V39.0189C4.39096 40.354 7.52852 40.9213 10.399 40.9213C17.3416 40.9213 22.1147 37.4836 22.1147 31.5089C22.0813 21.5623 9.36425 23.3311 9.36425 19.5928ZM31.9277 3.8719L23.7835 5.60742L23.7502 32.3432C23.7502 37.2834 27.4552 40.9213 32.3952 40.9213C35.1322 40.9213 37.1348 40.4207 38.2361 39.8199V33.0442C37.1683 33.4781 31.8944 35.0135 31.8944 30.0735V18.2243H38.2361V11.1149H31.8944L31.9277 3.8719ZM48.6169 13.5847L48.0828 11.1149H40.8731V40.3205H49.2177V20.5275C51.1868 17.9575 54.5247 18.4247 55.5595 18.7918V11.1149C54.4914 10.7143 50.5862 9.97991 48.6169 13.5847ZM57.5954 11.1149H65.9733V40.3205H57.5954V11.1149ZM57.5954 8.57811L65.9733 6.7757V0L57.5954 1.76908V8.57811ZM83.3966 10.5474C80.1255 10.5474 78.0227 12.0827 76.8547 13.151L76.4205 11.0815H69.0776V50L77.4219 48.2311L77.4555 38.7852C78.6571 39.653 80.4259 40.888 83.3633 40.888C89.338 40.888 94.7786 36.0815 94.7786 25.5008C94.7452 15.8211 89.2378 10.5474 83.3966 10.5474ZM81.394 33.5448C79.4248 33.5448 78.2562 32.844 77.4555 31.9761L77.4219 19.5928C78.2898 18.6249 79.4914 17.9575 81.394 17.9575C84.4314 17.9575 86.5342 21.3619 86.5342 25.7343C86.5342 30.207 84.4647 33.5448 81.394 33.5448ZM121.08 25.8346C121.08 17.2898 116.941 10.5474 109.031 10.5474C101.087 10.5474 96.2803 17.29 96.2803 25.7679C96.2803 35.8145 101.955 40.888 110.099 40.888C114.071 40.888 117.075 39.9868 119.345 38.7185V32.0428C117.075 33.1777 114.472 33.8787 111.167 33.8787C107.929 33.8787 105.059 32.7438 104.692 28.8052H121.014C121.014 28.3711 121.08 26.6355 121.08 25.8346ZM104.592 22.6637C104.592 18.892 106.895 17.3231 108.998 17.3231C111.034 17.3231 113.203 18.892 113.203 22.6637H104.592Z" fill="#8A8A8A"/>
</svg>
