<svg width="30" height="12" viewBox="0 0 30 12" fill="none" xmlns="http://www.w3.org/2000/svg">
<path d="M2.88583 4.70226C2.88583 4.38988 3.14217 4.26969 3.5668 4.26969C4.17557 4.26969 4.94458 4.45398 5.5534 4.78241V2.89985C4.88853 2.63552 4.23167 2.53137 3.5668 2.53137C1.94058 2.53137 0.859131 3.38053 0.859131 4.79847C0.859131 7.00935 3.90318 6.65692 3.90318 7.61023C3.90318 7.97865 3.5828 8.09885 3.13417 8.09885C2.4693 8.09885 1.62014 7.82646 0.947224 7.45798V9.36454C1.69224 9.68497 2.44525 9.82111 3.13417 9.82111C4.80038 9.82111 5.94593 8.99606 5.94593 7.56213C5.93793 5.17495 2.88583 5.59947 2.88583 4.70226ZM8.30106 0.929255L6.34646 1.34578L6.33846 7.76236C6.33846 8.94801 7.22767 9.82111 8.41326 9.82111C9.07012 9.82111 9.55075 9.70097 9.81508 9.55678V7.93061C9.5588 8.03475 8.29306 8.40323 8.29306 7.21764V4.37383H9.81508V2.66757H8.29306L8.30106 0.929255ZM12.3065 3.26034L12.1783 2.66757H10.448V9.67692H12.4507V4.92661C12.9232 4.30979 13.7243 4.42193 13.9727 4.51003V2.66757C13.7163 2.57142 12.7791 2.39518 12.3065 3.26034ZM14.4613 2.66757H16.472V9.67692H14.4613V2.66757ZM14.4613 2.05875L16.472 1.62617V0L14.4613 0.42458V2.05875ZM20.6536 2.53137C19.8685 2.53137 19.3639 2.89985 19.0835 3.15625L18.9793 2.65957H17.217V12L19.2197 11.5755L19.2277 9.30844C19.5161 9.51673 19.9406 9.81311 20.6456 9.81311C22.0795 9.81311 23.3853 8.65957 23.3853 6.1202C23.3773 3.79706 22.0555 2.53137 20.6536 2.53137ZM20.173 8.05075C19.7003 8.05075 19.4199 7.88256 19.2277 7.67427L19.2197 4.70226C19.428 4.46998 19.7163 4.30979 20.173 4.30979C20.9019 4.30979 21.4066 5.12684 21.4066 6.17624C21.4066 7.24969 20.9099 8.05075 20.173 8.05075ZM29.6977 6.20029C29.6977 4.14954 28.7043 2.53137 26.8058 2.53137C24.8992 2.53137 23.7457 4.1496 23.7457 6.1843C23.7457 8.59547 25.1076 9.81311 27.0621 9.81311C28.0154 9.81311 28.7364 9.59682 29.2811 9.29244V7.69027C28.7365 7.96266 28.1116 8.1309 27.3185 8.1309C26.5415 8.1309 25.8525 7.85851 25.7644 6.91326H29.6817C29.6817 6.80906 29.6977 6.39253 29.6977 6.20029ZM25.7404 5.43928C25.7404 4.53408 26.2932 4.15754 26.7978 4.15754C27.2865 4.15754 27.8072 4.53408 27.8072 5.43928H25.7404Z" fill="#6772E5"/>
</svg>
