<svg width="133" height="45" viewBox="0 0 133 45" fill="none" xmlns="http://www.w3.org/2000/svg">
<g id="svg-gobbler" clip-path="url(#clip0_672_277)">
<g id="Group">
<g id="Group_2">
<g id="Group_3">
<path id="Vector" d="M122.058 -0.000976562H11.1451C10.7453 -0.000976562 10.3455 -0.000976562 9.9457 -0.000976562C9.60303 -0.000976562 9.26035 -0.000976562 8.91768 -0.000976562C8.17521 -0.000976562 7.43275 0.056136 6.69029 0.170361C6.00493 0.341699 5.26247 0.570149 4.63423 0.912825C3.94888 1.2555 3.37776 1.65529 2.86374 2.22641C2.29262 2.74043 1.89283 3.31155 1.55015 3.9969C1.20748 4.68225 0.979028 5.36761 0.864803 6.11007C0.750578 6.79542 0.636353 7.53788 0.636353 8.28035C0.636353 8.62302 0.636353 8.9657 0.636353 9.30837V34.7806C0.636353 35.1233 0.636353 35.4659 0.636353 35.8086C0.636353 36.5511 0.693465 37.2935 0.80769 38.036C0.921915 38.7785 1.15037 39.4638 1.49304 40.1492C1.83572 40.8345 2.29262 41.4056 2.80663 41.9197C3.32064 42.4337 3.94888 42.8906 4.57712 43.2332C5.26247 43.5759 5.94782 43.8044 6.69029 43.9186C7.43275 44.0328 8.17521 44.0899 8.91768 44.0899C9.26035 44.0899 9.60303 44.0899 9.9457 44.0899C10.3455 44.0899 10.7453 44.0899 11.1451 44.0899H122.058C122.457 44.0899 122.857 44.0899 123.257 44.0899C123.6 44.0899 123.942 44.0899 124.285 44.0899C125.028 44.0899 125.77 44.0328 126.512 43.9186C127.255 43.8044 127.94 43.5759 128.626 43.2332C129.311 42.8906 129.882 42.4337 130.396 41.9197C130.91 41.4056 131.367 40.7774 131.71 40.1492C132.052 39.4638 132.281 38.7785 132.395 38.036C132.509 37.2935 132.566 36.5511 132.624 35.8086C132.624 35.4659 132.624 35.1233 132.624 34.7806C132.624 34.3808 132.624 33.981 132.624 33.5812V10.5077C132.624 10.1079 132.624 9.70816 132.624 9.30837C132.624 8.9657 132.624 8.62302 132.624 8.28035C132.624 7.53788 132.566 6.79542 132.395 6.05296C132.281 5.31049 132.052 4.62514 131.71 3.93979C131.024 2.6262 129.939 1.54106 128.626 0.855712C127.94 0.513037 127.255 0.284586 126.512 0.170361C125.77 0.056136 125.028 -0.000976562 124.285 -0.000976562C123.942 -0.000976562 123.6 -0.000976562 123.257 -0.000976562C122.857 -0.000976562 122.457 -0.000976562 122.058 -0.000976562Z" fill="black"/>
<path id="Vector_2" d="M9.94575 43.1188C9.60308 43.1188 9.2604 43.1188 8.97484 43.1188C8.28949 43.1188 7.60414 43.0617 6.91879 42.9475C6.29055 42.8332 5.66231 42.6619 5.09118 42.3192C4.52006 42.0337 4.00604 41.6339 3.54914 41.177C3.09224 40.7201 2.69246 40.2061 2.40689 39.6349C2.12133 39.0638 1.89288 38.4356 1.83577 37.8073C1.72154 37.122 1.66443 36.4366 1.66443 35.7513C1.66443 35.5228 1.66443 34.7233 1.66443 34.7233V9.30816C1.66443 9.30816 1.66443 8.5657 1.66443 8.33725C1.66443 7.6519 1.72154 6.96655 1.83577 6.2812C1.94999 5.65296 2.12133 5.02472 2.40689 4.45359C2.69246 3.88247 3.09224 3.36845 3.54914 2.91155C4.00604 2.45465 4.52006 2.05487 5.09118 1.7693C5.66231 1.48374 6.29055 1.25529 6.91879 1.14106C7.60414 1.02684 8.28949 0.969727 8.97484 0.969727H9.94575H123.257H124.285C124.97 0.969727 125.656 1.02684 126.341 1.14106C126.969 1.25529 127.598 1.42663 128.169 1.7693C129.311 2.34043 130.225 3.31134 130.853 4.45359C131.139 5.02472 131.367 5.65296 131.424 6.2812C131.538 6.96655 131.596 7.6519 131.596 8.33725C131.596 8.62281 131.596 8.96549 131.596 9.30816C131.596 9.70795 131.596 10.1077 131.596 10.5075V33.581C131.596 33.9808 131.596 34.3806 131.596 34.7804C131.596 35.1231 131.596 35.4657 131.596 35.8084C131.596 36.4938 131.538 37.1791 131.424 37.8645C131.31 38.4927 131.139 39.1209 130.853 39.6921C130.568 40.2632 130.168 40.7772 129.711 41.2341C129.254 41.691 128.74 42.0908 128.169 42.3763C127.598 42.6619 126.969 42.8904 126.341 43.0046C125.656 43.1188 124.97 43.1759 124.285 43.1759C123.942 43.1759 123.6 43.1759 123.314 43.1759H122.115L9.94575 43.1188Z" fill="black"/>
</g>
<g id="_Group_">
<g id="_Group_2">
<g id="_Group_3">
<path id="_Path_" d="M27.9362 22.3871C27.9362 20.5024 28.9642 18.789 30.5063 17.8181C29.4782 16.3903 27.8791 15.4765 26.1086 15.4194C24.281 15.248 22.4534 16.5045 21.5396 16.5045C20.5687 16.5045 19.1408 15.4194 17.5417 15.4765C15.4856 15.5336 13.6009 16.6759 12.63 18.5035C10.5169 22.2158 12.116 27.6415 14.1149 30.6113C15.143 32.0962 16.3423 33.6954 17.8844 33.6383C19.4264 33.5812 19.9975 32.6674 21.8251 32.6674C23.6527 32.6674 24.1668 33.6383 25.7659 33.5812C27.4222 33.5812 28.4502 32.0962 29.4211 30.6113C30.1636 29.5833 30.7347 28.441 31.0774 27.1846C29.1927 26.385 27.9362 24.5003 27.9362 22.3871Z" fill="white"/>
<path id="_Path_2" d="M24.9092 13.4774C25.823 12.3923 26.2228 11.0216 26.1657 9.65088C24.795 9.82222 23.5385 10.4505 22.6247 11.4785C21.7109 12.5065 21.254 13.8201 21.3682 15.1908C22.7389 15.1908 24.0525 14.5626 24.9092 13.4774Z" fill="white"/>
</g>
</g>
<g id="Group_4">
<path id="Vector_3" d="M47.2973 29.9259H42.1001L40.8436 33.6382H38.6162L43.585 19.9312H45.8695L50.8383 33.6382H48.6109L47.2973 29.9259ZM42.6141 28.2125H46.7262L44.6701 22.2157H44.613L42.6141 28.2125Z" fill="white"/>
<path id="Vector_4" d="M61.4613 28.6122C61.4613 31.6963 59.805 33.6952 57.2921 33.6952C55.9785 33.7523 54.7791 33.067 54.1509 31.9247H54.0938V36.8935H52.0377V23.6434H54.0367V25.2997H54.0938C54.722 24.1574 55.9785 23.4721 57.2921 23.5292C59.805 23.5292 61.4613 25.5281 61.4613 28.6122ZM59.3481 28.6122C59.3481 26.6133 58.3201 25.2426 56.7209 25.2426C55.1789 25.2426 54.0938 26.6133 54.0938 28.6122C54.0938 30.6111 55.1218 31.9819 56.7209 31.9819C58.3201 31.9819 59.3481 30.6683 59.3481 28.6122Z" fill="white"/>
<path id="Vector_5" d="M72.4269 28.6122C72.4269 31.6963 70.7706 33.6952 68.2577 33.6952C66.9441 33.7523 65.7447 33.067 65.1165 31.9247H65.0594V36.8935H63.0033V23.6434H65.0022V25.2997H65.0594C65.6876 24.1574 66.9441 23.4721 68.2577 23.5292C70.7706 23.5292 72.4269 25.5281 72.4269 28.6122ZM70.3137 28.6122C70.3137 26.6133 69.2857 25.2426 67.6865 25.2426C66.1445 25.2426 65.0594 26.6133 65.0594 28.6122C65.0594 30.6111 66.0874 31.9819 67.6865 31.9819C69.2857 31.9819 70.3137 30.6683 70.3137 28.6122Z" fill="white"/>
<path id="Vector_6" d="M79.6802 29.8116C79.8515 31.1823 81.1651 32.039 82.9356 32.039C84.649 32.039 85.9055 31.1252 85.9055 29.9258C85.9055 28.8406 85.163 28.2124 83.3925 27.8126L81.622 27.4128C79.1091 26.7846 77.9668 25.6423 77.9668 23.7005C77.9668 21.3589 80.0229 19.7026 82.9356 19.7026C85.8484 19.7026 87.7902 21.3018 87.9044 23.7005H85.8484C85.7341 22.3298 84.5919 21.5302 82.9356 21.5302C81.2794 21.5302 80.1371 22.3869 80.1371 23.5863C80.1371 24.5572 80.8796 25.1283 82.6501 25.5852L84.135 25.9279C86.9335 26.6133 88.1329 27.6984 88.1329 29.6973C88.1329 32.2674 86.0768 33.8666 82.8214 33.8666C79.7944 33.8666 77.7384 32.3245 77.6241 29.8116H79.6802Z" fill="white"/>
<path id="Vector_7" d="M92.5305 21.3018V23.6434H94.4152V25.2425H92.5305V30.7253C92.5305 31.582 92.9303 31.9818 93.7299 31.9818C93.9583 31.9818 94.1868 31.9818 94.4152 31.9247V33.5238C94.0154 33.581 93.6727 33.6381 93.273 33.6381C91.274 33.6381 90.4744 32.8956 90.4744 30.9538V25.2425H89.0466V23.6434H90.4744V21.3018H92.5305Z" fill="white"/>
<path id="Vector_8" d="M95.5004 28.6123C95.5004 25.4711 97.328 23.4722 100.241 23.4722C103.153 23.4722 104.981 25.4711 104.981 28.6123C104.981 31.7535 103.153 33.7524 100.241 33.7524C97.328 33.7524 95.5004 31.7535 95.5004 28.6123ZM102.925 28.6123C102.925 26.442 101.954 25.1855 100.298 25.1855C98.6416 25.1855 97.6706 26.442 97.6706 28.6123C97.6706 30.7826 98.6416 32.0391 100.298 32.0391C101.954 32.0391 102.925 30.7826 102.925 28.6123Z" fill="white"/>
<path id="Vector_9" d="M106.694 23.6435H108.636V25.3569H108.693C108.979 24.2718 109.95 23.5293 111.092 23.5293C111.321 23.5293 111.549 23.5293 111.777 23.5864V25.5282C111.492 25.414 111.149 25.414 110.864 25.414C109.721 25.3569 108.75 26.2707 108.693 27.413C108.693 27.5272 108.693 27.6414 108.693 27.7556V33.6953H106.637L106.694 23.6435Z" fill="white"/>
<path id="Vector_10" d="M121.258 30.6684C120.972 32.496 119.202 33.7524 116.975 33.7524C114.062 33.7524 112.291 31.8106 112.291 28.6694C112.291 25.5282 114.119 23.5293 116.918 23.5293C119.659 23.5293 121.429 25.414 121.429 28.441V29.1263H114.29V29.2406C114.176 30.6684 115.204 31.9248 116.632 32.0391C116.746 32.0391 116.86 32.0391 116.975 32.0391C117.946 32.1533 118.916 31.5822 119.259 30.6113L121.258 30.6684ZM114.29 27.6985H119.259C119.316 26.3849 118.345 25.2427 116.975 25.1856C116.917 25.1856 116.86 25.1856 116.803 25.1856C115.433 25.1856 114.29 26.2707 114.29 27.6985Z" fill="white"/>
</g>
</g>
</g>
<g id="_Group_4">
<g id="Group_5">
<path id="Vector_11" d="M42.3285 9.65108C43.9277 9.53686 45.2984 10.7362 45.4126 12.3354C45.4126 12.5067 45.4126 12.7352 45.4126 12.9065C45.4126 15.0197 44.2704 16.219 42.3285 16.219H39.9298V9.65108H42.3285ZM40.9578 15.2481H42.2143C43.3566 15.3052 44.3275 14.4485 44.3846 13.3063C44.3846 13.1921 44.3846 13.0207 44.3846 12.9065C44.5559 11.7642 43.7564 10.7362 42.6141 10.5649C42.4999 10.5649 42.3285 10.5649 42.2143 10.5649H40.9578V15.2481Z" fill="white"/>
<path id="Vector_12" d="M46.6119 13.7062C46.4977 12.3926 47.4115 11.2503 48.7251 11.1361C50.0387 11.0219 51.1809 11.9357 51.2952 13.2493C51.2952 13.4206 51.2952 13.5348 51.2952 13.7062C51.4094 15.0197 50.4956 16.162 49.182 16.2762C47.8684 16.3905 46.7262 15.4766 46.6119 14.1631C46.5548 14.0488 46.5548 13.8775 46.6119 13.7062ZM50.2671 13.7062C50.2671 12.621 49.8102 11.9928 48.9535 11.9928C48.0969 11.9928 47.64 12.621 47.64 13.7062C47.64 14.7913 48.0969 15.4195 48.9535 15.4195C49.7531 15.4195 50.2671 14.7913 50.2671 13.7062Z" fill="white"/>
<path id="Vector_13" d="M57.5205 16.2193H56.4925L55.4645 12.5641H55.4073L54.3793 16.2193H53.3513L51.9806 11.2505H52.9515L53.8653 15.0199H53.9224L54.9504 11.2505H55.8642L56.8923 15.0199H56.9494L57.8061 11.2505H58.777L57.5205 16.2193Z" fill="white"/>
<path id="Vector_14" d="M60.0334 11.2503H61.0044V12.0499H61.0615C61.2899 11.4788 61.9182 11.1361 62.5464 11.1932C63.4602 11.1361 64.2027 11.8214 64.2598 12.6781C64.2598 12.7923 64.2598 12.9066 64.2598 13.0208V16.2191H63.2889V13.2492C63.2889 12.4497 62.9462 12.0499 62.2037 12.0499C61.5755 11.9928 61.0615 12.5068 61.0044 13.135C61.0044 13.1921 61.0044 13.2492 61.0044 13.3064V16.2191H60.0334V11.2503Z" fill="white"/>
<path id="Vector_15" d="M65.8018 9.30859H66.7727V16.2192H65.8018V9.30859Z" fill="white"/>
<path id="Vector_16" d="M68.1434 13.7062C68.0292 12.3926 68.943 11.2503 70.2566 11.1361C71.5702 11.0219 72.7124 11.9357 72.8267 13.2493C72.8267 13.4206 72.8267 13.5348 72.8267 13.7062C72.9409 15.0197 72.0271 16.162 70.7135 16.2762C69.3999 16.3905 68.2576 15.4766 68.1434 14.1631C68.0863 14.0488 68.0863 13.8775 68.1434 13.7062ZM71.7986 13.7062C71.7986 12.621 71.3417 11.9928 70.485 11.9928C69.6284 11.9928 69.1714 12.621 69.1714 13.7062C69.1714 14.7913 69.6284 15.4195 70.485 15.4195C71.3417 15.4195 71.7986 14.7913 71.7986 13.7062Z" fill="white"/>
<path id="Vector_17" d="M73.8547 14.7914C73.8547 13.8776 74.5401 13.3636 75.6823 13.3065L77.053 13.2494V12.7925C77.053 12.2785 76.7104 11.9929 76.025 11.9929C75.4539 11.9929 75.1112 12.2214 74.997 12.564H74.0261C74.1403 11.7074 74.9399 11.1362 76.0821 11.1362C77.3386 11.1362 78.024 11.7645 78.024 12.7925V16.1621H77.053V15.4768H76.9959C76.6533 15.9908 76.0821 16.2764 75.511 16.2764C74.7114 16.3906 73.969 15.7623 73.8547 14.9628C73.8547 14.9057 73.8547 14.8485 73.8547 14.7914ZM77.053 14.3916V13.9919L75.8537 14.049C75.1683 14.1061 74.8828 14.3345 74.8828 14.7914C74.8828 15.2483 75.2826 15.4768 75.7966 15.4768C76.3677 15.5339 76.9388 15.077 77.053 14.3916Z" fill="white"/>
<path id="Vector_18" d="M79.2804 13.7062C79.2804 12.1642 80.08 11.1362 81.3365 11.1362C81.9647 11.0791 82.5358 11.4217 82.8785 11.9929H82.9356V9.25146H83.9065V16.1621H82.9927V15.4196H82.9356C82.5929 15.9907 82.0218 16.3334 81.3936 16.2763C80.08 16.2763 79.2804 15.3054 79.2804 13.7062ZM80.3084 13.7062C80.3084 14.7343 80.8224 15.4196 81.622 15.4196C82.4216 15.4196 82.9356 14.7914 82.9356 13.7634C82.9356 12.7353 82.4216 12.05 81.622 12.05C80.8224 12.05 80.3084 12.6782 80.3084 13.7062Z" fill="white"/>
<path id="Vector_19" d="M87.9615 13.7062C87.8473 12.3926 88.7611 11.2503 90.0747 11.1361C91.3883 11.0219 92.5305 11.9357 92.6448 13.2493C92.6448 13.4206 92.6448 13.5348 92.6448 13.7062C92.759 15.0197 91.8452 16.162 90.5316 16.2762C89.218 16.3905 88.0758 15.4766 87.9615 14.1631C87.9615 14.0488 87.9615 13.8775 87.9615 13.7062ZM91.6739 13.7062C91.6739 12.621 91.217 11.9928 90.3603 11.9928C89.5036 11.9928 89.0467 12.621 89.0467 13.7062C89.0467 14.7913 89.5036 15.4195 90.3603 15.4195C91.1598 15.4195 91.6739 14.7913 91.6739 13.7062Z" fill="white"/>
<path id="Vector_20" d="M93.9583 11.2503H94.9292V12.0499H94.9863C95.2147 11.4788 95.843 11.1361 96.4712 11.1932C97.385 11.1361 98.1275 11.8214 98.1846 12.6781C98.1846 12.7923 98.1846 12.9066 98.1846 13.0208V16.2191H97.2137V13.2492C97.2137 12.4497 96.871 12.0499 96.1285 12.0499C95.5003 11.9928 94.9863 12.5068 94.9292 13.135C94.9292 13.1921 94.9292 13.2492 94.9292 13.3064V16.2191H93.9583V11.2503Z" fill="white"/>
<path id="Vector_21" d="M103.725 9.99414V11.2506H104.81V12.0502H103.725V14.6203C103.725 15.1343 103.953 15.3627 104.41 15.3627C104.524 15.3627 104.638 15.3627 104.81 15.3627V16.1623C104.638 16.2194 104.467 16.2194 104.296 16.2194C103.211 16.2194 102.754 15.8196 102.754 14.9058V12.1073H101.954V11.3077H102.754V10.0513H103.725V9.99414Z" fill="white"/>
<path id="Vector_22" d="M106.123 9.30859H107.094V12.05H107.151C107.437 11.4789 108.008 11.1362 108.693 11.1362C109.607 11.0791 110.35 11.7644 110.407 12.6782C110.407 12.7925 110.407 12.9067 110.407 12.9638V16.1621H109.436V13.1922C109.436 12.3927 109.093 11.9929 108.351 11.9929C107.722 11.9358 107.151 12.3927 107.094 13.078C107.094 13.1351 107.094 13.1922 107.094 13.2494V16.1621H106.123V9.30859Z" fill="white"/>
<path id="Vector_23" d="M116.118 14.8486C115.832 15.7624 114.919 16.3906 113.948 16.2764C112.691 16.3335 111.663 15.3055 111.606 14.1061C111.606 13.9919 111.606 13.8777 111.606 13.7634C111.435 12.5069 112.291 11.3647 113.548 11.1934C113.662 11.1934 113.776 11.1934 113.891 11.1934C115.261 11.1934 116.118 12.1643 116.118 13.7063V14.049H112.634V14.1061C112.577 14.8486 113.091 15.4768 113.834 15.5339C113.891 15.5339 113.891 15.5339 113.948 15.5339C114.405 15.591 114.919 15.3626 115.147 14.9057L116.118 14.8486ZM112.691 13.2494H115.204C115.261 12.5641 114.747 11.9929 114.119 11.9929C114.062 11.9929 114.062 11.9929 114.005 11.9929C113.262 11.9929 112.691 12.5069 112.691 13.2494Z" fill="white"/>
</g>
</g>
</g>
</g>
<defs>
<clipPath id="clip0_672_277">
<rect width="131.93" height="44.0909" fill="white" transform="translate(0.636353 -0.000976562)"/>
</clipPath>
</defs>
</svg>
