<svg width="40" height="40" viewBox="0 0 40 40" fill="none" xmlns="http://www.w3.org/2000/svg">
<g id="Property 1=Idle">
<circle id="Ellipse 7" cx="20" cy="20" r="19" stroke="url(#paint0_linear_696_343)"/>
<path id="Vector" d="M28.415 13.6817C29.3095 13.1453 29.9788 12.3006 30.298 11.3054C29.4574 11.8057 28.5378 12.1581 27.5788 12.3474C26.932 11.6611 26.0781 11.2072 25.1487 11.0557C24.2194 10.9043 23.2662 11.0636 22.436 11.5092C21.6059 11.9548 20.9449 12.662 20.555 13.5216C20.165 14.3813 20.0678 15.3457 20.2782 16.2663C18.5757 16.1806 16.9102 15.7366 15.3898 14.9634C13.8694 14.1901 12.5281 13.1048 11.4529 11.7778C10.9061 12.7239 10.7388 13.8432 10.985 14.9085C11.2311 15.9738 11.8722 16.9052 12.7781 17.5135C12.0983 17.4916 11.4335 17.307 10.8392 16.975V17.0291C10.8394 18.021 11.1816 18.9824 11.8078 19.7501C12.434 20.5178 13.3057 21.0447 14.2749 21.2412C13.6443 21.4133 12.9829 21.4387 12.341 21.3153C12.6152 22.1685 13.148 22.9145 13.8652 23.4493C14.5824 23.984 15.4481 24.2808 16.3416 24.2983C14.8246 25.4926 12.9512 26.1403 11.0228 26.1371C10.6806 26.1371 10.3393 26.1171 10 26.0781C11.9583 27.3403 14.2374 28.0103 16.5651 28.008C18.1683 28.019 19.7577 27.7104 21.241 27.1C22.7243 26.4896 24.0719 25.5897 25.2055 24.4525C26.3391 23.3152 27.2362 21.9633 27.8445 20.4754C28.4529 18.9874 28.7604 17.393 28.7493 15.7848C28.7493 15.5986 28.7453 15.4135 28.7363 15.2293C29.575 14.6213 30.2988 13.8681 30.8738 13.0051C30.0924 13.3524 29.2637 13.5805 28.415 13.6817Z" fill="white"/>
</g>
<defs>
<linearGradient id="paint0_linear_696_343" x1="1.25" y1="20" x2="41.7905" y2="20.027" gradientUnits="userSpaceOnUse">
<stop stop-color="#5A00FE"/>
<stop offset="0.9773" stop-color="#FD5265"/>
</linearGradient>
</defs>
</svg>
