<svg width="138" height="26" viewBox="0 0 138 26" fill="none" xmlns="http://www.w3.org/2000/svg">
<path d="M23.1096 0C24.0333 1.5253 24.4495 3.09466 24.4495 5.07877C24.4495 11.4063 19.0487 19.6253 14.6657 25.3969H4.63884L0.635681 1.38553L9.40161 0.552998L11.5255 17.6397C13.5096 14.4083 15.9571 9.32956 15.9571 5.86572C15.9571 3.96973 15.6319 2.67991 15.1245 1.61645L23.1096 0ZM34.4734 10.5738C36.0868 10.5738 40.1477 9.83546 40.1477 7.52776C40.1477 6.41872 39.3637 5.86572 38.4401 5.86572C36.8236 5.86572 34.7028 7.80426 34.4718 10.5753L34.4734 10.5738ZM34.288 15.1315C34.288 17.9496 35.8559 19.0556 37.9342 19.0556C40.213 19.0556 42.3627 18.5026 45.1809 17.0715L44.1204 24.2726C42.1363 25.2419 39.0462 25.8891 36.0427 25.8891C28.4466 25.8891 25.7044 21.2707 25.7044 15.5006C25.7044 8.01998 30.136 0.07596 39.2741 0.07596C44.2876 0.07596 47.1179 2.89412 47.1179 6.82132C47.1179 13.1489 38.9961 15.0859 34.288 15.1315ZM72.4205 5.63632C72.4205 6.56001 72.2808 7.91516 72.141 8.77504L69.5082 25.3954H60.9702L63.3705 10.1575L63.5559 8.44993C63.5559 7.34089 62.8631 7.06439 62.0306 7.06439C60.9246 7.06439 59.8155 7.57181 59.0772 7.9425L56.3547 25.4136H47.7711L51.6938 0.524131H59.138L59.2322 2.51128C60.9853 1.35667 63.293 0.110903 66.57 0.110903C70.9089 0.110903 72.4342 2.32897 72.4342 5.65607L72.4205 5.63632ZM97.7612 2.81664C100.192 1.06346 102.516 0.092671 105.698 0.092671C110.081 0.092671 111.623 2.31074 111.623 5.63784C111.623 6.56153 111.483 7.91668 111.343 8.77656L108.715 25.3969H100.145L102.576 9.83546L102.715 8.58969C102.715 7.34089 102.023 7.06439 101.19 7.06439C100.13 7.06439 99.0693 7.52624 98.2823 7.9425L95.5477 25.4136H87.0097L89.4404 9.85217L89.5923 8.6064C89.5923 7.3576 88.8996 7.0811 88.0701 7.0811C86.961 7.0811 85.855 7.58853 85.1167 7.95922L82.3927 25.4303H73.8091L77.7287 0.540842H85.0666L85.2975 2.61914C87.0051 1.37338 89.3113 0.127614 92.4029 0.127614C95.0798 0.126095 96.833 1.28222 97.7111 2.85158L97.7612 2.81664ZM128.595 10.0664C128.595 8.03518 128.088 6.64812 126.566 6.64812C123.196 6.64812 122.505 12.6035 122.505 15.651C122.505 17.9633 123.152 19.3929 124.673 19.3929C127.857 19.3929 128.595 13.1124 128.595 10.0664ZM113.829 15.2849C113.829 7.43508 117.981 0.092671 127.535 0.092671C134.736 0.092671 137.364 4.34194 137.364 10.2077C137.364 17.9663 133.256 26 123.473 26C116.226 26 113.825 21.2448 113.825 15.2864L113.829 15.2849Z" fill="#8A8A8A"/>
</svg>
