<svg width="134" height="30" viewBox="0 0 134 30" fill="none" xmlns="http://www.w3.org/2000/svg">
<g id="Wise">
<g id="Wise_7_">
<path id="Vector" d="M133.262 13.1138C133.262 5.41488 127.898 0 120.379 0C110.807 0 104.391 6.95466 104.391 16.8862C104.391 24.6364 109.806 30 117.453 30C124.408 30 129.592 26.6382 131.722 21.2746H123.997C122.971 22.9427 120.789 23.9949 118.12 23.9949C114.014 23.9949 111.448 21.2746 111.217 17.4251H132.825C133.108 15.9624 133.262 14.7049 133.262 13.1138ZM111.807 12.2156C112.5 8.67408 115.939 5.85115 120.096 5.85115C123.689 5.85115 126.41 8.46878 126.41 12.2156H111.807ZM83.6294 29.3071L85.0152 21.9162C89.2496 22.763 89.8912 20.3764 90.9947 14.6279L91.5336 11.7793C93.0734 3.74679 96.1786 -0.25663 105.058 0.821215L103.672 8.21215C99.4378 7.36527 98.6936 10.5731 97.7441 15.5518L97.2052 18.4003C95.6654 26.5355 92.4575 30.3849 83.6294 29.3071ZM73.2616 29.3328L78.4969 0.6929H85.4002L80.1906 29.3328H73.2616ZM33.715 0.6929H40.413L42.5944 21.4029L51.3711 0.6929H58.0178L60.3531 21.6082L68.8219 0.6929H75.4943L63.3557 29.3328H55.7595L53.2958 9.62361L44.904 29.3328H37.5644L33.715 0.6929Z" fill="#8A8A8A"/>
</g>
<path id="FF_7_" d="M8.69392 8.2896L0.738403 15.8858H14.2628L15.6742 12.5753H8.82224L13.1079 8.2896L10.6186 4.00388H22.244L11.5168 29.3332H15.5459L27.6845 0.693359H4.22857L8.69392 8.2896Z" fill="#8A8A8A"/>
</g>
</svg>
