<svg xmlns="http://www.w3.org/2000/svg" width="15" height="15" viewBox="0 0 15 15" fill="none">
            <path d="M7.14844 14.5C6.19177 14.5 5.2876 14.3161 4.43594 13.9484C3.58427 13.5811 2.84064 13.0795 2.20504 12.4434C1.56897 11.8078 1.0673 11.0642 0.700038 10.2125C0.332304 9.36083 0.148438 8.45667 0.148438 7.5C0.148438 6.53167 0.332304 5.6247 0.700038 4.7791C1.0673 3.93303 1.56897 3.1922 2.20504 2.5566C2.84064 1.92053 3.58427 1.41863 4.43594 1.0509C5.2876 0.683633 6.19177 0.5 7.14844 0.5C8.11677 0.5 9.02374 0.683633 9.86934 1.0509C10.7154 1.41863 11.4562 1.92053 12.0918 2.5566C12.7279 3.1922 13.2296 3.93303 13.5968 4.7791C13.9646 5.6247 14.1484 6.53167 14.1484 7.5C14.1484 8.45667 13.9646 9.36083 13.5968 10.2125C13.2296 11.0642 12.7279 11.8078 12.0918 12.4434C11.4562 13.0795 10.7154 13.5811 9.86934 13.9484C9.02374 14.3161 8.11677 14.5 7.14844 14.5ZM7.14844 13.065C7.45177 12.645 7.71427 12.2075 7.93594 11.7525C8.1576 11.2975 8.33844 10.8133 8.47844 10.3H5.81844C5.95844 10.8133 6.13927 11.2975 6.36094 11.7525C6.5826 12.2075 6.8451 12.645 7.14844 13.065ZM5.32844 12.785C5.11844 12.4 4.9348 12.0003 4.77754 11.5859C4.6198 11.172 4.48844 10.7433 4.38344 10.3H2.31844C2.65677 10.8833 3.07957 11.3908 3.58684 11.8225C4.09457 12.2542 4.6751 12.575 5.32844 12.785ZM8.96844 12.785C9.62177 12.575 10.2021 12.2542 10.7093 11.8225C11.2171 11.3908 11.6401 10.8833 11.9784 10.3H9.91344C9.80844 10.7433 9.6773 11.172 9.52004 11.5859C9.3623 12.0003 9.17844 12.4 8.96844 12.785ZM1.72344 8.9H4.10344C4.06844 8.66667 4.04207 8.43613 4.02434 8.2084C4.00707 7.98113 3.99844 7.745 3.99844 7.5C3.99844 7.255 4.00707 7.01887 4.02434 6.7916C4.04207 6.56387 4.06844 6.33333 4.10344 6.1H1.72344C1.6651 6.33333 1.62124 6.56387 1.59184 6.7916C1.5629 7.01887 1.54844 7.255 1.54844 7.5C1.54844 7.745 1.5629 7.98113 1.59184 8.2084C1.62124 8.43613 1.6651 8.66667 1.72344 8.9ZM5.50344 8.9H8.79344C8.82844 8.66667 8.8548 8.43613 8.87254 8.2084C8.8898 7.98113 8.89844 7.745 8.89844 7.5C8.89844 7.255 8.8898 7.01887 8.87254 6.7916C8.8548 6.56387 8.82844 6.33333 8.79344 6.1H5.50344C5.46844 6.33333 5.4423 6.56387 5.42504 6.7916C5.4073 7.01887 5.39844 7.255 5.39844 7.5C5.39844 7.745 5.4073 7.98113 5.42504 8.2084C5.4423 8.43613 5.46844 8.66667 5.50344 8.9ZM10.1934 8.9H12.5734C12.6318 8.66667 12.6756 8.43613 12.705 8.2084C12.734 7.98113 12.7484 7.745 12.7484 7.5C12.7484 7.255 12.734 7.01887 12.705 6.7916C12.6756 6.56387 12.6318 6.33333 12.5734 6.1H10.1934C10.2284 6.33333 10.2546 6.56387 10.2718 6.7916C10.2896 7.01887 10.2984 7.255 10.2984 7.5C10.2984 7.745 10.2896 7.98113 10.2718 8.2084C10.2546 8.43613 10.2284 8.66667 10.1934 8.9ZM9.91344 4.7H11.9784C11.6401 4.11667 11.2171 3.60917 10.7093 3.1775C10.2021 2.74583 9.62177 2.425 8.96844 2.215C9.17844 2.6 9.3623 2.99947 9.52004 3.4134C9.6773 3.8278 9.80844 4.25667 9.91344 4.7ZM5.81844 4.7H8.47844C8.33844 4.18667 8.1576 3.7025 7.93594 3.2475C7.71427 2.7925 7.45177 2.355 7.14844 1.935C6.8451 2.355 6.5826 2.7925 6.36094 3.2475C6.13927 3.7025 5.95844 4.18667 5.81844 4.7ZM2.31844 4.7H4.38344C4.48844 4.25667 4.6198 3.8278 4.77754 3.4134C4.9348 2.99947 5.11844 2.6 5.32844 2.215C4.6751 2.425 4.09457 2.74583 3.58684 3.1775C3.07957 3.60917 2.65677 4.11667 2.31844 4.7Z" fill="#545454"/>
          </svg>