<svg width="94" height="40" viewBox="0 0 94 40" fill="none" xmlns="http://www.w3.org/2000/svg">
<path d="M9.70692 5.53945L1.23968 5.46151V11.0789H15.2721L0.689209 29.7713V34.525H9.70692V40H15.1175V34.525H24.3156C24.3929 34.306 24.42 33.7154 23.9304 33.1744C23.1188 32.2726 22.4734 31.3301 21.8808 30.1449C21.6103 29.6167 21.4048 28.9842 21.3275 28.9327C19.5163 28.8496 9.09578 28.8711 9.10145 28.8052L23.6973 9.99807V5.53945H15.1175V0H9.70692V5.53945ZM48.7794 2.92432C48.6506 2.97585 48.6119 5.82287 48.6119 16.6055C48.6119 31.1755 48.599 30.9308 49.2432 32.1804C49.8229 33.3011 51.2399 34.306 52.8245 34.7182C53.7005 34.9501 56.277 34.9758 57.2689 34.7697C58.5443 34.4992 58.789 34.1127 58.2866 33.1208C57.9646 32.5024 57.5394 31.1498 57.4364 30.4026C57.2947 29.5137 57.1143 29.372 56.0322 29.3977C55.5169 29.4106 55.0274 29.372 54.9372 29.3204C54.409 28.9855 54.409 28.8953 54.409 15.8454C54.409 7.45894 54.3704 3.24638 54.2802 3.0789C54.1514 2.84702 53.9839 2.83414 51.5362 2.84702C50.1063 2.84702 48.8567 2.88567 48.7794 2.92432ZM60.5926 2.96296C60.4251 3.06602 60.3994 4.71498 60.3994 16.5153C60.3994 29.2303 60.4122 30.0032 60.6441 30.8921C61.0821 32.6441 62.0741 33.7134 63.9549 34.4992C64.6763 34.7955 64.9984 34.847 66.4541 34.8857C68.3994 34.9372 69.3913 34.7955 70.3832 34.2931C71.3623 33.8164 71.3881 33.4815 70.5507 32.2576C70.2158 31.7681 69.7005 30.9308 69.4171 30.4026L68.9018 29.4364L67.9613 29.4235C66.789 29.3977 66.6731 29.3462 66.4541 28.7923C66.2866 28.4187 66.2609 26.4992 66.2609 15.8454C66.2609 7.45894 66.2222 3.24638 66.132 3.0789C66.0032 2.84702 65.8357 2.83414 63.3881 2.83414C61.9581 2.83414 60.6956 2.89855 60.5926 2.96296Z" fill="#8A8A8A"/>
<path d="M32.5733 11.014C32.5088 11.0398 32.0064 11.1558 31.4782 11.2717C28.1675 12.0318 25.2431 14.5696 24.0064 17.7902C23.3237 19.568 23.0789 20.9464 23.066 22.9947C23.0531 25.8675 23.6328 27.9802 24.9597 29.9899C26.4541 32.2443 28.6441 33.7773 31.4782 34.5503C32.4444 34.8079 32.8695 34.8466 35.0853 34.8466C37.2753 34.8466 37.7262 34.8079 38.6409 34.5632C40.9082 33.9319 42.8406 32.8884 44.3993 31.407C45.3913 30.4794 45.3784 30.2218 44.3736 29.4488C43.9613 29.1268 43.2142 28.4311 42.7246 27.8901C42.1063 27.233 41.7327 26.9239 41.5394 26.9239C41.3591 26.9239 40.9468 27.1815 40.5475 27.568C39.1691 28.8176 37.4299 29.4102 35.1497 29.3973C33.0628 29.3844 31.5427 28.8434 30.5765 27.7355C30.0869 27.1815 29.4686 25.919 29.3398 25.2105L29.2625 24.7339H37.2882C41.7069 24.7339 45.4042 24.6823 45.4943 24.6179C45.9195 24.3474 46.0225 22.4794 45.7133 20.444C44.979 15.5744 42.0676 12.3023 37.4943 11.2073C36.6828 11.014 36.0129 10.9496 34.57 10.9625C33.5394 10.9625 32.6505 10.9883 32.5733 11.014ZM36.0129 15.9867C36.9533 16.1799 38.1127 16.824 38.6538 17.4424C39.1562 18.0092 39.6715 19.0269 39.8003 19.6839L39.8905 20.0962H29.3913L29.4815 19.6839C29.8679 17.9448 31.3623 16.4891 33.2174 16.0253C34.0419 15.8192 35.1497 15.8063 36.0129 15.9867ZM79.4009 11.13C74.8277 12.1477 71.7359 15.3683 70.7697 20.1219C70.19 22.9303 70.5121 26.2025 71.6071 28.5471C73.1014 31.7934 75.8196 33.8933 79.5298 34.6533C80.7021 34.8981 81.1658 34.9239 83.008 34.8723C84.5668 34.8208 85.4042 34.7306 86.1256 34.5374C88.3285 33.9577 90.2608 32.9013 91.7423 31.4843C92.876 30.3892 92.876 30.3377 91.6522 29.32C91.0853 28.8562 90.3253 28.1219 89.9646 27.6968C89.1272 26.7306 88.9082 26.7178 87.9678 27.568C86.5636 28.8434 84.8889 29.4102 82.5571 29.3973C79.285 29.3844 77.3784 27.9802 76.76 25.1461L76.6699 24.8118H92.9919C93.5459 24.4124 93.3398 20.1864 92.6699 18.2282C92.541 17.8417 92.1932 17.0688 91.9098 16.5277C90.4026 13.6421 87.9935 11.8514 84.6441 11.1429C83.5749 10.911 80.4187 10.911 79.4009 11.13ZM83.4203 15.9867C84.2963 16.1799 85.1981 16.6308 85.8422 17.2105C86.3832 17.7129 87.2592 19.2975 87.2592 19.787V20.0962H76.7987L76.8889 19.7355C77.5588 16.9786 80.3929 15.3426 83.4203 15.9867Z" fill="#8A8A8A"/>
</svg>
